M48
;Layer_Color=9474304
;FILE_FORMAT=2:5
INCH,TZ
;TYPE=PLATED
T1F00S00C0.01500
T2F00S00C0.01575
T4F00S00C0.03937
T5F00S00C0.04331
T6F00S00C0.04700
T7F00S00C0.12800
;TYPE=NON_PLATED
T8F00S00C0.04700
%
T01
X23500Y22500
X46000Y49000
X54000Y50500
X68000
X74000Y54500
Y64500
X66500
X54684Y64491
X46500Y69500
X45908Y59500
X29500Y75000
Y79000
Y93000
X10500
Y83000
X60000Y86000
Y92000
Y98000
Y104000
X60500Y112500
X70000Y118500
X84500Y113000
X102500Y94000
X102000Y84000
X115000Y77000
X127000Y75889
X136836Y76164
X146000Y69000
X156035Y68616
X150500Y82050
X136500Y93500
X140500Y101500
X137500Y110500
X137520Y118192
X139000Y126000
Y132500
X138500Y138000
X140700Y149000
X147000
X154000
X151000Y128000
X151500Y121000
X118599Y141830
X121000Y150500
X92000Y153500
X64000Y156000
Y150000
X62000Y139500
X52000Y134000
X37500Y138500
X75269Y75046
X115500Y51000
X122500Y42000
X136500Y49500
X146000Y45000
Y57000
X154000Y25000
X107000Y35000
X171000Y32500
X170460Y40858
X171000Y48000
X175500Y52000
X176500Y58500
Y63000
X178500Y71000
X172000Y75500
X168500Y82500
X159500
X156500Y76000
X165500Y67000
X182500Y89450
X184500Y98500
X179000
X190702Y98335
X197500Y97650
X205235Y102265
X210500Y102500
X209000Y92500
X222000Y97000
X237500Y91500
X239500Y73000
X252000Y49000
X274000Y50000
X283000Y49621
X281569Y42140
X280500Y64500
X272500Y68500
X266000Y90000
X266376Y120363
X249792Y113803
X248864Y130012
X239500Y148500
X226500Y140000
X220000Y128000
X202000Y118000
X192000Y125000
Y131000
X185500Y119500
X184500Y109000
X190777Y109818
X176050Y109500
X162609Y116013
X171500Y135000
X178000Y147000
X164500Y150500
X194971Y147432
X206500Y147500
X278500Y156000
X291000Y149500
X312000Y126000
X311756Y82735
X308000Y43000
X299000Y51000
X236000Y28500
X217000
X218000Y42000
X187500Y41000
X179500
X325000Y51000
X318000Y148500
X290500Y164500
X285000Y172500
X290500Y180500
X264000Y179500
X264500Y164500
X248500Y159500
X114000Y159000
Y169000
X92000Y174000
Y163500
X64000Y162000
Y168000
X39500
X20000
Y158000
T02
X14051Y38816
X17201
X20350
X18776Y41572
X15626
X12476
X21925
X25075
X28224
X31374
X34524
X32949Y38816
X29799
X26650
T04
X262000Y31000
X272000
X286000
X296000
X310500
X320500
X164000Y167500
Y177500
X154000
X144000
Y167500
X154000
T05
X67000Y20000
X87000
X196500Y174000
X216500
T06
X106882Y12000
X120661
X134441
X148221
X162000
X175779
X189559
X203339
X220220
X234000
X247779
X261559
X275339
X289118
X302898
X316677
T07
X317500Y176500
T08
X289000Y106772
M30
