G04*
G04 #@! TF.GenerationSoftware,Altium Limited,Altium Designer,21.9.2 (33)*
G04*
G04 Layer_Color=16711935*
%FSLAX25Y25*%
%MOIN*%
G70*
G04*
G04 #@! TF.SameCoordinates,A0D018B4-DB31-4F92-A021-C5504D576F11*
G04*
G04*
G04 #@! TF.FilePolarity,Positive*
G04*
G01*
G75*
%ADD10C,0.00787*%
G36*
X60352Y63269D02*
X60956D01*
Y62960D01*
X60352D01*
Y61864D01*
X60068D01*
X58438Y63018D01*
Y63269D01*
X60068D01*
Y63612D01*
X60352D01*
Y63269D01*
D02*
G37*
G36*
X60268Y61660D02*
X60298Y61657D01*
X60330Y61650D01*
X60367Y61642D01*
X60407Y61635D01*
X60494Y61606D01*
X60541Y61584D01*
X60585Y61562D01*
X60632Y61533D01*
X60680Y61500D01*
X60727Y61464D01*
X60771Y61420D01*
X60774Y61417D01*
X60782Y61409D01*
X60793Y61395D01*
X60807Y61377D01*
X60825Y61355D01*
X60843Y61326D01*
X60865Y61293D01*
X60884Y61253D01*
X60905Y61213D01*
X60927Y61165D01*
X60945Y61118D01*
X60964Y61063D01*
X60978Y61005D01*
X60989Y60943D01*
X60996Y60882D01*
X61000Y60812D01*
Y60780D01*
X60996Y60758D01*
X60993Y60729D01*
X60989Y60696D01*
X60982Y60659D01*
X60975Y60619D01*
X60953Y60532D01*
X60916Y60441D01*
X60895Y60394D01*
X60869Y60350D01*
X60836Y60306D01*
X60804Y60263D01*
X60800Y60259D01*
X60793Y60252D01*
X60782Y60241D01*
X60767Y60230D01*
X60749Y60212D01*
X60723Y60194D01*
X60698Y60172D01*
X60665Y60150D01*
X60629Y60128D01*
X60592Y60106D01*
X60505Y60066D01*
X60403Y60033D01*
X60348Y60022D01*
X60290Y60015D01*
X60250Y60325D01*
X60254D01*
X60261Y60328D01*
X60276Y60332D01*
X60294Y60335D01*
X60316Y60339D01*
X60341Y60346D01*
X60396Y60365D01*
X60461Y60390D01*
X60523Y60423D01*
X60581Y60459D01*
X60632Y60503D01*
X60636Y60510D01*
X60651Y60525D01*
X60669Y60554D01*
X60687Y60590D01*
X60709Y60634D01*
X60727Y60689D01*
X60742Y60751D01*
X60745Y60816D01*
Y60838D01*
X60742Y60852D01*
X60738Y60892D01*
X60727Y60943D01*
X60709Y61002D01*
X60683Y61063D01*
X60647Y61125D01*
X60596Y61184D01*
X60589Y61191D01*
X60567Y61209D01*
X60534Y61231D01*
X60490Y61260D01*
X60436Y61289D01*
X60374Y61311D01*
X60301Y61329D01*
X60221Y61336D01*
X60217D01*
X60210D01*
X60199D01*
X60185Y61333D01*
X60145Y61329D01*
X60097Y61318D01*
X60039Y61304D01*
X59981Y61278D01*
X59923Y61242D01*
X59868Y61195D01*
X59861Y61187D01*
X59846Y61169D01*
X59824Y61140D01*
X59799Y61100D01*
X59773Y61049D01*
X59751Y60987D01*
X59737Y60918D01*
X59730Y60842D01*
Y60809D01*
X59733Y60783D01*
X59737Y60751D01*
X59744Y60714D01*
X59751Y60670D01*
X59762Y60623D01*
X59489Y60659D01*
Y60678D01*
X59493Y60692D01*
Y60739D01*
X59486Y60780D01*
X59478Y60827D01*
X59468Y60882D01*
X59449Y60943D01*
X59424Y61002D01*
X59391Y61063D01*
Y61067D01*
X59387Y61071D01*
X59373Y61089D01*
X59347Y61115D01*
X59315Y61144D01*
X59267Y61173D01*
X59213Y61198D01*
X59151Y61216D01*
X59114Y61224D01*
X59074D01*
X59071D01*
X59067D01*
X59045D01*
X59016Y61216D01*
X58976Y61209D01*
X58933Y61195D01*
X58885Y61176D01*
X58838Y61147D01*
X58794Y61107D01*
X58790Y61103D01*
X58776Y61085D01*
X58758Y61060D01*
X58736Y61027D01*
X58718Y60983D01*
X58700Y60932D01*
X58685Y60874D01*
X58681Y60809D01*
Y60780D01*
X58689Y60747D01*
X58696Y60703D01*
X58710Y60656D01*
X58729Y60609D01*
X58758Y60558D01*
X58794Y60510D01*
X58798Y60507D01*
X58816Y60492D01*
X58842Y60470D01*
X58878Y60445D01*
X58925Y60419D01*
X58983Y60394D01*
X59053Y60372D01*
X59133Y60357D01*
X59078Y60048D01*
X59074D01*
X59064Y60052D01*
X59049Y60055D01*
X59027Y60059D01*
X59002Y60066D01*
X58973Y60077D01*
X58903Y60099D01*
X58823Y60135D01*
X58743Y60179D01*
X58667Y60234D01*
X58598Y60303D01*
X58594Y60306D01*
X58590Y60314D01*
X58583Y60325D01*
X58572Y60339D01*
X58558Y60357D01*
X58543Y60383D01*
X58529Y60408D01*
X58510Y60441D01*
X58481Y60514D01*
X58452Y60598D01*
X58434Y60696D01*
X58426Y60747D01*
Y60838D01*
X58430Y60878D01*
X58438Y60925D01*
X58448Y60983D01*
X58467Y61049D01*
X58488Y61115D01*
X58518Y61180D01*
Y61184D01*
X58521Y61187D01*
X58532Y61209D01*
X58554Y61242D01*
X58579Y61278D01*
X58616Y61322D01*
X58656Y61366D01*
X58703Y61409D01*
X58758Y61446D01*
X58765Y61449D01*
X58783Y61460D01*
X58816Y61475D01*
X58856Y61493D01*
X58903Y61511D01*
X58958Y61526D01*
X59020Y61537D01*
X59082Y61540D01*
X59089D01*
X59111D01*
X59140Y61537D01*
X59180Y61529D01*
X59227Y61519D01*
X59278Y61500D01*
X59329Y61479D01*
X59380Y61449D01*
X59387Y61446D01*
X59402Y61435D01*
X59427Y61413D01*
X59457Y61384D01*
X59489Y61347D01*
X59526Y61304D01*
X59559Y61253D01*
X59591Y61191D01*
Y61195D01*
X59595Y61202D01*
X59599Y61213D01*
X59602Y61227D01*
X59617Y61267D01*
X59639Y61318D01*
X59668Y61377D01*
X59704Y61435D01*
X59751Y61489D01*
X59806Y61540D01*
X59813Y61544D01*
X59835Y61559D01*
X59872Y61580D01*
X59919Y61602D01*
X59977Y61624D01*
X60046Y61646D01*
X60126Y61660D01*
X60214Y61664D01*
X60217D01*
X60228D01*
X60247D01*
X60268Y61660D01*
D02*
G37*
G36*
X60177Y59724D02*
X60199Y59717D01*
X60228Y59706D01*
X60261Y59695D01*
X60301Y59680D01*
X60345Y59662D01*
X60392Y59640D01*
X60494Y59589D01*
X60596Y59524D01*
X60647Y59484D01*
X60698Y59444D01*
X60742Y59400D01*
X60785Y59349D01*
X60789Y59345D01*
X60796Y59338D01*
X60804Y59320D01*
X60818Y59302D01*
X60836Y59273D01*
X60854Y59244D01*
X60873Y59203D01*
X60891Y59163D01*
X60913Y59116D01*
X60931Y59065D01*
X60949Y59011D01*
X60967Y58952D01*
X60982Y58890D01*
X60989Y58825D01*
X60996Y58756D01*
X61000Y58683D01*
Y58643D01*
X60996Y58614D01*
Y58581D01*
X60993Y58541D01*
X60985Y58497D01*
X60978Y58446D01*
X60960Y58341D01*
X60931Y58232D01*
X60891Y58122D01*
X60865Y58071D01*
X60836Y58021D01*
X60833Y58017D01*
X60829Y58010D01*
X60818Y57995D01*
X60804Y57980D01*
X60789Y57959D01*
X60767Y57933D01*
X60742Y57904D01*
X60712Y57875D01*
X60680Y57846D01*
X60647Y57813D01*
X60563Y57748D01*
X60465Y57686D01*
X60356Y57631D01*
X60352D01*
X60341Y57624D01*
X60323Y57620D01*
X60301Y57609D01*
X60272Y57602D01*
X60236Y57591D01*
X60196Y57576D01*
X60152Y57565D01*
X60105Y57555D01*
X60050Y57540D01*
X59937Y57522D01*
X59810Y57507D01*
X59679Y57500D01*
X59675D01*
X59661D01*
X59639D01*
X59613Y57504D01*
X59577D01*
X59540Y57507D01*
X59493Y57511D01*
X59446Y57518D01*
X59340Y57536D01*
X59224Y57562D01*
X59107Y57598D01*
X58994Y57649D01*
X58991Y57653D01*
X58980Y57657D01*
X58965Y57664D01*
X58947Y57678D01*
X58922Y57693D01*
X58893Y57711D01*
X58827Y57758D01*
X58754Y57820D01*
X58681Y57893D01*
X58609Y57977D01*
X58547Y58075D01*
X58543Y58079D01*
X58539Y58090D01*
X58532Y58104D01*
X58521Y58122D01*
X58510Y58152D01*
X58499Y58181D01*
X58485Y58217D01*
X58470Y58257D01*
X58456Y58301D01*
X58441Y58348D01*
X58419Y58450D01*
X58401Y58566D01*
X58394Y58687D01*
Y58723D01*
X58397Y58749D01*
X58401Y58781D01*
X58405Y58821D01*
X58408Y58861D01*
X58419Y58909D01*
X58441Y59007D01*
X58474Y59116D01*
X58496Y59171D01*
X58521Y59222D01*
X58554Y59273D01*
X58587Y59324D01*
X58590Y59327D01*
X58594Y59334D01*
X58605Y59349D01*
X58623Y59367D01*
X58641Y59386D01*
X58667Y59411D01*
X58696Y59436D01*
X58725Y59465D01*
X58761Y59495D01*
X58805Y59524D01*
X58849Y59557D01*
X58896Y59586D01*
X58951Y59611D01*
X59005Y59640D01*
X59064Y59662D01*
X59129Y59684D01*
X59206Y59356D01*
X59202D01*
X59195Y59353D01*
X59180Y59345D01*
X59162Y59338D01*
X59140Y59331D01*
X59111Y59320D01*
X59053Y59291D01*
X58987Y59254D01*
X58922Y59211D01*
X58860Y59156D01*
X58805Y59098D01*
X58798Y59091D01*
X58783Y59069D01*
X58765Y59032D01*
X58740Y58985D01*
X58718Y58923D01*
X58696Y58854D01*
X58681Y58770D01*
X58678Y58679D01*
Y58650D01*
X58681Y58632D01*
Y58606D01*
X58685Y58577D01*
X58696Y58508D01*
X58710Y58432D01*
X58736Y58352D01*
X58772Y58268D01*
X58820Y58192D01*
Y58188D01*
X58827Y58184D01*
X58845Y58159D01*
X58874Y58126D01*
X58918Y58086D01*
X58973Y58039D01*
X59034Y57995D01*
X59111Y57955D01*
X59195Y57919D01*
X59198D01*
X59206Y57915D01*
X59216Y57911D01*
X59235Y57908D01*
X59257Y57900D01*
X59282Y57893D01*
X59344Y57882D01*
X59417Y57868D01*
X59497Y57853D01*
X59584Y57846D01*
X59679Y57842D01*
X59682D01*
X59693D01*
X59711D01*
X59733D01*
X59759Y57846D01*
X59791D01*
X59828Y57849D01*
X59868Y57853D01*
X59955Y57864D01*
X60050Y57882D01*
X60145Y57904D01*
X60239Y57933D01*
X60243D01*
X60250Y57937D01*
X60261Y57944D01*
X60279Y57951D01*
X60323Y57973D01*
X60374Y58006D01*
X60432Y58046D01*
X60494Y58097D01*
X60549Y58155D01*
X60600Y58224D01*
Y58228D01*
X60603Y58235D01*
X60611Y58246D01*
X60618Y58261D01*
X60625Y58279D01*
X60636Y58301D01*
X60658Y58352D01*
X60680Y58417D01*
X60698Y58490D01*
X60712Y58570D01*
X60716Y58654D01*
Y58679D01*
X60712Y58701D01*
Y58727D01*
X60709Y58752D01*
X60694Y58818D01*
X60676Y58894D01*
X60647Y58970D01*
X60607Y59051D01*
X60585Y59091D01*
X60556Y59127D01*
X60552Y59131D01*
X60549Y59134D01*
X60538Y59145D01*
X60527Y59160D01*
X60509Y59174D01*
X60487Y59193D01*
X60465Y59214D01*
X60436Y59233D01*
X60403Y59254D01*
X60367Y59280D01*
X60330Y59302D01*
X60287Y59324D01*
X60239Y59342D01*
X60188Y59360D01*
X60134Y59378D01*
X60075Y59393D01*
X60159Y59728D01*
X60163D01*
X60177Y59724D01*
D02*
G37*
G36*
X289036Y164687D02*
X289032D01*
X289029D01*
X289018Y164683D01*
X289003D01*
X288970Y164676D01*
X288923Y164665D01*
X288876Y164651D01*
X288821Y164636D01*
X288770Y164611D01*
X288723Y164585D01*
X288719Y164581D01*
X288705Y164570D01*
X288679Y164552D01*
X288654Y164523D01*
X288621Y164487D01*
X288588Y164447D01*
X288556Y164392D01*
X288526Y164334D01*
Y164330D01*
X288523Y164327D01*
X288519Y164316D01*
X288515Y164305D01*
X288505Y164268D01*
X288490Y164221D01*
X288475Y164163D01*
X288465Y164097D01*
X288457Y164024D01*
X288454Y163944D01*
Y163912D01*
X288457Y163875D01*
X288461Y163832D01*
X288468Y163781D01*
X288475Y163722D01*
X288490Y163664D01*
X288508Y163610D01*
X288512Y163602D01*
X288519Y163584D01*
X288534Y163559D01*
X288548Y163526D01*
X288574Y163493D01*
X288599Y163457D01*
X288628Y163420D01*
X288665Y163391D01*
X288668Y163388D01*
X288683Y163380D01*
X288701Y163369D01*
X288730Y163355D01*
X288759Y163340D01*
X288796Y163329D01*
X288836Y163322D01*
X288879Y163318D01*
X288883D01*
X288901D01*
X288923Y163322D01*
X288952Y163326D01*
X288981Y163337D01*
X289018Y163347D01*
X289054Y163366D01*
X289087Y163391D01*
X289091Y163395D01*
X289102Y163406D01*
X289116Y163420D01*
X289138Y163446D01*
X289160Y163475D01*
X289185Y163515D01*
X289211Y163562D01*
X289233Y163617D01*
X289236Y163620D01*
X289240Y163639D01*
X289251Y163668D01*
X289254Y163686D01*
X289262Y163712D01*
X289273Y163737D01*
X289280Y163770D01*
X289291Y163806D01*
X289302Y163850D01*
X289313Y163893D01*
X289327Y163944D01*
X289342Y164003D01*
X289356Y164065D01*
Y164068D01*
X289360Y164079D01*
X289364Y164097D01*
X289371Y164119D01*
X289378Y164148D01*
X289386Y164181D01*
X289407Y164254D01*
X289433Y164334D01*
X289458Y164418D01*
X289484Y164490D01*
X289498Y164523D01*
X289513Y164552D01*
Y164556D01*
X289516Y164560D01*
X289531Y164581D01*
X289549Y164614D01*
X289578Y164651D01*
X289611Y164694D01*
X289651Y164738D01*
X289699Y164782D01*
X289750Y164818D01*
X289757Y164822D01*
X289775Y164833D01*
X289804Y164847D01*
X289841Y164862D01*
X289888Y164876D01*
X289942Y164891D01*
X290001Y164902D01*
X290062Y164905D01*
X290066D01*
X290070D01*
X290081D01*
X290095D01*
X290132Y164898D01*
X290179Y164891D01*
X290234Y164880D01*
X290296Y164862D01*
X290357Y164836D01*
X290419Y164800D01*
X290423D01*
X290426Y164796D01*
X290448Y164778D01*
X290477Y164752D01*
X290514Y164720D01*
X290554Y164676D01*
X290598Y164621D01*
X290638Y164556D01*
X290674Y164483D01*
Y164479D01*
X290678Y164472D01*
X290681Y164461D01*
X290689Y164447D01*
X290696Y164428D01*
X290703Y164403D01*
X290718Y164348D01*
X290732Y164279D01*
X290747Y164199D01*
X290758Y164116D01*
X290761Y164021D01*
Y163974D01*
X290758Y163948D01*
Y163923D01*
X290751Y163853D01*
X290740Y163777D01*
X290721Y163697D01*
X290700Y163610D01*
X290670Y163530D01*
Y163526D01*
X290667Y163519D01*
X290659Y163508D01*
X290652Y163493D01*
X290634Y163457D01*
X290601Y163409D01*
X290565Y163355D01*
X290517Y163300D01*
X290463Y163249D01*
X290401Y163202D01*
X290397D01*
X290394Y163198D01*
X290383Y163191D01*
X290372Y163184D01*
X290335Y163165D01*
X290288Y163144D01*
X290230Y163118D01*
X290161Y163100D01*
X290088Y163082D01*
X290008Y163075D01*
X289982Y163395D01*
X289986D01*
X289993D01*
X290004Y163398D01*
X290022Y163402D01*
X290062Y163413D01*
X290117Y163427D01*
X290175Y163449D01*
X290234Y163482D01*
X290288Y163522D01*
X290339Y163573D01*
X290343Y163580D01*
X290357Y163599D01*
X290379Y163635D01*
X290401Y163682D01*
X290423Y163744D01*
X290445Y163817D01*
X290459Y163908D01*
X290463Y164010D01*
Y164061D01*
X290459Y164083D01*
X290456Y164112D01*
X290448Y164177D01*
X290434Y164250D01*
X290416Y164323D01*
X290387Y164392D01*
X290368Y164421D01*
X290350Y164450D01*
X290346Y164458D01*
X290332Y164472D01*
X290306Y164494D01*
X290277Y164516D01*
X290237Y164541D01*
X290194Y164563D01*
X290143Y164578D01*
X290084Y164585D01*
X290077D01*
X290062D01*
X290037Y164581D01*
X290008Y164574D01*
X289971Y164563D01*
X289935Y164545D01*
X289899Y164523D01*
X289862Y164490D01*
X289859Y164487D01*
X289848Y164469D01*
X289837Y164454D01*
X289830Y164439D01*
X289819Y164418D01*
X289804Y164392D01*
X289793Y164359D01*
X289779Y164323D01*
X289764Y164283D01*
X289746Y164236D01*
X289731Y164185D01*
X289713Y164126D01*
X289699Y164061D01*
X289680Y163988D01*
Y163985D01*
X289677Y163970D01*
X289673Y163948D01*
X289666Y163923D01*
X289658Y163890D01*
X289648Y163850D01*
X289637Y163810D01*
X289626Y163766D01*
X289600Y163671D01*
X289575Y163580D01*
X289560Y163537D01*
X289546Y163497D01*
X289535Y163460D01*
X289520Y163431D01*
Y163427D01*
X289516Y163420D01*
X289509Y163409D01*
X289502Y163395D01*
X289480Y163355D01*
X289451Y163307D01*
X289411Y163253D01*
X289367Y163198D01*
X289316Y163147D01*
X289262Y163104D01*
X289254Y163100D01*
X289236Y163085D01*
X289204Y163071D01*
X289160Y163049D01*
X289109Y163031D01*
X289047Y163013D01*
X288978Y163002D01*
X288905Y162998D01*
X288901D01*
X288898D01*
X288887D01*
X288872D01*
X288832Y163005D01*
X288781Y163013D01*
X288723Y163027D01*
X288661Y163045D01*
X288596Y163075D01*
X288526Y163115D01*
X288523D01*
X288519Y163118D01*
X288497Y163136D01*
X288465Y163162D01*
X288428Y163198D01*
X288385Y163246D01*
X288337Y163304D01*
X288294Y163369D01*
X288253Y163446D01*
Y163449D01*
X288250Y163457D01*
X288246Y163468D01*
X288239Y163482D01*
X288232Y163504D01*
X288221Y163530D01*
X288206Y163588D01*
X288188Y163657D01*
X288170Y163741D01*
X288159Y163832D01*
X288155Y163930D01*
Y163988D01*
X288159Y164017D01*
Y164050D01*
X288162Y164086D01*
X288166Y164130D01*
X288181Y164221D01*
X288195Y164316D01*
X288221Y164410D01*
X288253Y164501D01*
Y164505D01*
X288257Y164512D01*
X288264Y164523D01*
X288272Y164538D01*
X288294Y164581D01*
X288326Y164632D01*
X288370Y164691D01*
X288421Y164752D01*
X288483Y164811D01*
X288552Y164865D01*
X288556D01*
X288563Y164873D01*
X288574Y164876D01*
X288588Y164887D01*
X288607Y164894D01*
X288628Y164905D01*
X288683Y164931D01*
X288752Y164956D01*
X288828Y164978D01*
X288916Y164993D01*
X289007Y165000D01*
X289036Y164687D01*
D02*
G37*
G36*
X290095Y162426D02*
X290103Y162419D01*
X290106Y162405D01*
X290117Y162387D01*
X290128Y162365D01*
X290143Y162339D01*
X290179Y162277D01*
X290219Y162205D01*
X290270Y162132D01*
X290328Y162055D01*
X290390Y161979D01*
X290394Y161975D01*
X290397Y161972D01*
X290408Y161961D01*
X290419Y161946D01*
X290456Y161913D01*
X290499Y161870D01*
X290550Y161826D01*
X290609Y161779D01*
X290667Y161739D01*
X290729Y161702D01*
Y161502D01*
X288199D01*
Y161811D01*
X290168D01*
X290164Y161815D01*
X290150Y161833D01*
X290128Y161855D01*
X290103Y161891D01*
X290070Y161932D01*
X290033Y161983D01*
X289993Y162041D01*
X289953Y162106D01*
Y162110D01*
X289950Y162113D01*
X289935Y162135D01*
X289917Y162172D01*
X289895Y162215D01*
X289870Y162266D01*
X289844Y162321D01*
X289819Y162376D01*
X289797Y162430D01*
X290095D01*
Y162426D01*
D02*
G37*
G36*
X287722Y158859D02*
X287500D01*
Y160909D01*
X287722D01*
Y158859D01*
D02*
G37*
G36*
X290718Y157647D02*
X290714Y157622D01*
Y157593D01*
X290707Y157527D01*
X290700Y157454D01*
X290685Y157378D01*
X290667Y157301D01*
X290641Y157232D01*
Y157229D01*
X290638Y157225D01*
X290627Y157203D01*
X290609Y157170D01*
X290583Y157134D01*
X290550Y157090D01*
X290510Y157043D01*
X290459Y156999D01*
X290405Y156959D01*
X290397Y156956D01*
X290376Y156945D01*
X290346Y156927D01*
X290303Y156908D01*
X290252Y156890D01*
X290197Y156872D01*
X290135Y156861D01*
X290073Y156857D01*
X290066D01*
X290048D01*
X290015Y156861D01*
X289975Y156868D01*
X289928Y156879D01*
X289877Y156897D01*
X289826Y156919D01*
X289771Y156948D01*
X289764Y156952D01*
X289750Y156963D01*
X289720Y156985D01*
X289691Y157014D01*
X289655Y157050D01*
X289615Y157094D01*
X289578Y157149D01*
X289542Y157210D01*
Y157207D01*
X289538Y157200D01*
X289535Y157189D01*
X289527Y157174D01*
X289513Y157130D01*
X289487Y157079D01*
X289455Y157025D01*
X289415Y156963D01*
X289367Y156908D01*
X289309Y156857D01*
X289302Y156854D01*
X289280Y156839D01*
X289247Y156817D01*
X289204Y156796D01*
X289145Y156774D01*
X289083Y156752D01*
X289011Y156737D01*
X288931Y156734D01*
X288927D01*
X288923D01*
X288901D01*
X288865Y156737D01*
X288821Y156745D01*
X288770Y156752D01*
X288716Y156766D01*
X288657Y156784D01*
X288599Y156810D01*
X288592Y156814D01*
X288574Y156825D01*
X288548Y156839D01*
X288512Y156861D01*
X288475Y156890D01*
X288435Y156919D01*
X288395Y156956D01*
X288363Y156996D01*
X288359Y156999D01*
X288348Y157014D01*
X288334Y157039D01*
X288319Y157072D01*
X288297Y157112D01*
X288275Y157159D01*
X288257Y157210D01*
X288239Y157272D01*
Y157280D01*
X288232Y157301D01*
X288228Y157338D01*
X288221Y157385D01*
X288213Y157443D01*
X288206Y157513D01*
X288203Y157589D01*
X288199Y157676D01*
Y158637D01*
X290718D01*
Y157647D01*
D02*
G37*
G36*
X290095Y156162D02*
X290103Y156155D01*
X290106Y156140D01*
X290117Y156122D01*
X290128Y156100D01*
X290143Y156075D01*
X290179Y156013D01*
X290219Y155940D01*
X290270Y155867D01*
X290328Y155791D01*
X290390Y155714D01*
X290394Y155711D01*
X290397Y155707D01*
X290408Y155696D01*
X290419Y155682D01*
X290456Y155649D01*
X290499Y155605D01*
X290550Y155561D01*
X290609Y155514D01*
X290667Y155474D01*
X290729Y155438D01*
Y155238D01*
X288199D01*
Y155547D01*
X290168D01*
X290164Y155551D01*
X290150Y155569D01*
X290128Y155591D01*
X290103Y155627D01*
X290070Y155667D01*
X290033Y155718D01*
X289993Y155776D01*
X289953Y155842D01*
Y155845D01*
X289950Y155849D01*
X289935Y155871D01*
X289917Y155907D01*
X289895Y155951D01*
X289870Y156002D01*
X289844Y156056D01*
X289819Y156111D01*
X289797Y156166D01*
X290095D01*
Y156162D01*
D02*
G37*
G36*
X153378Y172647D02*
X153407Y172643D01*
X153436Y172640D01*
X153512Y172625D01*
X153592Y172603D01*
X153676Y172571D01*
X153720Y172549D01*
X153760Y172523D01*
X153796Y172494D01*
X153833Y172461D01*
X153836Y172458D01*
X153840Y172454D01*
X153847Y172439D01*
X153858Y172425D01*
X153873Y172407D01*
X153887Y172381D01*
X153902Y172352D01*
X153920Y172319D01*
X153935Y172283D01*
X153949Y172239D01*
X153964Y172196D01*
X153978Y172145D01*
X153985Y172090D01*
X153996Y172028D01*
X154000Y171966D01*
Y171897D01*
X153698Y171853D01*
Y171857D01*
Y171864D01*
Y171879D01*
X153694Y171901D01*
X153691Y171923D01*
Y171948D01*
X153680Y172010D01*
X153669Y172075D01*
X153647Y172141D01*
X153625Y172199D01*
X153611Y172225D01*
X153592Y172247D01*
X153589Y172250D01*
X153574Y172261D01*
X153552Y172279D01*
X153523Y172298D01*
X153483Y172319D01*
X153439Y172334D01*
X153385Y172348D01*
X153327Y172352D01*
X153305D01*
X153283Y172348D01*
X153250Y172345D01*
X153217Y172337D01*
X153181Y172330D01*
X153145Y172316D01*
X153108Y172298D01*
X153105Y172294D01*
X153094Y172287D01*
X153079Y172272D01*
X153057Y172257D01*
X153039Y172232D01*
X153017Y172206D01*
X152999Y172177D01*
X152984Y172141D01*
Y172137D01*
X152977Y172123D01*
X152973Y172097D01*
X152966Y172064D01*
X152959Y172021D01*
X152955Y171966D01*
X152948Y171901D01*
Y171824D01*
Y170088D01*
X152613D01*
Y171806D01*
Y171810D01*
Y171821D01*
Y171835D01*
Y171857D01*
X152617Y171886D01*
Y171915D01*
X152624Y171984D01*
X152631Y172064D01*
X152646Y172148D01*
X152668Y172225D01*
X152693Y172298D01*
Y172301D01*
X152697Y172305D01*
X152708Y172327D01*
X152726Y172356D01*
X152752Y172396D01*
X152788Y172436D01*
X152828Y172479D01*
X152879Y172523D01*
X152937Y172559D01*
X152944Y172563D01*
X152966Y172574D01*
X152999Y172589D01*
X153046Y172603D01*
X153105Y172621D01*
X153170Y172636D01*
X153243Y172647D01*
X153323Y172651D01*
X153356D01*
X153378Y172647D01*
D02*
G37*
G36*
X151339Y170638D02*
X151343Y170641D01*
X151361Y170656D01*
X151383Y170678D01*
X151419Y170703D01*
X151459Y170736D01*
X151510Y170772D01*
X151568Y170812D01*
X151634Y170852D01*
X151638D01*
X151641Y170856D01*
X151663Y170871D01*
X151699Y170889D01*
X151743Y170911D01*
X151794Y170936D01*
X151849Y170962D01*
X151903Y170987D01*
X151958Y171009D01*
Y170710D01*
X151954D01*
X151947Y170703D01*
X151933Y170700D01*
X151914Y170689D01*
X151892Y170678D01*
X151867Y170663D01*
X151805Y170627D01*
X151732Y170587D01*
X151660Y170536D01*
X151583Y170477D01*
X151507Y170416D01*
X151503Y170412D01*
X151499Y170408D01*
X151488Y170397D01*
X151474Y170387D01*
X151441Y170350D01*
X151397Y170306D01*
X151354Y170255D01*
X151306Y170197D01*
X151266Y170139D01*
X151230Y170077D01*
X151030D01*
Y172607D01*
X151339D01*
Y170638D01*
D02*
G37*
G36*
X244036Y164187D02*
X244032D01*
X244029D01*
X244018Y164183D01*
X244003D01*
X243970Y164176D01*
X243923Y164165D01*
X243876Y164151D01*
X243821Y164136D01*
X243770Y164111D01*
X243723Y164085D01*
X243719Y164081D01*
X243705Y164070D01*
X243679Y164052D01*
X243654Y164023D01*
X243621Y163987D01*
X243588Y163947D01*
X243555Y163892D01*
X243526Y163834D01*
Y163830D01*
X243523Y163827D01*
X243519Y163816D01*
X243515Y163805D01*
X243505Y163768D01*
X243490Y163721D01*
X243476Y163663D01*
X243465Y163597D01*
X243457Y163524D01*
X243454Y163444D01*
Y163412D01*
X243457Y163375D01*
X243461Y163332D01*
X243468Y163281D01*
X243476Y163222D01*
X243490Y163164D01*
X243508Y163110D01*
X243512Y163102D01*
X243519Y163084D01*
X243534Y163059D01*
X243548Y163026D01*
X243574Y162993D01*
X243599Y162957D01*
X243628Y162920D01*
X243665Y162891D01*
X243668Y162888D01*
X243683Y162880D01*
X243701Y162869D01*
X243730Y162855D01*
X243759Y162840D01*
X243796Y162829D01*
X243836Y162822D01*
X243880Y162818D01*
X243883D01*
X243901D01*
X243923Y162822D01*
X243952Y162826D01*
X243981Y162837D01*
X244018Y162847D01*
X244054Y162866D01*
X244087Y162891D01*
X244091Y162895D01*
X244102Y162906D01*
X244116Y162920D01*
X244138Y162946D01*
X244160Y162975D01*
X244185Y163015D01*
X244211Y163062D01*
X244233Y163117D01*
X244236Y163120D01*
X244240Y163139D01*
X244251Y163168D01*
X244254Y163186D01*
X244262Y163212D01*
X244273Y163237D01*
X244280Y163270D01*
X244291Y163306D01*
X244302Y163350D01*
X244313Y163393D01*
X244327Y163444D01*
X244342Y163503D01*
X244356Y163565D01*
Y163568D01*
X244360Y163579D01*
X244364Y163597D01*
X244371Y163619D01*
X244378Y163648D01*
X244386Y163681D01*
X244407Y163754D01*
X244433Y163834D01*
X244458Y163918D01*
X244484Y163990D01*
X244498Y164023D01*
X244513Y164052D01*
Y164056D01*
X244516Y164060D01*
X244531Y164081D01*
X244549Y164114D01*
X244578Y164151D01*
X244611Y164194D01*
X244651Y164238D01*
X244699Y164282D01*
X244749Y164318D01*
X244757Y164322D01*
X244775Y164333D01*
X244804Y164347D01*
X244841Y164362D01*
X244888Y164376D01*
X244942Y164391D01*
X245001Y164402D01*
X245062Y164405D01*
X245066D01*
X245070D01*
X245081D01*
X245095D01*
X245132Y164398D01*
X245179Y164391D01*
X245234Y164380D01*
X245296Y164362D01*
X245357Y164336D01*
X245419Y164300D01*
X245423D01*
X245427Y164296D01*
X245448Y164278D01*
X245478Y164252D01*
X245514Y164220D01*
X245554Y164176D01*
X245598Y164121D01*
X245638Y164056D01*
X245674Y163983D01*
Y163979D01*
X245678Y163972D01*
X245681Y163961D01*
X245689Y163947D01*
X245696Y163928D01*
X245703Y163903D01*
X245718Y163848D01*
X245732Y163779D01*
X245747Y163699D01*
X245758Y163616D01*
X245761Y163521D01*
Y163474D01*
X245758Y163448D01*
Y163423D01*
X245750Y163353D01*
X245740Y163277D01*
X245721Y163197D01*
X245700Y163110D01*
X245670Y163030D01*
Y163026D01*
X245667Y163019D01*
X245659Y163008D01*
X245652Y162993D01*
X245634Y162957D01*
X245601Y162909D01*
X245565Y162855D01*
X245517Y162800D01*
X245463Y162749D01*
X245401Y162702D01*
X245397D01*
X245394Y162698D01*
X245383Y162691D01*
X245372Y162684D01*
X245336Y162665D01*
X245288Y162644D01*
X245230Y162618D01*
X245161Y162600D01*
X245088Y162582D01*
X245008Y162575D01*
X244982Y162895D01*
X244986D01*
X244993D01*
X245004Y162898D01*
X245023Y162902D01*
X245062Y162913D01*
X245117Y162927D01*
X245175Y162949D01*
X245234Y162982D01*
X245288Y163022D01*
X245339Y163073D01*
X245343Y163080D01*
X245357Y163099D01*
X245379Y163135D01*
X245401Y163182D01*
X245423Y163244D01*
X245445Y163317D01*
X245459Y163408D01*
X245463Y163510D01*
Y163561D01*
X245459Y163583D01*
X245456Y163612D01*
X245448Y163677D01*
X245434Y163750D01*
X245416Y163823D01*
X245387Y163892D01*
X245368Y163921D01*
X245350Y163950D01*
X245346Y163958D01*
X245332Y163972D01*
X245306Y163994D01*
X245277Y164016D01*
X245237Y164041D01*
X245194Y164063D01*
X245143Y164078D01*
X245084Y164085D01*
X245077D01*
X245062D01*
X245037Y164081D01*
X245008Y164074D01*
X244971Y164063D01*
X244935Y164045D01*
X244899Y164023D01*
X244862Y163990D01*
X244859Y163987D01*
X244848Y163969D01*
X244837Y163954D01*
X244830Y163939D01*
X244819Y163918D01*
X244804Y163892D01*
X244793Y163859D01*
X244779Y163823D01*
X244764Y163783D01*
X244746Y163736D01*
X244731Y163685D01*
X244713Y163626D01*
X244699Y163561D01*
X244680Y163488D01*
Y163485D01*
X244677Y163470D01*
X244673Y163448D01*
X244666Y163423D01*
X244658Y163390D01*
X244648Y163350D01*
X244637Y163310D01*
X244626Y163266D01*
X244600Y163171D01*
X244575Y163080D01*
X244560Y163037D01*
X244546Y162997D01*
X244535Y162960D01*
X244520Y162931D01*
Y162927D01*
X244516Y162920D01*
X244509Y162909D01*
X244502Y162895D01*
X244480Y162855D01*
X244451Y162807D01*
X244411Y162753D01*
X244367Y162698D01*
X244316Y162647D01*
X244262Y162604D01*
X244254Y162600D01*
X244236Y162585D01*
X244203Y162571D01*
X244160Y162549D01*
X244109Y162531D01*
X244047Y162513D01*
X243978Y162502D01*
X243905Y162498D01*
X243901D01*
X243898D01*
X243887D01*
X243872D01*
X243832Y162505D01*
X243781Y162513D01*
X243723Y162527D01*
X243661Y162545D01*
X243596Y162575D01*
X243526Y162615D01*
X243523D01*
X243519Y162618D01*
X243497Y162636D01*
X243465Y162662D01*
X243428Y162698D01*
X243385Y162746D01*
X243337Y162804D01*
X243293Y162869D01*
X243253Y162946D01*
Y162949D01*
X243250Y162957D01*
X243246Y162968D01*
X243239Y162982D01*
X243232Y163004D01*
X243221Y163030D01*
X243206Y163088D01*
X243188Y163157D01*
X243170Y163241D01*
X243159Y163332D01*
X243155Y163430D01*
Y163488D01*
X243159Y163517D01*
Y163550D01*
X243162Y163586D01*
X243166Y163630D01*
X243181Y163721D01*
X243195Y163816D01*
X243221Y163910D01*
X243253Y164001D01*
Y164005D01*
X243257Y164012D01*
X243264Y164023D01*
X243272Y164038D01*
X243293Y164081D01*
X243326Y164132D01*
X243370Y164191D01*
X243421Y164252D01*
X243483Y164311D01*
X243552Y164365D01*
X243555D01*
X243563Y164373D01*
X243574Y164376D01*
X243588Y164387D01*
X243606Y164394D01*
X243628Y164405D01*
X243683Y164431D01*
X243752Y164456D01*
X243829Y164478D01*
X243916Y164493D01*
X244007Y164500D01*
X244036Y164187D01*
D02*
G37*
G36*
X245095Y161926D02*
X245103Y161919D01*
X245106Y161905D01*
X245117Y161887D01*
X245128Y161865D01*
X245143Y161839D01*
X245179Y161777D01*
X245219Y161705D01*
X245270Y161632D01*
X245328Y161555D01*
X245390Y161479D01*
X245394Y161475D01*
X245397Y161472D01*
X245408Y161461D01*
X245419Y161446D01*
X245456Y161413D01*
X245499Y161370D01*
X245550Y161326D01*
X245608Y161279D01*
X245667Y161239D01*
X245729Y161202D01*
Y161002D01*
X243199D01*
Y161311D01*
X245168D01*
X245164Y161315D01*
X245150Y161333D01*
X245128Y161355D01*
X245103Y161391D01*
X245070Y161432D01*
X245033Y161483D01*
X244993Y161541D01*
X244953Y161606D01*
Y161610D01*
X244950Y161614D01*
X244935Y161635D01*
X244917Y161672D01*
X244895Y161715D01*
X244870Y161766D01*
X244844Y161821D01*
X244819Y161876D01*
X244797Y161930D01*
X245095D01*
Y161926D01*
D02*
G37*
G36*
X242722Y158359D02*
X242500D01*
Y160409D01*
X242722D01*
Y158359D01*
D02*
G37*
G36*
X245718Y157147D02*
X245714Y157122D01*
Y157093D01*
X245707Y157027D01*
X245700Y156954D01*
X245685Y156878D01*
X245667Y156801D01*
X245641Y156732D01*
Y156729D01*
X245638Y156725D01*
X245627Y156703D01*
X245608Y156670D01*
X245583Y156634D01*
X245550Y156590D01*
X245510Y156543D01*
X245459Y156499D01*
X245405Y156459D01*
X245397Y156456D01*
X245376Y156445D01*
X245346Y156427D01*
X245303Y156408D01*
X245252Y156390D01*
X245197Y156372D01*
X245135Y156361D01*
X245073Y156357D01*
X245066D01*
X245048D01*
X245015Y156361D01*
X244975Y156368D01*
X244928Y156379D01*
X244877Y156397D01*
X244826Y156419D01*
X244771Y156448D01*
X244764Y156452D01*
X244749Y156463D01*
X244720Y156485D01*
X244691Y156514D01*
X244655Y156550D01*
X244615Y156594D01*
X244578Y156649D01*
X244542Y156710D01*
Y156707D01*
X244538Y156700D01*
X244535Y156689D01*
X244527Y156674D01*
X244513Y156630D01*
X244487Y156579D01*
X244455Y156525D01*
X244415Y156463D01*
X244367Y156408D01*
X244309Y156357D01*
X244302Y156354D01*
X244280Y156339D01*
X244247Y156317D01*
X244203Y156296D01*
X244145Y156274D01*
X244083Y156252D01*
X244011Y156237D01*
X243931Y156234D01*
X243927D01*
X243923D01*
X243901D01*
X243865Y156237D01*
X243821Y156245D01*
X243770Y156252D01*
X243716Y156266D01*
X243657Y156284D01*
X243599Y156310D01*
X243592Y156314D01*
X243574Y156325D01*
X243548Y156339D01*
X243512Y156361D01*
X243476Y156390D01*
X243435Y156419D01*
X243395Y156456D01*
X243363Y156496D01*
X243359Y156499D01*
X243348Y156514D01*
X243334Y156539D01*
X243319Y156572D01*
X243297Y156612D01*
X243275Y156659D01*
X243257Y156710D01*
X243239Y156772D01*
Y156780D01*
X243232Y156801D01*
X243228Y156838D01*
X243221Y156885D01*
X243213Y156943D01*
X243206Y157013D01*
X243202Y157089D01*
X243199Y157176D01*
Y158137D01*
X245718D01*
Y157147D01*
D02*
G37*
G36*
X243268Y155942D02*
X243301Y155939D01*
X243337Y155931D01*
X243373Y155924D01*
X243414Y155910D01*
X243417D01*
X243421Y155906D01*
X243443Y155899D01*
X243476Y155884D01*
X243519Y155862D01*
X243570Y155833D01*
X243628Y155797D01*
X243687Y155757D01*
X243748Y155706D01*
X243752D01*
X243756Y155699D01*
X243778Y155680D01*
X243810Y155648D01*
X243858Y155600D01*
X243912Y155546D01*
X243978Y155476D01*
X244051Y155393D01*
X244127Y155302D01*
X244131Y155298D01*
X244142Y155283D01*
X244160Y155262D01*
X244182Y155236D01*
X244211Y155203D01*
X244244Y155163D01*
X244280Y155123D01*
X244320Y155076D01*
X244407Y154985D01*
X244495Y154894D01*
X244538Y154850D01*
X244582Y154810D01*
X244622Y154774D01*
X244662Y154745D01*
X244666D01*
X244669Y154738D01*
X244680Y154730D01*
X244695Y154723D01*
X244735Y154698D01*
X244782Y154668D01*
X244841Y154643D01*
X244902Y154617D01*
X244971Y154603D01*
X245037Y154596D01*
X245041D01*
X245044D01*
X245066Y154599D01*
X245103Y154603D01*
X245143Y154614D01*
X245194Y154628D01*
X245245Y154654D01*
X245296Y154687D01*
X245346Y154730D01*
X245354Y154738D01*
X245368Y154756D01*
X245387Y154781D01*
X245412Y154821D01*
X245434Y154872D01*
X245456Y154930D01*
X245470Y155000D01*
X245474Y155076D01*
Y155098D01*
X245470Y155113D01*
X245467Y155156D01*
X245456Y155207D01*
X245441Y155262D01*
X245416Y155324D01*
X245383Y155382D01*
X245339Y155436D01*
X245332Y155444D01*
X245314Y155458D01*
X245285Y155480D01*
X245241Y155502D01*
X245190Y155527D01*
X245124Y155549D01*
X245052Y155564D01*
X244968Y155571D01*
X245001Y155888D01*
X245004D01*
X245015Y155884D01*
X245033D01*
X245059Y155880D01*
X245088Y155873D01*
X245121Y155866D01*
X245161Y155855D01*
X245201Y155844D01*
X245288Y155815D01*
X245376Y155771D01*
X245419Y155746D01*
X245463Y155713D01*
X245503Y155680D01*
X245539Y155644D01*
X245543Y155640D01*
X245547Y155633D01*
X245557Y155622D01*
X245568Y155604D01*
X245583Y155582D01*
X245598Y155556D01*
X245616Y155527D01*
X245634Y155491D01*
X245652Y155451D01*
X245670Y155407D01*
X245685Y155360D01*
X245700Y155309D01*
X245710Y155254D01*
X245721Y155196D01*
X245725Y155134D01*
X245729Y155069D01*
Y155032D01*
X245725Y155007D01*
X245721Y154978D01*
X245718Y154941D01*
X245710Y154901D01*
X245703Y154861D01*
X245678Y154767D01*
X245641Y154672D01*
X245619Y154625D01*
X245594Y154577D01*
X245561Y154534D01*
X245525Y154494D01*
X245521Y154490D01*
X245517Y154483D01*
X245503Y154475D01*
X245488Y154461D01*
X245470Y154443D01*
X245445Y154425D01*
X245419Y154406D01*
X245387Y154385D01*
X245317Y154348D01*
X245230Y154312D01*
X245186Y154297D01*
X245135Y154290D01*
X245084Y154282D01*
X245030Y154279D01*
X245023D01*
X245004D01*
X244975Y154282D01*
X244935Y154286D01*
X244891Y154294D01*
X244841Y154308D01*
X244786Y154323D01*
X244731Y154344D01*
X244724Y154348D01*
X244706Y154355D01*
X244677Y154370D01*
X244637Y154392D01*
X244593Y154421D01*
X244538Y154457D01*
X244484Y154501D01*
X244422Y154552D01*
X244415Y154559D01*
X244393Y154577D01*
X244374Y154596D01*
X244356Y154614D01*
X244335Y154636D01*
X244305Y154665D01*
X244276Y154694D01*
X244244Y154730D01*
X244207Y154767D01*
X244167Y154810D01*
X244127Y154858D01*
X244080Y154909D01*
X244032Y154967D01*
X243981Y155025D01*
X243978Y155029D01*
X243970Y155036D01*
X243960Y155051D01*
X243945Y155069D01*
X243923Y155091D01*
X243901Y155116D01*
X243854Y155174D01*
X243799Y155236D01*
X243745Y155295D01*
X243698Y155345D01*
X243679Y155367D01*
X243661Y155385D01*
X243657Y155389D01*
X243647Y155400D01*
X243632Y155415D01*
X243610Y155433D01*
X243585Y155451D01*
X243559Y155473D01*
X243497Y155517D01*
Y154275D01*
X243199D01*
Y155946D01*
X243202D01*
X243217D01*
X243239D01*
X243268Y155942D01*
D02*
G37*
%LPC*%
G36*
X60068Y62960D02*
X58940D01*
X60068Y62166D01*
Y62960D01*
D02*
G37*
G36*
X290419Y158302D02*
X289662D01*
Y157684D01*
X289666Y157636D01*
X289669Y157585D01*
X289673Y157534D01*
X289680Y157483D01*
X289688Y157443D01*
X289691Y157436D01*
X289695Y157422D01*
X289706Y157400D01*
X289720Y157371D01*
X289735Y157342D01*
X289757Y157309D01*
X289786Y157276D01*
X289815Y157250D01*
X289819Y157247D01*
X289830Y157240D01*
X289851Y157229D01*
X289877Y157218D01*
X289906Y157207D01*
X289942Y157196D01*
X289986Y157189D01*
X290033Y157185D01*
X290041D01*
X290055D01*
X290077Y157189D01*
X290106Y157192D01*
X290143Y157200D01*
X290179Y157210D01*
X290215Y157225D01*
X290252Y157247D01*
X290255Y157250D01*
X290266Y157258D01*
X290284Y157272D01*
X290303Y157290D01*
X290325Y157316D01*
X290346Y157345D01*
X290368Y157381D01*
X290383Y157422D01*
Y157425D01*
X290390Y157443D01*
X290394Y157469D01*
X290401Y157509D01*
X290408Y157563D01*
X290412Y157625D01*
X290419Y157705D01*
Y158302D01*
D02*
G37*
G36*
X289364D02*
X288497D01*
Y157585D01*
X288501Y157509D01*
X288505Y157476D01*
X288508Y157447D01*
Y157443D01*
X288512Y157429D01*
X288515Y157407D01*
X288523Y157381D01*
X288545Y157320D01*
X288574Y157258D01*
X288577Y157254D01*
X288585Y157243D01*
X288596Y157229D01*
X288610Y157210D01*
X288632Y157192D01*
X288654Y157167D01*
X288683Y157149D01*
X288716Y157127D01*
X288719Y157123D01*
X288730Y157119D01*
X288752Y157112D01*
X288778Y157101D01*
X288807Y157090D01*
X288843Y157083D01*
X288887Y157079D01*
X288931Y157076D01*
X288938D01*
X288952D01*
X288981Y157079D01*
X289014Y157087D01*
X289051Y157094D01*
X289091Y157108D01*
X289131Y157127D01*
X289171Y157152D01*
X289174Y157156D01*
X289189Y157167D01*
X289207Y157181D01*
X289229Y157203D01*
X289254Y157232D01*
X289280Y157269D01*
X289302Y157309D01*
X289320Y157356D01*
X289324Y157363D01*
X289327Y157378D01*
X289335Y157411D01*
X289342Y157451D01*
X289349Y157502D01*
X289356Y157563D01*
X289364Y157640D01*
Y158302D01*
D02*
G37*
G36*
X245419Y157802D02*
X244662D01*
Y157184D01*
X244666Y157136D01*
X244669Y157085D01*
X244673Y157034D01*
X244680Y156983D01*
X244688Y156943D01*
X244691Y156936D01*
X244695Y156922D01*
X244706Y156900D01*
X244720Y156871D01*
X244735Y156842D01*
X244757Y156809D01*
X244786Y156776D01*
X244815Y156751D01*
X244819Y156747D01*
X244830Y156740D01*
X244851Y156729D01*
X244877Y156718D01*
X244906Y156707D01*
X244942Y156696D01*
X244986Y156689D01*
X245033Y156685D01*
X245041D01*
X245055D01*
X245077Y156689D01*
X245106Y156692D01*
X245143Y156700D01*
X245179Y156710D01*
X245215Y156725D01*
X245252Y156747D01*
X245255Y156751D01*
X245266Y156758D01*
X245285Y156772D01*
X245303Y156790D01*
X245325Y156816D01*
X245346Y156845D01*
X245368Y156881D01*
X245383Y156922D01*
Y156925D01*
X245390Y156943D01*
X245394Y156969D01*
X245401Y157009D01*
X245408Y157063D01*
X245412Y157125D01*
X245419Y157205D01*
Y157802D01*
D02*
G37*
G36*
X244364D02*
X243497D01*
Y157085D01*
X243501Y157009D01*
X243505Y156976D01*
X243508Y156947D01*
Y156943D01*
X243512Y156929D01*
X243515Y156907D01*
X243523Y156881D01*
X243545Y156820D01*
X243574Y156758D01*
X243577Y156754D01*
X243585Y156743D01*
X243596Y156729D01*
X243610Y156710D01*
X243632Y156692D01*
X243654Y156667D01*
X243683Y156649D01*
X243716Y156627D01*
X243719Y156623D01*
X243730Y156619D01*
X243752Y156612D01*
X243778Y156601D01*
X243807Y156590D01*
X243843Y156583D01*
X243887Y156579D01*
X243931Y156576D01*
X243938D01*
X243952D01*
X243981Y156579D01*
X244014Y156587D01*
X244051Y156594D01*
X244091Y156608D01*
X244131Y156627D01*
X244171Y156652D01*
X244174Y156656D01*
X244189Y156667D01*
X244207Y156681D01*
X244229Y156703D01*
X244254Y156732D01*
X244280Y156769D01*
X244302Y156809D01*
X244320Y156856D01*
X244324Y156863D01*
X244327Y156878D01*
X244335Y156911D01*
X244342Y156951D01*
X244349Y157002D01*
X244356Y157063D01*
X244364Y157140D01*
Y157802D01*
D02*
G37*
%LPD*%
D10*
X51157Y44705D02*
X70842D01*
Y70295D01*
X51157D02*
X70842D01*
X51157Y44705D02*
Y70295D01*
X275295Y184095D02*
X299705D01*
X275295Y145905D02*
Y184095D01*
Y145905D02*
X299705D01*
Y184095D01*
X123449Y153209D02*
X184551D01*
X123449D02*
Y190610D01*
X184551D01*
Y153209D02*
Y190610D01*
X230295Y183595D02*
X254705D01*
X230295Y145405D02*
Y183595D01*
Y145405D02*
X254705D01*
Y183595D01*
M02*
