G04*
G04 #@! TF.GenerationSoftware,Altium Limited,Altium Designer,21.9.2 (33)*
G04*
G04 Layer_Color=255*
%FSLAX25Y25*%
%MOIN*%
G70*
G04*
G04 #@! TF.SameCoordinates,A0D018B4-DB31-4F92-A021-C5504D576F11*
G04*
G04*
G04 #@! TF.FilePolarity,Positive*
G04*
G01*
G75*
%ADD22R,0.06299X0.09843*%
%ADD23R,0.03425X0.03858*%
%ADD24R,0.04252X0.06575*%
%ADD25R,0.04134X0.06693*%
%ADD26R,0.05118X0.06102*%
%ADD27R,0.00787X0.03937*%
%ADD28R,0.01181X0.04724*%
%ADD29O,0.02362X0.03740*%
%ADD30R,0.03740X0.03858*%
%ADD31R,0.07900X0.03900*%
%ADD32R,0.03858X0.03740*%
%ADD33R,0.04961X0.02323*%
%ADD34R,0.06575X0.04252*%
%ADD35R,0.04567X0.07165*%
%ADD36R,0.07165X0.04567*%
%ADD37O,0.02165X0.05118*%
%ADD38O,0.05118X0.02165*%
%ADD39R,0.07874X0.07087*%
%ADD40O,0.00787X0.02559*%
%ADD41O,0.02559X0.00787*%
%ADD42R,0.06063X0.06693*%
%ADD43R,0.08661X0.05906*%
G04:AMPARAMS|DCode=44|XSize=21.65mil|YSize=31.5mil|CornerRadius=1.95mil|HoleSize=0mil|Usage=FLASHONLY|Rotation=90.000|XOffset=0mil|YOffset=0mil|HoleType=Round|Shape=RoundedRectangle|*
%AMROUNDEDRECTD44*
21,1,0.02165,0.02760,0,0,90.0*
21,1,0.01776,0.03150,0,0,90.0*
1,1,0.00390,0.01380,0.00888*
1,1,0.00390,0.01380,-0.00888*
1,1,0.00390,-0.01380,-0.00888*
1,1,0.00390,-0.01380,0.00888*
%
%ADD44ROUNDEDRECTD44*%
%ADD45R,0.02300X0.01400*%
%ADD46O,0.02362X0.03937*%
%ADD47R,0.21394X0.05197*%
%ADD71C,0.06700*%
%ADD77R,0.06102X0.06102*%
%ADD78C,0.06102*%
%ADD82C,0.06299*%
%ADD83C,0.23622*%
%ADD84O,0.03937X0.06299*%
%ADD85C,0.02559*%
%ADD86R,0.06496X0.06496*%
%ADD87C,0.06496*%
%ADD88C,0.04700*%
D22*
X61000Y64390D02*
D03*
Y50610D02*
D03*
D23*
X244150Y139500D02*
D03*
X237850D02*
D03*
X126350Y138000D02*
D03*
X132650D02*
D03*
X223850Y42500D02*
D03*
X230150D02*
D03*
X80850Y84000D02*
D03*
X87150D02*
D03*
D24*
X212189Y147500D02*
D03*
X200811D02*
D03*
X312311Y148500D02*
D03*
X323689D02*
D03*
X14311Y168000D02*
D03*
X25689D02*
D03*
X258311Y179500D02*
D03*
X269689D02*
D03*
X270189Y149500D02*
D03*
X258811D02*
D03*
X140311Y45000D02*
D03*
X151689D02*
D03*
X140311Y57000D02*
D03*
X151689D02*
D03*
X140311Y69000D02*
D03*
X151689D02*
D03*
X76311Y94000D02*
D03*
X87689D02*
D03*
X107689Y94000D02*
D03*
X96311D02*
D03*
X96311Y84000D02*
D03*
X107689D02*
D03*
X104311Y104000D02*
D03*
X115689D02*
D03*
X34311Y168000D02*
D03*
X45689D02*
D03*
Y158000D02*
D03*
X34311D02*
D03*
X14311Y158000D02*
D03*
X25689D02*
D03*
X17689Y148000D02*
D03*
X6311D02*
D03*
D25*
X231693Y91500D02*
D03*
X243307D02*
D03*
X91000Y49000D02*
D03*
X79386D02*
D03*
X90807Y59500D02*
D03*
X79193D02*
D03*
X90807Y69500D02*
D03*
X79193D02*
D03*
D26*
X278642Y149350D02*
D03*
Y180650D02*
D03*
X296358Y149350D02*
D03*
Y180650D02*
D03*
X233642Y148850D02*
D03*
Y180150D02*
D03*
X251358Y148850D02*
D03*
Y180150D02*
D03*
D27*
X23500Y28462D02*
D03*
Y16257D02*
D03*
D28*
X12673Y46494D02*
D03*
X14642D02*
D03*
X16610D02*
D03*
X18579D02*
D03*
X20547D02*
D03*
X22516D02*
D03*
X24484D02*
D03*
X26453D02*
D03*
X28421D02*
D03*
X30390D02*
D03*
X32358D02*
D03*
X34327D02*
D03*
D29*
X222760Y23087D02*
D03*
X226500D02*
D03*
X230240D02*
D03*
X222760Y33913D02*
D03*
X226500D02*
D03*
X230240D02*
D03*
X241760Y23087D02*
D03*
X245500D02*
D03*
X249240D02*
D03*
X241760Y33913D02*
D03*
X245500D02*
D03*
X249240D02*
D03*
D30*
X132512Y144500D02*
D03*
X126488D02*
D03*
X184652Y31060D02*
D03*
X178628D02*
D03*
D31*
X319709Y131575D02*
D03*
Y125669D02*
D03*
Y119764D02*
D03*
Y113858D02*
D03*
Y107953D02*
D03*
Y102047D02*
D03*
Y96142D02*
D03*
Y90236D02*
D03*
Y84331D02*
D03*
Y78425D02*
D03*
X258291D02*
D03*
Y84331D02*
D03*
Y90236D02*
D03*
Y96142D02*
D03*
Y102047D02*
D03*
Y107953D02*
D03*
Y113858D02*
D03*
Y119764D02*
D03*
Y125669D02*
D03*
Y131575D02*
D03*
D32*
X243000Y130012D02*
D03*
Y123988D02*
D03*
X236000Y130012D02*
D03*
Y123988D02*
D03*
X229000D02*
D03*
Y130012D02*
D03*
X133000Y125488D02*
D03*
Y131512D02*
D03*
X185000Y131012D02*
D03*
Y124988D02*
D03*
X199500Y61988D02*
D03*
Y68012D02*
D03*
X192500Y61988D02*
D03*
Y68012D02*
D03*
X185500Y61988D02*
D03*
Y68012D02*
D03*
D33*
X258142Y53740D02*
D03*
Y46260D02*
D03*
X265858Y50000D02*
D03*
X283142Y53740D02*
D03*
Y46260D02*
D03*
X290858Y50000D02*
D03*
X309142Y54740D02*
D03*
Y47260D02*
D03*
X316858Y51000D02*
D03*
D34*
X274000Y44311D02*
D03*
Y55689D02*
D03*
X299000Y45311D02*
D03*
Y56689D02*
D03*
X325000Y45311D02*
D03*
Y56689D02*
D03*
X241000Y111689D02*
D03*
Y100311D02*
D03*
X150500Y98689D02*
D03*
Y87311D02*
D03*
X159500Y98689D02*
D03*
Y87311D02*
D03*
X168500Y98689D02*
D03*
Y87311D02*
D03*
X115500Y45311D02*
D03*
Y56689D02*
D03*
D35*
X258693Y164500D02*
D03*
X270307D02*
D03*
X107807Y154000D02*
D03*
X96193D02*
D03*
X107807Y174000D02*
D03*
X96193D02*
D03*
X107807Y164000D02*
D03*
X96193D02*
D03*
X76193D02*
D03*
X87807D02*
D03*
X76193Y154000D02*
D03*
X87807D02*
D03*
X115807Y114000D02*
D03*
X104193D02*
D03*
X6193Y138000D02*
D03*
X17807D02*
D03*
X14193Y98000D02*
D03*
X25807D02*
D03*
X14193Y88000D02*
D03*
X25807D02*
D03*
X45807Y98000D02*
D03*
X34193D02*
D03*
X45807Y88000D02*
D03*
X34193D02*
D03*
X14193Y78000D02*
D03*
X25807D02*
D03*
D36*
X124500Y119693D02*
D03*
Y131307D02*
D03*
X220000Y133807D02*
D03*
Y122193D02*
D03*
X163640Y46867D02*
D03*
Y35253D02*
D03*
X193640Y41253D02*
D03*
Y52867D02*
D03*
X68000Y102193D02*
D03*
Y113807D02*
D03*
X78000Y102193D02*
D03*
Y113807D02*
D03*
X54000Y149807D02*
D03*
Y138193D02*
D03*
X44000Y149807D02*
D03*
Y138193D02*
D03*
D37*
X172024Y109661D02*
D03*
X168874D02*
D03*
X165724D02*
D03*
X162575D02*
D03*
X159425D02*
D03*
X156276D02*
D03*
X153126D02*
D03*
X149976D02*
D03*
Y142339D02*
D03*
X153126D02*
D03*
X156276D02*
D03*
X159425D02*
D03*
X162575D02*
D03*
X165724D02*
D03*
X168874D02*
D03*
X172024D02*
D03*
D38*
X144661Y114976D02*
D03*
Y118126D02*
D03*
Y121276D02*
D03*
Y124425D02*
D03*
Y127575D02*
D03*
Y130724D02*
D03*
Y133874D02*
D03*
Y137024D02*
D03*
X177339D02*
D03*
Y133874D02*
D03*
Y130724D02*
D03*
Y127575D02*
D03*
Y124425D02*
D03*
Y121276D02*
D03*
Y118126D02*
D03*
Y114976D02*
D03*
D39*
X210268Y118000D02*
D03*
Y138000D02*
D03*
X193732Y118000D02*
D03*
Y138000D02*
D03*
D40*
X161701Y61000D02*
D03*
X163276D02*
D03*
X164850D02*
D03*
X166425D02*
D03*
X168000D02*
D03*
X169575D02*
D03*
Y73402D02*
D03*
X168000D02*
D03*
X166425D02*
D03*
X164850D02*
D03*
X163276D02*
D03*
X161701D02*
D03*
D41*
X171839Y63264D02*
D03*
Y64839D02*
D03*
Y66413D02*
D03*
Y67988D02*
D03*
Y69563D02*
D03*
Y71138D02*
D03*
X159437D02*
D03*
Y69563D02*
D03*
Y67988D02*
D03*
Y66413D02*
D03*
Y64839D02*
D03*
Y63264D02*
D03*
D42*
X165638Y67201D02*
D03*
D43*
X210500Y54898D02*
D03*
Y67102D02*
D03*
D44*
X174620Y44800D02*
D03*
Y41060D02*
D03*
Y37320D02*
D03*
X184659D02*
D03*
Y44800D02*
D03*
D45*
X127000Y45000D02*
D03*
X133000Y46968D02*
D03*
Y43031D02*
D03*
X127000Y69000D02*
D03*
X133000Y70969D02*
D03*
Y67032D02*
D03*
X127000Y57000D02*
D03*
X133000Y58969D02*
D03*
Y55032D02*
D03*
D46*
X88260Y102488D02*
D03*
X92000D02*
D03*
X95740D02*
D03*
X88260Y113512D02*
D03*
X92000D02*
D03*
X95740D02*
D03*
X33740Y149512D02*
D03*
X30000D02*
D03*
X26260D02*
D03*
X33740Y138488D02*
D03*
X30000D02*
D03*
X26260D02*
D03*
D47*
X92000Y144701D02*
D03*
Y123299D02*
D03*
X30000Y107299D02*
D03*
Y128701D02*
D03*
D71*
X106882Y12000D02*
D03*
X120661D02*
D03*
X134441D02*
D03*
X148221D02*
D03*
X162000D02*
D03*
X175779D02*
D03*
X189559D02*
D03*
X203339D02*
D03*
X316677D02*
D03*
X302898D02*
D03*
X289118D02*
D03*
X275339D02*
D03*
X261559D02*
D03*
X247779D02*
D03*
X234000D02*
D03*
X220220D02*
D03*
D77*
X164000Y177500D02*
D03*
D78*
X154000D02*
D03*
X144000D02*
D03*
X164000Y167500D02*
D03*
X154000D02*
D03*
X144000D02*
D03*
D82*
X272000Y31000D02*
D03*
X262000D02*
D03*
X296000D02*
D03*
X286000D02*
D03*
X310500D02*
D03*
X320500D02*
D03*
D83*
X317500Y176500D02*
D03*
D84*
X6689Y18423D02*
D03*
X40311D02*
D03*
X6689Y37045D02*
D03*
X40311D02*
D03*
D85*
X32949Y38816D02*
D03*
X14051D02*
D03*
X29799D02*
D03*
X17201D02*
D03*
X26650D02*
D03*
X20350D02*
D03*
X34524Y41572D02*
D03*
X12476D02*
D03*
X31374D02*
D03*
X15626D02*
D03*
X28224D02*
D03*
X18776D02*
D03*
X25075D02*
D03*
X21925D02*
D03*
D86*
X216500Y174000D02*
D03*
X67000Y20000D02*
D03*
D87*
X196500Y174000D02*
D03*
X87000Y20000D02*
D03*
D88*
X289000Y106772D02*
D03*
M02*
