G04*
G04 #@! TF.GenerationSoftware,Altium Limited,Altium Designer,21.9.2 (33)*
G04*
G04 Layer_Color=16711935*
%FSLAX25Y25*%
%MOIN*%
G70*
G04*
G04 #@! TF.SameCoordinates,A0D018B4-DB31-4F92-A021-C5504D576F11*
G04*
G04*
G04 #@! TF.FilePolarity,Negative*
G04*
G01*
G75*
%ADD49R,0.05052X0.07375*%
%ADD58R,0.05367X0.07965*%
%ADD70C,0.07099*%
%ADD71C,0.06700*%
%ADD72C,0.24422*%
%ADD73O,0.04737X0.07099*%
%ADD74C,0.03359*%
%ADD75R,0.07296X0.07296*%
%ADD76C,0.07296*%
%ADD77R,0.06102X0.06102*%
%ADD78C,0.06102*%
%ADD79C,0.03800*%
D49*
X97000Y49000D02*
D03*
X85622D02*
D03*
X96496Y59500D02*
D03*
X85118D02*
D03*
X85311Y69500D02*
D03*
X96689D02*
D03*
X296689Y149500D02*
D03*
X285311D02*
D03*
X284811Y180500D02*
D03*
X296189D02*
D03*
X112689Y25500D02*
D03*
X101311D02*
D03*
X148311Y25000D02*
D03*
X159689D02*
D03*
X134878D02*
D03*
X123500D02*
D03*
D58*
X296307Y164500D02*
D03*
X284693D02*
D03*
X112807Y35000D02*
D03*
X101193D02*
D03*
X134807D02*
D03*
X123193D02*
D03*
D70*
X272000Y31000D02*
D03*
X262000D02*
D03*
X296000D02*
D03*
X286000D02*
D03*
X310500D02*
D03*
X320500D02*
D03*
D71*
X106882Y12000D02*
D03*
X120661D02*
D03*
X134441D02*
D03*
X148221D02*
D03*
X162000D02*
D03*
X175779D02*
D03*
X189559D02*
D03*
X203339D02*
D03*
X316677D02*
D03*
X302898D02*
D03*
X289118D02*
D03*
X275339D02*
D03*
X261559D02*
D03*
X247779D02*
D03*
X234000D02*
D03*
X220220D02*
D03*
D72*
X317500Y176500D02*
D03*
D73*
X6689Y18423D02*
D03*
X40311D02*
D03*
X6689Y37045D02*
D03*
X40311D02*
D03*
D74*
X32949Y38816D02*
D03*
X14051D02*
D03*
X29799D02*
D03*
X17201D02*
D03*
X26650D02*
D03*
X20350D02*
D03*
X34524Y41572D02*
D03*
X12476D02*
D03*
X31374D02*
D03*
X15626D02*
D03*
X28224D02*
D03*
X18776D02*
D03*
X25075D02*
D03*
X21925D02*
D03*
D75*
X216500Y174000D02*
D03*
X67000Y20000D02*
D03*
D76*
X196500Y174000D02*
D03*
X87000Y20000D02*
D03*
D77*
X164000Y177500D02*
D03*
D78*
X154000D02*
D03*
X144000D02*
D03*
X164000Y167500D02*
D03*
X154000D02*
D03*
X144000D02*
D03*
D79*
X239500Y73000D02*
D03*
X266000Y90000D02*
D03*
X222000Y97000D02*
D03*
X182500Y89450D02*
D03*
X237500Y91500D02*
D03*
X185500Y119500D02*
D03*
X68000Y50500D02*
D03*
X54000D02*
D03*
X54684Y64491D02*
D03*
X66500Y64500D02*
D03*
X74000Y54500D02*
D03*
Y64500D02*
D03*
X75269Y75046D02*
D03*
X60500Y112500D02*
D03*
X37500Y138500D02*
D03*
X226500Y140000D02*
D03*
X248864Y130012D02*
D03*
X239500Y148500D02*
D03*
X194971Y147432D02*
D03*
X206500Y147500D02*
D03*
X121000Y150500D02*
D03*
X118599Y141830D02*
D03*
X278500Y156000D02*
D03*
X290500Y164500D02*
D03*
X318000Y148500D02*
D03*
X285000Y172500D02*
D03*
X264000Y179500D02*
D03*
X290500Y180500D02*
D03*
X291000Y149500D02*
D03*
X168500Y82500D02*
D03*
X197500Y97650D02*
D03*
X179000Y98500D02*
D03*
X209000Y92500D02*
D03*
X176050Y109500D02*
D03*
X140700Y149000D02*
D03*
X151000Y128000D02*
D03*
X154000Y149000D02*
D03*
X45908Y59500D02*
D03*
X46000Y49000D02*
D03*
X46500Y69500D02*
D03*
X210500Y102500D02*
D03*
X205235Y102265D02*
D03*
X136836Y76164D02*
D03*
X236000Y28500D02*
D03*
X217000D02*
D03*
X23500Y22500D02*
D03*
X127000Y75889D02*
D03*
X122500Y42000D02*
D03*
X140500Y101500D02*
D03*
X115500Y51000D02*
D03*
X136500Y93500D02*
D03*
Y49500D02*
D03*
X159500Y82500D02*
D03*
X156500Y76000D02*
D03*
X150500Y82050D02*
D03*
X137500Y110500D02*
D03*
X272500Y68500D02*
D03*
X138500Y138000D02*
D03*
X137520Y118192D02*
D03*
X139000Y126000D02*
D03*
X151500Y121000D02*
D03*
X172000Y75500D02*
D03*
X171500Y135000D02*
D03*
X184500Y109000D02*
D03*
Y98500D02*
D03*
X190702Y98335D02*
D03*
X162609Y116013D02*
D03*
X164500Y150500D02*
D03*
X178000Y147000D02*
D03*
X280500Y64500D02*
D03*
X283000Y49621D02*
D03*
X190777Y109818D02*
D03*
X248500Y159500D02*
D03*
X249792Y113803D02*
D03*
X147000Y149000D02*
D03*
X29500Y79000D02*
D03*
Y75000D02*
D03*
X20000Y158000D02*
D03*
Y168000D02*
D03*
X102500Y94000D02*
D03*
X62000Y139500D02*
D03*
X84500Y113000D02*
D03*
X70000Y118500D02*
D03*
X52000Y134000D02*
D03*
X115000Y77000D02*
D03*
X102000Y84000D02*
D03*
X39500Y168000D02*
D03*
X29500Y93000D02*
D03*
X10500Y83000D02*
D03*
Y93000D02*
D03*
X114000Y159000D02*
D03*
Y169000D02*
D03*
X60000Y86000D02*
D03*
Y92000D02*
D03*
Y98000D02*
D03*
Y104000D02*
D03*
X64000Y150000D02*
D03*
Y156000D02*
D03*
Y162000D02*
D03*
Y168000D02*
D03*
X192000Y131000D02*
D03*
Y125000D02*
D03*
X139000Y132500D02*
D03*
X92000Y174000D02*
D03*
Y153500D02*
D03*
Y163500D02*
D03*
X264500Y164500D02*
D03*
X308000Y43000D02*
D03*
X281569Y42140D02*
D03*
X252000Y49000D02*
D03*
X218000Y42000D02*
D03*
X274000Y50000D02*
D03*
X299000Y51000D02*
D03*
X325000D02*
D03*
X107000Y35000D02*
D03*
X154000Y25000D02*
D03*
X266376Y120363D02*
D03*
X311756Y82735D02*
D03*
X312000Y126000D02*
D03*
X220000Y128000D02*
D03*
X202000Y118000D02*
D03*
X178500Y71000D02*
D03*
X165500Y67000D02*
D03*
X171000Y48000D02*
D03*
X175500Y52000D02*
D03*
X187500Y41000D02*
D03*
X179500D02*
D03*
X170460Y40858D02*
D03*
X176500Y63000D02*
D03*
Y58500D02*
D03*
X171000Y32500D02*
D03*
X156035Y68616D02*
D03*
X146000Y45000D02*
D03*
Y57000D02*
D03*
Y69000D02*
D03*
M02*
