G04*
G04 #@! TF.GenerationSoftware,Altium Limited,Altium Designer,21.9.2 (33)*
G04*
G04 Layer_Physical_Order=4*
G04 Layer_Color=16711680*
%FSLAX25Y25*%
%MOIN*%
G70*
G04*
G04 #@! TF.SameCoordinates,A0D018B4-DB31-4F92-A021-C5504D576F11*
G04*
G04*
G04 #@! TF.FilePolarity,Positive*
G04*
G01*
G75*
%ADD12C,0.02000*%
%ADD19C,0.00700*%
%ADD20C,0.01000*%
%ADD21C,0.01500*%
%ADD24R,0.04252X0.06575*%
%ADD35R,0.04567X0.07165*%
%ADD71C,0.06700*%
%ADD77R,0.06102X0.06102*%
%ADD78C,0.06102*%
%ADD80C,0.03000*%
%ADD82C,0.06299*%
%ADD83C,0.23622*%
%ADD84O,0.03937X0.06299*%
%ADD85C,0.02559*%
%ADD86R,0.06496X0.06496*%
%ADD87C,0.06496*%
%ADD88C,0.04700*%
%ADD89C,0.03000*%
G36*
X90000Y110000D02*
X79000D01*
Y76525D01*
X76902D01*
X76515Y76911D01*
X75707Y77246D01*
X74831D01*
X74023Y76911D01*
X73404Y76292D01*
X73069Y75484D01*
Y74608D01*
X73404Y73800D01*
X74023Y73181D01*
X74831Y72846D01*
X75707D01*
X76515Y73181D01*
X76902Y73568D01*
X79000D01*
Y65978D01*
X75633D01*
X75246Y66365D01*
X74438Y66700D01*
X73562D01*
X72754Y66365D01*
X72135Y65746D01*
X71800Y64938D01*
Y64062D01*
X72135Y63254D01*
X72754Y62635D01*
X73562Y62300D01*
X74438D01*
X75246Y62635D01*
X75633Y63022D01*
X79000D01*
Y55978D01*
X75633D01*
X75246Y56365D01*
X74438Y56700D01*
X73562D01*
X72754Y56365D01*
X72135Y55746D01*
X71800Y54938D01*
Y54062D01*
X72135Y53254D01*
X72754Y52635D01*
X73562Y52300D01*
X74438D01*
X75246Y52635D01*
X75633Y53022D01*
X79000D01*
Y9500D01*
X48000D01*
Y46000D01*
X43000Y51000D01*
Y57754D01*
X43531Y58008D01*
X44181Y58116D01*
X44662Y57635D01*
X45471Y57300D01*
X46346D01*
X47154Y57635D01*
X47773Y58254D01*
X48108Y59062D01*
Y59938D01*
X47773Y60746D01*
X47154Y61365D01*
X46346Y61700D01*
X45471D01*
X44662Y61365D01*
X44181Y60884D01*
X43531Y60992D01*
X43000Y61246D01*
Y110000D01*
X33000D01*
Y142000D01*
X90000D01*
Y110000D01*
D02*
G37*
G36*
X174000Y66500D02*
X179000D01*
Y55500D01*
X169000D01*
X158500Y66000D01*
X155000Y66000D01*
Y70500D01*
X161500D01*
X169000Y78000D01*
X174000D01*
Y66500D01*
D02*
G37*
%LPC*%
G36*
X60438Y106200D02*
X59562D01*
X58754Y105865D01*
X58135Y105246D01*
X57800Y104438D01*
Y103562D01*
X58135Y102754D01*
X58754Y102135D01*
X59562Y101800D01*
X60438D01*
X61246Y102135D01*
X61865Y102754D01*
X62200Y103562D01*
Y104438D01*
X61865Y105246D01*
X61246Y105865D01*
X60438Y106200D01*
D02*
G37*
G36*
Y100200D02*
X59562D01*
X58754Y99865D01*
X58135Y99246D01*
X57800Y98438D01*
Y97562D01*
X58135Y96754D01*
X58754Y96135D01*
X59562Y95800D01*
X60438D01*
X61246Y96135D01*
X61865Y96754D01*
X62200Y97562D01*
Y98438D01*
X61865Y99246D01*
X61246Y99865D01*
X60438Y100200D01*
D02*
G37*
G36*
Y94200D02*
X59562D01*
X58754Y93865D01*
X58135Y93246D01*
X57800Y92438D01*
Y91562D01*
X58135Y90754D01*
X58754Y90135D01*
X59562Y89800D01*
X60438D01*
X61246Y90135D01*
X61865Y90754D01*
X62200Y91562D01*
Y92438D01*
X61865Y93246D01*
X61246Y93865D01*
X60438Y94200D01*
D02*
G37*
G36*
Y88200D02*
X59562D01*
X58754Y87865D01*
X58135Y87246D01*
X57800Y86438D01*
Y85562D01*
X58135Y84754D01*
X58754Y84135D01*
X59562Y83800D01*
X60438D01*
X61246Y84135D01*
X61865Y84754D01*
X62200Y85562D01*
Y86438D01*
X61865Y87246D01*
X61246Y87865D01*
X60438Y88200D01*
D02*
G37*
G36*
X46938Y71700D02*
X46062D01*
X45254Y71365D01*
X44635Y70746D01*
X44300Y69938D01*
Y69062D01*
X44635Y68254D01*
X45254Y67635D01*
X46062Y67300D01*
X46938D01*
X47746Y67635D01*
X48365Y68254D01*
X48700Y69062D01*
Y69938D01*
X48365Y70746D01*
X47746Y71365D01*
X46938Y71700D01*
D02*
G37*
G36*
X68438Y52700D02*
X67562D01*
X66754Y52365D01*
X66135Y51746D01*
X65800Y50938D01*
Y50062D01*
X66135Y49254D01*
X66754Y48635D01*
X67562Y48300D01*
X68438D01*
X69246Y48635D01*
X69865Y49254D01*
X70200Y50062D01*
Y50938D01*
X69865Y51746D01*
X69246Y52365D01*
X68438Y52700D01*
D02*
G37*
G36*
X54438D02*
X53562D01*
X52754Y52365D01*
X52135Y51746D01*
X51800Y50938D01*
Y50062D01*
X52135Y49254D01*
X52754Y48635D01*
X53562Y48300D01*
X54438D01*
X55246Y48635D01*
X55865Y49254D01*
X56200Y50062D01*
Y50938D01*
X55865Y51746D01*
X55246Y52365D01*
X54438Y52700D01*
D02*
G37*
G36*
X165938Y69200D02*
X165062D01*
X164254Y68865D01*
X163635Y68246D01*
X163300Y67438D01*
Y66562D01*
X163635Y65754D01*
X164254Y65135D01*
X165062Y64800D01*
X165938D01*
X166746Y65135D01*
X167365Y65754D01*
X167700Y66562D01*
Y67438D01*
X167365Y68246D01*
X166746Y68865D01*
X165938Y69200D01*
D02*
G37*
%LPD*%
D12*
X290500Y164500D02*
X296307D01*
D19*
X136668Y75996D02*
X136836Y76164D01*
X136500Y49500D02*
X136668Y49668D01*
Y75996D01*
X172000Y72000D02*
Y75500D01*
X176500Y58500D02*
Y63000D01*
X170500Y70500D02*
X172000Y72000D01*
D20*
X20898Y44052D02*
X26102D01*
X28224Y41572D02*
Y41929D01*
X18776D02*
X20898Y44052D01*
X18776Y41572D02*
Y41929D01*
X26102Y44052D02*
X28224Y41929D01*
X129500Y10506D02*
Y73389D01*
X127000Y75889D02*
X129500Y73389D01*
Y10506D02*
X132556Y7450D01*
X157450D02*
X162000Y12000D01*
X132556Y7450D02*
X157450D01*
D21*
X220220Y12000D02*
X227500Y19279D01*
Y39979D01*
X242450Y54929D01*
X189300Y115700D02*
X196800D01*
X204000Y108500D02*
X224672D01*
X196800Y115700D02*
X204000Y108500D01*
X224672D02*
X242450Y90722D01*
Y54929D02*
Y90722D01*
X172389Y88000D02*
X187389Y73000D01*
X239500D01*
X206800Y97000D02*
X222000D01*
X148155Y110500D02*
X170656Y88000D01*
X172389D01*
X175000Y96500D02*
X176900Y94600D01*
X204400D01*
X206800Y97000D01*
X174050Y89450D02*
X182500D01*
X151500Y115500D02*
X174600Y92400D01*
X208900D01*
X209000Y92500D01*
X146000Y117500D02*
X174050Y89450D01*
X185500Y119500D02*
X189300Y115700D01*
X194000Y113500D02*
X197500Y110000D01*
X183500Y113500D02*
X194000D01*
X181200Y115800D02*
Y143800D01*
Y115800D02*
X183500Y113500D01*
X197500Y97650D02*
Y110000D01*
X107500Y69500D02*
X115000Y77000D01*
X96689Y69500D02*
X107500D01*
X93000Y4492D02*
Y34724D01*
X100576Y42300D01*
Y54259D01*
X96496Y58339D02*
X100576Y54259D01*
X96496Y58339D02*
Y59500D01*
X91000Y43000D02*
X94463Y46463D01*
X76000Y43000D02*
X91000D01*
X97000Y47839D02*
Y49000D01*
X95624Y46463D02*
X97000Y47839D01*
X94463Y46463D02*
X95624D01*
X80122Y54500D02*
X83085Y51537D01*
X74000Y54500D02*
X80122D01*
X85622Y49000D02*
Y50161D01*
X84246Y51537D02*
X85622Y50161D01*
X83085Y51537D02*
X84246D01*
X83742Y62037D02*
X85118Y60661D01*
X74000Y64500D02*
X80118D01*
X85118Y59500D02*
Y60661D01*
X82581Y62037D02*
X83742D01*
X80118Y64500D02*
X82581Y62037D01*
X83935Y72037D02*
X85311Y70661D01*
X75269Y75046D02*
X79765D01*
X85311Y69500D02*
Y70661D01*
X82774Y72037D02*
X83935D01*
X79765Y75046D02*
X82774Y72037D01*
X60500Y112500D02*
X68893Y104106D01*
Y102106D02*
X77000Y94000D01*
X68893Y102106D02*
Y104106D01*
X77000Y94000D02*
X102500D01*
X206500Y140000D02*
X226500D01*
X193500D02*
X206500D01*
Y147500D01*
X183000Y150500D02*
X193500Y140000D01*
X249792Y113803D02*
Y121708D01*
X216500Y155000D02*
Y174000D01*
Y155000D02*
X249792Y121708D01*
X251000Y157000D02*
X273000D01*
X248500Y159500D02*
X251000Y157000D01*
X273000D02*
X280500Y164500D01*
X284693D01*
X284906Y172594D02*
X285000Y172500D01*
X284811Y180500D02*
X284906Y180405D01*
Y172594D02*
Y180405D01*
X290500Y180500D02*
X296189D01*
X291000Y149500D02*
X296689D01*
X284693Y164500D02*
X285311Y163882D01*
Y149500D02*
Y163882D01*
X175000Y108044D02*
X176050Y109094D01*
Y109500D01*
X175000Y96500D02*
Y108044D01*
X151500Y115500D02*
Y121000D01*
X138212Y117500D02*
X146000D01*
X137500Y110500D02*
X148155D01*
X179000Y98500D02*
Y127500D01*
X171500Y135000D02*
X179000Y127500D01*
X134000Y146000D02*
X136500Y143500D01*
X144000D01*
X161896Y125604D01*
X134000Y167500D02*
X144000Y177500D01*
X134000Y146000D02*
Y167500D01*
X138500Y138000D02*
X141000D01*
X151000Y128000D01*
X161896Y117132D02*
Y125604D01*
X109000Y66000D02*
X136500Y93500D01*
X109000Y44500D02*
Y66000D01*
X132500Y76000D02*
X140500Y84000D01*
Y101500D01*
X132500Y49328D02*
Y76000D01*
X134878Y34878D02*
X135000Y35000D01*
X135500Y35500D01*
X132500Y49328D02*
X134807Y47021D01*
X123193Y35000D02*
Y40901D01*
X122500Y41594D02*
Y42000D01*
Y41594D02*
X123193Y40901D01*
X134807Y35500D02*
Y47021D01*
Y35000D02*
X135000D01*
X109000Y44500D02*
X112807Y40693D01*
Y35000D02*
Y40693D01*
X112689Y34882D02*
X112807Y35000D01*
X272500Y68500D02*
X277550Y63450D01*
Y63278D02*
Y63450D01*
Y63278D02*
X278000Y62828D01*
X92000Y153500D02*
X115000Y130500D01*
Y77000D02*
Y130500D01*
X137520Y118192D02*
X138212Y117500D01*
X161896Y117132D02*
X162609Y116419D01*
X178000Y147000D02*
X181200Y143800D01*
X184500Y98500D02*
Y109000D01*
X190777Y98410D02*
Y109818D01*
X190702Y98335D02*
X190777Y98410D01*
X278000Y23339D02*
Y62828D01*
Y23339D02*
X289339Y12000D01*
X162609Y116013D02*
Y116419D01*
X164500Y150500D02*
X183000D01*
X280500Y52425D02*
Y64500D01*
X283000Y49621D02*
Y49924D01*
X280500Y52425D02*
X283000Y49924D01*
X158501Y172001D02*
X164000Y177500D01*
X158501Y160501D02*
Y172001D01*
X147000Y149000D02*
X158501Y160501D01*
X20000Y158000D02*
X38000Y140000D01*
X46000D01*
X12500Y171000D02*
X17500Y176000D01*
X31500D01*
X12500Y110000D02*
Y171000D01*
X31500Y176000D02*
X39500Y168000D01*
X12500Y110000D02*
X29500Y93000D01*
X112689Y25500D02*
Y34882D01*
X101311Y17571D02*
X106882Y12000D01*
X101311Y17571D02*
Y25500D01*
X101193Y35000D02*
X107000D01*
X154000Y25000D02*
X159689D01*
X148221Y12000D02*
X148266Y12045D01*
Y24955D01*
X148311Y25000D01*
X134878D02*
Y34878D01*
X120661Y21000D02*
X123500Y23839D01*
X120661Y12000D02*
Y21000D01*
X123500Y23839D02*
Y25000D01*
D24*
X97000Y49000D02*
D03*
X85622D02*
D03*
X96496Y59500D02*
D03*
X85118D02*
D03*
X85311Y69500D02*
D03*
X96689D02*
D03*
X296689Y149500D02*
D03*
X285311D02*
D03*
X284811Y180500D02*
D03*
X296189D02*
D03*
X112689Y25500D02*
D03*
X101311D02*
D03*
X148311Y25000D02*
D03*
X159689D02*
D03*
X134878D02*
D03*
X123500D02*
D03*
D35*
X296307Y164500D02*
D03*
X284693D02*
D03*
X112807Y35000D02*
D03*
X101193D02*
D03*
X134807D02*
D03*
X123193D02*
D03*
D71*
X106882Y12000D02*
D03*
X120661D02*
D03*
X134441D02*
D03*
X148221D02*
D03*
X162000D02*
D03*
X175779D02*
D03*
X189559D02*
D03*
X203339D02*
D03*
X316677D02*
D03*
X302898D02*
D03*
X289118D02*
D03*
X275339D02*
D03*
X261559D02*
D03*
X247779D02*
D03*
X234000D02*
D03*
X220220D02*
D03*
D77*
X164000Y177500D02*
D03*
D78*
X154000D02*
D03*
X144000D02*
D03*
X164000Y167500D02*
D03*
X154000D02*
D03*
X144000D02*
D03*
D80*
X93000Y4492D02*
X195831D01*
X47257D02*
X93000D01*
X23500Y44918D02*
X23500D01*
X29500Y50918D01*
X23500Y44918D02*
X23500Y44918D01*
X29500Y50918D02*
Y59500D01*
X45500Y6250D02*
Y43500D01*
Y6250D02*
X47257Y4492D01*
X29500Y75000D02*
Y79000D01*
Y59500D02*
Y75000D01*
Y59500D02*
X45500Y43500D01*
X195831Y4492D02*
X203339Y12000D01*
X146000Y57000D02*
Y69000D01*
Y45000D02*
Y57000D01*
D82*
X272000Y31000D02*
D03*
X262000D02*
D03*
X296000D02*
D03*
X286000D02*
D03*
X310500D02*
D03*
X320500D02*
D03*
D83*
X317500Y176500D02*
D03*
D84*
X6689Y18423D02*
D03*
X40311D02*
D03*
X6689Y37045D02*
D03*
X40311D02*
D03*
D85*
X32949Y38816D02*
D03*
X14051D02*
D03*
X29799D02*
D03*
X17201D02*
D03*
X26650D02*
D03*
X20350D02*
D03*
X34524Y41572D02*
D03*
X12476D02*
D03*
X31374D02*
D03*
X15626D02*
D03*
X28224D02*
D03*
X18776D02*
D03*
X25075D02*
D03*
X21925D02*
D03*
D86*
X216500Y174000D02*
D03*
X67000Y20000D02*
D03*
D87*
X196500Y174000D02*
D03*
X87000Y20000D02*
D03*
D88*
X289000Y106772D02*
D03*
D89*
X239500Y73000D02*
D03*
X266000Y90000D02*
D03*
X222000Y97000D02*
D03*
X182500Y89450D02*
D03*
X237500Y91500D02*
D03*
X185500Y119500D02*
D03*
X68000Y50500D02*
D03*
X54000D02*
D03*
X54684Y64491D02*
D03*
X66500Y64500D02*
D03*
X74000Y54500D02*
D03*
Y64500D02*
D03*
X75269Y75046D02*
D03*
X60500Y112500D02*
D03*
X37500Y138500D02*
D03*
X226500Y140000D02*
D03*
X248864Y130012D02*
D03*
X239500Y148500D02*
D03*
X194971Y147432D02*
D03*
X206500Y147500D02*
D03*
X121000Y150500D02*
D03*
X118599Y141830D02*
D03*
X278500Y156000D02*
D03*
X290500Y164500D02*
D03*
X318000Y148500D02*
D03*
X285000Y172500D02*
D03*
X264000Y179500D02*
D03*
X290500Y180500D02*
D03*
X291000Y149500D02*
D03*
X168500Y82500D02*
D03*
X197500Y97650D02*
D03*
X179000Y98500D02*
D03*
X209000Y92500D02*
D03*
X176050Y109500D02*
D03*
X140700Y149000D02*
D03*
X151000Y128000D02*
D03*
X154000Y149000D02*
D03*
X45908Y59500D02*
D03*
X46000Y49000D02*
D03*
X46500Y69500D02*
D03*
X210500Y102500D02*
D03*
X205235Y102265D02*
D03*
X136836Y76164D02*
D03*
X236000Y28500D02*
D03*
X217000D02*
D03*
X23500Y22500D02*
D03*
X127000Y75889D02*
D03*
X122500Y42000D02*
D03*
X140500Y101500D02*
D03*
X115500Y51000D02*
D03*
X136500Y93500D02*
D03*
Y49500D02*
D03*
X159500Y82500D02*
D03*
X156500Y76000D02*
D03*
X150500Y82050D02*
D03*
X137500Y110500D02*
D03*
X272500Y68500D02*
D03*
X138500Y138000D02*
D03*
X137520Y118192D02*
D03*
X139000Y126000D02*
D03*
X151500Y121000D02*
D03*
X172000Y75500D02*
D03*
X171500Y135000D02*
D03*
X184500Y109000D02*
D03*
Y98500D02*
D03*
X190702Y98335D02*
D03*
X162609Y116013D02*
D03*
X164500Y150500D02*
D03*
X178000Y147000D02*
D03*
X280500Y64500D02*
D03*
X283000Y49621D02*
D03*
X190777Y109818D02*
D03*
X248500Y159500D02*
D03*
X249792Y113803D02*
D03*
X147000Y149000D02*
D03*
X29500Y79000D02*
D03*
Y75000D02*
D03*
X20000Y158000D02*
D03*
Y168000D02*
D03*
X102500Y94000D02*
D03*
X62000Y139500D02*
D03*
X84500Y113000D02*
D03*
X70000Y118500D02*
D03*
X52000Y134000D02*
D03*
X115000Y77000D02*
D03*
X102000Y84000D02*
D03*
X39500Y168000D02*
D03*
X29500Y93000D02*
D03*
X10500Y83000D02*
D03*
Y93000D02*
D03*
X114000Y159000D02*
D03*
Y169000D02*
D03*
X60000Y86000D02*
D03*
Y92000D02*
D03*
Y98000D02*
D03*
Y104000D02*
D03*
X64000Y150000D02*
D03*
Y156000D02*
D03*
Y162000D02*
D03*
Y168000D02*
D03*
X192000Y131000D02*
D03*
Y125000D02*
D03*
X139000Y132500D02*
D03*
X92000Y174000D02*
D03*
Y153500D02*
D03*
Y163500D02*
D03*
X264500Y164500D02*
D03*
X308000Y43000D02*
D03*
X281569Y42140D02*
D03*
X252000Y49000D02*
D03*
X218000Y42000D02*
D03*
X274000Y50000D02*
D03*
X299000Y51000D02*
D03*
X325000D02*
D03*
X107000Y35000D02*
D03*
X154000Y25000D02*
D03*
X266376Y120363D02*
D03*
X311756Y82735D02*
D03*
X312000Y126000D02*
D03*
X220000Y128000D02*
D03*
X202000Y118000D02*
D03*
X178500Y71000D02*
D03*
X165500Y67000D02*
D03*
X171000Y48000D02*
D03*
X175500Y52000D02*
D03*
X187500Y41000D02*
D03*
X179500D02*
D03*
X170460Y40858D02*
D03*
X176500Y63000D02*
D03*
Y58500D02*
D03*
X171000Y32500D02*
D03*
X156035Y68616D02*
D03*
X146000Y45000D02*
D03*
Y57000D02*
D03*
Y69000D02*
D03*
M02*
