G04*
G04 #@! TF.GenerationSoftware,Altium Limited,Altium Designer,21.9.2 (33)*
G04*
G04 Layer_Color=65535*
%FSLAX25Y25*%
%MOIN*%
G70*
G04*
G04 #@! TF.SameCoordinates,A0D018B4-DB31-4F92-A021-C5504D576F11*
G04*
G04*
G04 #@! TF.FilePolarity,Positive*
G04*
G01*
G75*
%ADD10C,0.00787*%
%ADD11C,0.00984*%
%ADD12C,0.02000*%
%ADD13C,0.01201*%
%ADD14C,0.00600*%
%ADD15C,0.02362*%
%ADD16C,0.00800*%
%ADD17C,0.00472*%
%ADD18C,0.00500*%
%ADD19C,0.00700*%
%ADD20C,0.01000*%
%ADD21C,0.01500*%
G36*
X42000Y49500D02*
X37948D01*
X34000D01*
Y69500D01*
X37948D01*
X42000D01*
Y49500D01*
D02*
G37*
G36*
X74500Y36000D02*
X59500D01*
Y42000D01*
X74500D01*
Y36000D01*
D02*
G37*
G36*
X104500Y51000D02*
Y47000D01*
X96500D01*
Y51000D01*
X104500D01*
D02*
G37*
G36*
X224000Y152000D02*
X209000D01*
Y158000D01*
X224000D01*
Y152000D01*
D02*
G37*
G36*
X104500Y71500D02*
Y67500D01*
X96500D01*
Y71500D01*
X104500D01*
D02*
G37*
G36*
X137500Y148000D02*
X125500D01*
Y152500D01*
X137500D01*
Y148000D01*
D02*
G37*
G36*
X204000Y152000D02*
X189000D01*
Y158000D01*
X204000D01*
Y152000D01*
D02*
G37*
G36*
X104500Y61500D02*
Y57500D01*
X96500D01*
Y61500D01*
X104500D01*
D02*
G37*
G36*
X224000Y63000D02*
Y59000D01*
X216000D01*
Y63000D01*
X224000D01*
D02*
G37*
G36*
X94500Y36000D02*
X79500D01*
Y42000D01*
X94500D01*
Y36000D01*
D02*
G37*
G36*
X226000Y100500D02*
X214000D01*
Y104500D01*
X226000D01*
Y100500D01*
D02*
G37*
G36*
X241500Y87500D02*
Y83500D01*
X233500D01*
Y87500D01*
X241500D01*
D02*
G37*
%LPC*%
G36*
X40908Y68495D02*
X40242D01*
X40187Y68491D01*
X40135Y68487D01*
X40087Y68476D01*
X40046Y68465D01*
X40013Y68454D01*
X39987Y68447D01*
X39972Y68439D01*
X39965Y68436D01*
X39917Y68410D01*
X39872Y68384D01*
X39828Y68350D01*
X39787Y68317D01*
X39750Y68291D01*
X39724Y68265D01*
X39709Y68251D01*
X39702Y68243D01*
X39691Y68232D01*
X39676Y68213D01*
X39635Y68169D01*
X39591Y68121D01*
X39547Y68066D01*
X39502Y68014D01*
X39465Y67969D01*
X39450Y67954D01*
X39439Y67940D01*
X39436Y67932D01*
X39432Y67929D01*
X39391Y67880D01*
X39351Y67836D01*
X39317Y67795D01*
X39288Y67762D01*
X39258Y67733D01*
X39232Y67703D01*
X39191Y67662D01*
X39162Y67633D01*
X39143Y67614D01*
X39132Y67603D01*
X39129Y67599D01*
X39088Y67577D01*
X39051Y67566D01*
X39036D01*
X39025Y67562D01*
X39018D01*
X39014D01*
X38992Y67566D01*
X38973Y67570D01*
X38936Y67592D01*
X38914Y67610D01*
X38910Y67614D01*
X38906Y67618D01*
X38892Y67640D01*
X38877Y67662D01*
X38866Y67710D01*
X38862Y67733D01*
X38858Y67747D01*
Y67762D01*
X38862Y67795D01*
X38870Y67829D01*
X38881Y67862D01*
X38895Y67895D01*
X38936Y67954D01*
X38980Y68006D01*
X39025Y68054D01*
X39066Y68088D01*
X39080Y68099D01*
X39092Y68110D01*
X39099Y68114D01*
X39103Y68117D01*
X38807Y68454D01*
X38733Y68384D01*
X38666Y68321D01*
X38614Y68262D01*
X38574Y68206D01*
X38544Y68165D01*
X38522Y68132D01*
X38511Y68110D01*
X38507Y68106D01*
Y68103D01*
X38477Y68043D01*
X38459Y67984D01*
X38444Y67925D01*
X38433Y67873D01*
X38425Y67829D01*
X38422Y67795D01*
Y68495D01*
X40210D01*
X38422D01*
Y67766D01*
X38425Y67714D01*
X38429Y67666D01*
X38448Y67577D01*
X38477Y67499D01*
X38511Y67433D01*
X38544Y67377D01*
X38559Y67355D01*
X38570Y67337D01*
X38585Y67322D01*
X38592Y67311D01*
X38596Y67307D01*
X38599Y67303D01*
X38633Y67270D01*
X38670Y67244D01*
X38703Y67218D01*
X38740Y67196D01*
X38810Y67163D01*
X38877Y67141D01*
X38936Y67129D01*
X38958Y67126D01*
X38980Y67122D01*
X38999Y67118D01*
X39010D01*
X39018D01*
X39021D01*
X39084Y67122D01*
X39147Y67137D01*
X39206Y67155D01*
X39258Y67174D01*
X39302Y67196D01*
X39336Y67211D01*
X39358Y67226D01*
X39362Y67229D01*
X39365D01*
X39399Y67251D01*
X39436Y67281D01*
X39473Y67318D01*
X39513Y67355D01*
X39595Y67436D01*
X39672Y67522D01*
X39743Y67599D01*
X39772Y67636D01*
X39798Y67666D01*
X39820Y67692D01*
X39835Y67710D01*
X39846Y67725D01*
X39850Y67729D01*
X39909Y67799D01*
X39957Y67855D01*
X40002Y67899D01*
X40035Y67932D01*
X40065Y67958D01*
X40083Y67977D01*
X40094Y67984D01*
X40098Y67988D01*
X40128Y68010D01*
X40157Y68025D01*
X40183Y68036D01*
X40205Y68043D01*
X40227Y68047D01*
X40242Y68051D01*
X40253D01*
X40257D01*
X40290Y68047D01*
X40320Y68040D01*
X40346Y68025D01*
X40368Y68010D01*
X40387Y67995D01*
X40401Y67980D01*
X40409Y67973D01*
X40412Y67969D01*
X40435Y67940D01*
X40449Y67906D01*
X40464Y67873D01*
X40472Y67844D01*
X40475Y67818D01*
X40479Y67795D01*
Y67777D01*
X40475Y67736D01*
X40464Y67695D01*
X40449Y67659D01*
X40431Y67621D01*
X40379Y67555D01*
X40320Y67499D01*
X40264Y67451D01*
X40213Y67414D01*
X40194Y67403D01*
X40179Y67392D01*
X40168Y67388D01*
X40165Y67385D01*
X40394Y67007D01*
X40486Y67059D01*
X40568Y67115D01*
X40634Y67166D01*
X40690Y67218D01*
X40731Y67259D01*
X40764Y67296D01*
X40779Y67318D01*
X40786Y67322D01*
Y67326D01*
X40827Y67400D01*
X40856Y67474D01*
X40879Y67548D01*
X40893Y67618D01*
X40901Y67677D01*
X40905Y67703D01*
Y67725D01*
X40908Y67740D01*
Y67766D01*
X40905Y67825D01*
X40901Y67880D01*
X40879Y67984D01*
X40849Y68077D01*
X40830Y68114D01*
X40812Y68151D01*
X40797Y68184D01*
X40779Y68210D01*
X40764Y68236D01*
X40749Y68254D01*
X40738Y68269D01*
X40727Y68284D01*
X40723Y68287D01*
X40720Y68291D01*
X40683Y68328D01*
X40646Y68358D01*
X40605Y68387D01*
X40564Y68410D01*
X40486Y68447D01*
X40409Y68469D01*
X40342Y68484D01*
X40316Y68487D01*
X40290Y68491D01*
X40272Y68495D01*
X40908D01*
D02*
G37*
G36*
X37586Y68017D02*
D01*
Y67181D01*
X37582Y67248D01*
X37574Y67311D01*
X37567Y67374D01*
X37552Y67429D01*
X37534Y67481D01*
X37515Y67533D01*
X37497Y67577D01*
X37475Y67618D01*
X37456Y67655D01*
X37438Y67688D01*
X37419Y67714D01*
X37401Y67740D01*
X37386Y67758D01*
X37378Y67769D01*
X37371Y67777D01*
X37367Y67781D01*
X37323Y67821D01*
X37279Y67858D01*
X37234Y67892D01*
X37190Y67918D01*
X37145Y67940D01*
X37097Y67958D01*
X37012Y67988D01*
X36975Y67999D01*
X36938Y68006D01*
X36909Y68010D01*
X36879Y68014D01*
X36857Y68017D01*
X37586D01*
X36857D01*
D01*
X35099D01*
X36827D01*
X36749Y68014D01*
X36675Y67999D01*
X36612Y67980D01*
X36557Y67958D01*
X36513Y67932D01*
X36479Y67914D01*
X36457Y67899D01*
X36450Y67895D01*
X36394Y67847D01*
X36346Y67792D01*
X36305Y67736D01*
X36276Y67681D01*
X36254Y67633D01*
X36235Y67596D01*
X36231Y67581D01*
X36228Y67570D01*
X36224Y67562D01*
Y67559D01*
X36191Y67618D01*
X36157Y67666D01*
X36120Y67710D01*
X36087Y67744D01*
X36057Y67769D01*
X36035Y67792D01*
X36020Y67803D01*
X36013Y67807D01*
X35965Y67836D01*
X35913Y67858D01*
X35865Y67873D01*
X35821Y67884D01*
X35780Y67892D01*
X35750Y67895D01*
X35732D01*
X35724D01*
X35676Y67892D01*
X35632Y67888D01*
X35547Y67866D01*
X35473Y67832D01*
X35410Y67795D01*
X35355Y67758D01*
X35318Y67725D01*
X35303Y67714D01*
X35292Y67703D01*
X35288Y67699D01*
X35284Y67695D01*
X35251Y67659D01*
X35221Y67618D01*
X35199Y67577D01*
X35177Y67536D01*
X35144Y67455D01*
X35121Y67381D01*
X35110Y67314D01*
X35103Y67285D01*
Y67259D01*
X35099Y67240D01*
Y67211D01*
X35103Y67152D01*
X35110Y67092D01*
X35121Y67037D01*
X35133Y66989D01*
X35170Y66893D01*
X35192Y66852D01*
X35210Y66815D01*
X35232Y66782D01*
X35255Y66752D01*
X35273Y66726D01*
X35288Y66704D01*
X35303Y66689D01*
X35314Y66678D01*
X35321Y66671D01*
X35325Y66667D01*
X35388Y66615D01*
X35458Y66574D01*
X35528Y66541D01*
X35595Y66519D01*
X35654Y66500D01*
X35676Y66493D01*
X35699Y66489D01*
X35717Y66486D01*
X35732Y66482D01*
X35739D01*
X35743D01*
Y66915D01*
X35710Y66926D01*
X35680Y66941D01*
X35654Y66959D01*
X35632Y66978D01*
X35614Y66992D01*
X35602Y67007D01*
X35595Y67015D01*
X35591Y67018D01*
X35573Y67048D01*
X35558Y67081D01*
X35547Y67111D01*
X35539Y67137D01*
X35536Y67163D01*
X35532Y67181D01*
Y67196D01*
X35536Y67237D01*
X35543Y67270D01*
X35554Y67300D01*
X35565Y67326D01*
X35577Y67348D01*
X35588Y67362D01*
X35595Y67370D01*
X35599Y67374D01*
X35625Y67396D01*
X35651Y67414D01*
X35676Y67425D01*
X35702Y67436D01*
X35724Y67440D01*
X35743Y67444D01*
X35754D01*
X35758D01*
X35784D01*
X35810Y67436D01*
X35854Y67422D01*
X35873Y67414D01*
X35887Y67407D01*
X35895Y67403D01*
X35898Y67400D01*
X35943Y67362D01*
X35976Y67322D01*
X35987Y67303D01*
X35995Y67289D01*
X36002Y67277D01*
Y67274D01*
X36013Y67240D01*
X36024Y67203D01*
X36032Y67163D01*
X36039Y67122D01*
X36043Y67089D01*
X36046Y67059D01*
X36050Y67041D01*
Y67033D01*
X36435D01*
X36442Y67126D01*
X36453Y67203D01*
X36472Y67274D01*
X36494Y67329D01*
X36513Y67374D01*
X36531Y67407D01*
X36546Y67425D01*
X36550Y67433D01*
X36594Y67481D01*
X36638Y67514D01*
X36687Y67540D01*
X36727Y67555D01*
X36764Y67566D01*
X36797Y67570D01*
X36816Y67573D01*
X36820D01*
X36823D01*
X36875Y67570D01*
X36923Y67559D01*
X36968Y67540D01*
X37001Y67522D01*
X37031Y67503D01*
X37053Y67485D01*
X37068Y67474D01*
X37071Y67470D01*
X37105Y67429D01*
X37130Y67385D01*
X37145Y67340D01*
X37160Y67300D01*
X37168Y67263D01*
X37171Y67233D01*
Y67207D01*
X37168Y67155D01*
X37156Y67107D01*
X37142Y67063D01*
X37127Y67030D01*
X37112Y67000D01*
X37097Y66978D01*
X37086Y66963D01*
X37082Y66959D01*
X37045Y66926D01*
X37001Y66896D01*
X36957Y66874D01*
X36912Y66859D01*
X36871Y66848D01*
X36838Y66841D01*
X36816Y66833D01*
X36812D01*
X36809D01*
Y66386D01*
X35099D01*
D01*
X36809D01*
X36875Y66393D01*
X36938Y66400D01*
X36997Y66415D01*
X37049Y66430D01*
X37101Y66449D01*
X37149Y66467D01*
X37190Y66489D01*
X37230Y66508D01*
X37264Y66530D01*
X37293Y66549D01*
X37319Y66567D01*
X37341Y66585D01*
X37356Y66600D01*
X37367Y66611D01*
X37375Y66615D01*
X37378Y66619D01*
X37415Y66659D01*
X37445Y66708D01*
X37475Y66752D01*
X37497Y66800D01*
X37534Y66893D01*
X37560Y66981D01*
X37567Y67022D01*
X37574Y67059D01*
X37578Y67096D01*
X37582Y67126D01*
X37586Y67148D01*
Y66386D01*
X37456D01*
X37586D01*
Y68017D01*
D02*
G37*
G36*
X40849Y66907D02*
Y66474D01*
X38925D01*
Y66907D01*
X40849D01*
X38481D01*
Y65594D01*
X38925D01*
Y66016D01*
X40849D01*
Y66907D01*
D02*
G37*
G36*
X37526Y66190D02*
D01*
Y65335D01*
X35158Y66190D01*
Y65731D01*
X36842Y65124D01*
X35158Y64528D01*
Y64066D01*
X37526Y64902D01*
Y64839D01*
D01*
Y66190D01*
D02*
G37*
G36*
Y64839D02*
Y64066D01*
X35158D01*
X37526D01*
Y64839D01*
D02*
G37*
G36*
X40849Y65287D02*
X38481D01*
Y64839D01*
X40042D01*
X38481Y63818D01*
Y63392D01*
X40849D01*
Y65287D01*
D02*
G37*
G36*
X37586Y63862D02*
D01*
Y63026D01*
X37582Y63093D01*
X37574Y63156D01*
X37567Y63218D01*
X37552Y63274D01*
X37534Y63326D01*
X37515Y63378D01*
X37497Y63422D01*
X37475Y63463D01*
X37456Y63500D01*
X37438Y63533D01*
X37419Y63559D01*
X37401Y63585D01*
X37386Y63603D01*
X37378Y63614D01*
X37371Y63622D01*
X37367Y63626D01*
X37323Y63666D01*
X37279Y63703D01*
X37234Y63736D01*
X37190Y63762D01*
X37145Y63785D01*
X37097Y63803D01*
X37012Y63833D01*
X36975Y63844D01*
X36938Y63851D01*
X36909Y63855D01*
X36879Y63859D01*
X36857Y63862D01*
X37586D01*
X36857D01*
D01*
X35099D01*
X36827D01*
X36749Y63859D01*
X36675Y63844D01*
X36612Y63825D01*
X36557Y63803D01*
X36513Y63777D01*
X36479Y63759D01*
X36457Y63744D01*
X36450Y63740D01*
X36394Y63692D01*
X36346Y63637D01*
X36305Y63581D01*
X36276Y63526D01*
X36254Y63477D01*
X36235Y63441D01*
X36231Y63426D01*
X36228Y63415D01*
X36224Y63407D01*
Y63403D01*
X36191Y63463D01*
X36157Y63511D01*
X36120Y63555D01*
X36087Y63589D01*
X36057Y63614D01*
X36035Y63637D01*
X36020Y63648D01*
X36013Y63651D01*
X35965Y63681D01*
X35913Y63703D01*
X35865Y63718D01*
X35821Y63729D01*
X35780Y63736D01*
X35750Y63740D01*
X35732D01*
X35724D01*
X35676Y63736D01*
X35632Y63733D01*
X35547Y63711D01*
X35473Y63677D01*
X35410Y63640D01*
X35355Y63603D01*
X35318Y63570D01*
X35303Y63559D01*
X35292Y63548D01*
X35288Y63544D01*
X35284Y63540D01*
X35251Y63503D01*
X35221Y63463D01*
X35199Y63422D01*
X35177Y63381D01*
X35144Y63300D01*
X35121Y63226D01*
X35110Y63159D01*
X35103Y63130D01*
Y63104D01*
X35099Y63085D01*
Y63056D01*
X35103Y62997D01*
X35110Y62937D01*
X35121Y62882D01*
X35133Y62834D01*
X35170Y62738D01*
X35192Y62697D01*
X35210Y62660D01*
X35232Y62626D01*
X35255Y62597D01*
X35273Y62571D01*
X35288Y62549D01*
X35303Y62534D01*
X35314Y62523D01*
X35321Y62515D01*
X35325Y62512D01*
X35388Y62460D01*
X35458Y62419D01*
X35528Y62386D01*
X35595Y62364D01*
X35654Y62345D01*
X35676Y62338D01*
X35699Y62334D01*
X35717Y62331D01*
X35732Y62327D01*
X35739D01*
X35743D01*
Y62760D01*
X35710Y62771D01*
X35680Y62786D01*
X35654Y62804D01*
X35632Y62823D01*
X35614Y62837D01*
X35602Y62852D01*
X35595Y62860D01*
X35591Y62863D01*
X35573Y62893D01*
X35558Y62926D01*
X35547Y62956D01*
X35539Y62982D01*
X35536Y63008D01*
X35532Y63026D01*
Y63041D01*
X35536Y63082D01*
X35543Y63115D01*
X35554Y63144D01*
X35565Y63170D01*
X35577Y63193D01*
X35588Y63207D01*
X35595Y63215D01*
X35599Y63218D01*
X35625Y63241D01*
X35651Y63259D01*
X35676Y63270D01*
X35702Y63281D01*
X35724Y63285D01*
X35743Y63289D01*
X35754D01*
X35758D01*
X35784D01*
X35810Y63281D01*
X35854Y63267D01*
X35873Y63259D01*
X35887Y63252D01*
X35895Y63248D01*
X35898Y63244D01*
X35943Y63207D01*
X35976Y63167D01*
X35987Y63148D01*
X35995Y63133D01*
X36002Y63122D01*
Y63119D01*
X36013Y63085D01*
X36024Y63048D01*
X36032Y63008D01*
X36039Y62967D01*
X36043Y62934D01*
X36046Y62904D01*
X36050Y62885D01*
Y62878D01*
X36435D01*
X36442Y62971D01*
X36453Y63048D01*
X36472Y63119D01*
X36494Y63174D01*
X36513Y63218D01*
X36531Y63252D01*
X36546Y63270D01*
X36550Y63278D01*
X36594Y63326D01*
X36638Y63359D01*
X36687Y63385D01*
X36727Y63400D01*
X36764Y63411D01*
X36797Y63415D01*
X36816Y63418D01*
X36820D01*
X36823D01*
X36875Y63415D01*
X36923Y63403D01*
X36968Y63385D01*
X37001Y63367D01*
X37031Y63348D01*
X37053Y63329D01*
X37068Y63318D01*
X37071Y63315D01*
X37105Y63274D01*
X37130Y63230D01*
X37145Y63185D01*
X37160Y63144D01*
X37168Y63108D01*
X37171Y63078D01*
Y63052D01*
X37168Y63000D01*
X37156Y62952D01*
X37142Y62908D01*
X37127Y62874D01*
X37112Y62845D01*
X37097Y62823D01*
X37086Y62808D01*
X37082Y62804D01*
X37045Y62771D01*
X37001Y62741D01*
X36957Y62719D01*
X36912Y62704D01*
X36871Y62693D01*
X36838Y62686D01*
X36816Y62678D01*
X36812D01*
X36809D01*
Y62231D01*
X35099D01*
D01*
X36809D01*
X36875Y62238D01*
X36938Y62245D01*
X36997Y62260D01*
X37049Y62275D01*
X37101Y62293D01*
X37149Y62312D01*
X37190Y62334D01*
X37230Y62353D01*
X37264Y62375D01*
X37293Y62393D01*
X37319Y62412D01*
X37341Y62430D01*
X37356Y62445D01*
X37367Y62456D01*
X37375Y62460D01*
X37378Y62464D01*
X37415Y62504D01*
X37445Y62552D01*
X37475Y62597D01*
X37497Y62645D01*
X37534Y62738D01*
X37560Y62826D01*
X37567Y62867D01*
X37574Y62904D01*
X37578Y62941D01*
X37582Y62971D01*
X37586Y62993D01*
Y62231D01*
X37456D01*
X37586D01*
Y63862D01*
D02*
G37*
G36*
X40849Y62882D02*
X38481D01*
Y62434D01*
X40849D01*
Y62882D01*
D02*
G37*
G36*
X37948Y62060D02*
D01*
Y60991D01*
X35092Y62060D01*
Y61750D01*
X37948Y60680D01*
X35092D01*
X37948D01*
Y62060D01*
D02*
G37*
G36*
X37526Y60518D02*
D01*
Y59663D01*
X35158Y60518D01*
Y60059D01*
X36842Y59452D01*
X35158Y58856D01*
Y58394D01*
X37526Y59230D01*
Y58394D01*
X35158D01*
X37526D01*
Y60518D01*
D02*
G37*
G36*
X40908Y62038D02*
X38422D01*
Y59581D01*
D01*
Y60751D01*
X38429Y60691D01*
X38448Y60577D01*
X38477Y60469D01*
X38492Y60421D01*
X38507Y60377D01*
X38522Y60336D01*
X38537Y60299D01*
X38551Y60270D01*
X38566Y60244D01*
X38577Y60221D01*
X38585Y60207D01*
X38588Y60196D01*
X38592Y60192D01*
X38659Y60092D01*
X38733Y60003D01*
X38807Y59926D01*
X38881Y59863D01*
X38943Y59811D01*
X38973Y59792D01*
X38995Y59774D01*
X39018Y59763D01*
X39032Y59752D01*
X39040Y59748D01*
X39043Y59744D01*
X39095Y59715D01*
X39151Y59692D01*
X39258Y59652D01*
X39365Y59622D01*
X39458Y59604D01*
X39502Y59596D01*
X39543Y59589D01*
X39576Y59585D01*
X39606D01*
X39632Y59581D01*
X39665D01*
X39757Y59585D01*
X39846Y59596D01*
X39935Y59615D01*
X40016Y59637D01*
X40094Y59663D01*
X40165Y59692D01*
X40231Y59726D01*
X40294Y59759D01*
X40350Y59789D01*
X40398Y59822D01*
X40442Y59851D01*
X40475Y59877D01*
X40505Y59900D01*
X40523Y59918D01*
X40538Y59929D01*
X40542Y59933D01*
X40605Y60000D01*
X40664Y60074D01*
X40712Y60144D01*
X40753Y60218D01*
X40790Y60295D01*
X40819Y60366D01*
X40842Y60440D01*
X40864Y60506D01*
X40879Y60573D01*
X40890Y60628D01*
X40897Y60684D01*
X40901Y60728D01*
X40905Y60765D01*
X40908Y60795D01*
Y60817D01*
X40905Y60910D01*
X40893Y60998D01*
X40875Y61084D01*
X40853Y61165D01*
X40827Y61243D01*
X40797Y61313D01*
X40764Y61380D01*
X40731Y61439D01*
X40697Y61494D01*
X40664Y61539D01*
X40634Y61583D01*
X40609Y61616D01*
X40586Y61642D01*
X40568Y61664D01*
X40557Y61676D01*
X40553Y61679D01*
X40483Y61742D01*
X40412Y61798D01*
X40338Y61846D01*
X40264Y61887D01*
X40190Y61923D01*
X40116Y61949D01*
X40046Y61975D01*
X39979Y61994D01*
X39913Y62009D01*
X39857Y62020D01*
X39806Y62027D01*
X39761Y62034D01*
X39724D01*
X39695Y62038D01*
X40908D01*
D02*
G37*
G36*
X40849Y59259D02*
X38481D01*
Y57850D01*
X40849D01*
Y58297D01*
X39846D01*
Y58416D01*
X39843Y58468D01*
X39839Y58516D01*
Y58560D01*
X39835Y58601D01*
X39832Y58634D01*
X39828Y58664D01*
X39824Y58693D01*
X39820Y58716D01*
X39817Y58734D01*
Y58749D01*
X39809Y58767D01*
Y58775D01*
X39780Y58852D01*
X39746Y58923D01*
X39709Y58982D01*
X39672Y59034D01*
X39639Y59074D01*
X39610Y59104D01*
X39591Y59119D01*
X39584Y59126D01*
X39517Y59171D01*
X39447Y59204D01*
X39380Y59226D01*
X39314Y59245D01*
X39258Y59252D01*
X39232Y59256D01*
X39210D01*
X39191Y59259D01*
X40849D01*
D02*
G37*
G36*
X37586Y58149D02*
D01*
Y57339D01*
X37582Y57402D01*
X37574Y57461D01*
X37563Y57517D01*
X37549Y57572D01*
X37512Y57669D01*
X37489Y57713D01*
X37467Y57754D01*
X37449Y57787D01*
X37426Y57820D01*
X37408Y57846D01*
X37389Y57872D01*
X37375Y57890D01*
X37364Y57902D01*
X37356Y57909D01*
X37352Y57913D01*
X37308Y57953D01*
X37260Y57990D01*
X37212Y58024D01*
X37160Y58050D01*
X37112Y58072D01*
X37064Y58090D01*
X36971Y58120D01*
X36931Y58131D01*
X36890Y58138D01*
X36857Y58142D01*
X36827Y58146D01*
X36801Y58149D01*
X37586D01*
X36768D01*
X36705Y58146D01*
X36646Y58142D01*
X36590Y58131D01*
X36538Y58116D01*
X36487Y58101D01*
X36442Y58083D01*
X36398Y58061D01*
X36361Y58042D01*
X36328Y58024D01*
X36294Y58002D01*
X36268Y57983D01*
X36250Y57968D01*
X36231Y57953D01*
X36220Y57946D01*
X36213Y57939D01*
X36209Y57935D01*
X36169Y57894D01*
X36135Y57850D01*
X36106Y57805D01*
X36080Y57761D01*
X36057Y57717D01*
X36043Y57672D01*
X36013Y57587D01*
X36006Y57550D01*
X35998Y57513D01*
X35995Y57484D01*
X35991Y57454D01*
X35987Y57432D01*
Y57376D01*
X35991Y57350D01*
X35995Y57332D01*
Y57324D01*
X36002Y57298D01*
X36006Y57273D01*
X36009Y57254D01*
X36013Y57250D01*
Y57247D01*
X35577Y57343D01*
Y58116D01*
X35158D01*
Y57006D01*
X36476Y56721D01*
X36557Y57088D01*
X36509Y57139D01*
X36472Y57184D01*
X36461Y57202D01*
X36453Y57217D01*
X36446Y57225D01*
Y57228D01*
X36424Y57284D01*
X36413Y57332D01*
X36409Y57350D01*
Y57376D01*
X36413Y57424D01*
X36424Y57469D01*
X36442Y57509D01*
X36461Y57543D01*
X36483Y57572D01*
X36498Y57591D01*
X36513Y57606D01*
X36516Y57609D01*
X36557Y57643D01*
X36601Y57669D01*
X36646Y57683D01*
X36687Y57698D01*
X36727Y57705D01*
X36757Y57709D01*
X36775D01*
X36779D01*
X36783D01*
X36842Y57705D01*
X36897Y57694D01*
X36946Y57676D01*
X36986Y57657D01*
X37016Y57635D01*
X37042Y57620D01*
X37056Y57606D01*
X37060Y57602D01*
X37093Y57561D01*
X37119Y57521D01*
X37138Y57476D01*
X37149Y57439D01*
X37156Y57402D01*
X37164Y57376D01*
Y57350D01*
X37160Y57310D01*
X37156Y57273D01*
X37145Y57239D01*
X37134Y57210D01*
X37127Y57184D01*
X37116Y57165D01*
X37112Y57154D01*
X37108Y57151D01*
X37086Y57121D01*
X37056Y57091D01*
X37031Y57065D01*
X37001Y57047D01*
X36979Y57032D01*
X36957Y57021D01*
X36942Y57014D01*
X36938Y57010D01*
Y56536D01*
D01*
X37045Y56566D01*
X37142Y56610D01*
X37223Y56655D01*
X37290Y56703D01*
X37345Y56747D01*
X37367Y56766D01*
X37382Y56784D01*
X37397Y56799D01*
X37408Y56810D01*
X37412Y56814D01*
X37415Y56818D01*
X37445Y56858D01*
X37471Y56903D01*
X37515Y56991D01*
X37545Y57080D01*
X37563Y57162D01*
X37578Y57232D01*
X37582Y57262D01*
Y57287D01*
X37586Y57310D01*
Y56536D01*
D01*
D01*
Y58149D01*
D02*
G37*
G36*
X40849Y56629D02*
Y56196D01*
X38925D01*
Y56629D01*
X40849D01*
X38481D01*
Y55315D01*
X38925D01*
Y55737D01*
X40849D01*
Y56629D01*
D02*
G37*
G36*
X37948Y56388D02*
D01*
Y55319D01*
X35092Y56388D01*
Y56077D01*
X37948Y55008D01*
X35092D01*
X37948D01*
Y56388D01*
D02*
G37*
G36*
X40908Y55119D02*
X40242D01*
X40187Y55115D01*
X40135Y55112D01*
X40087Y55101D01*
X40046Y55090D01*
X40013Y55079D01*
X39987Y55071D01*
X39972Y55064D01*
X39965Y55060D01*
X39917Y55034D01*
X39872Y55008D01*
X39828Y54975D01*
X39787Y54942D01*
X39750Y54916D01*
X39724Y54890D01*
X39709Y54875D01*
X39702Y54868D01*
X39691Y54856D01*
X39676Y54838D01*
X39635Y54794D01*
X39591Y54746D01*
X39547Y54690D01*
X39502Y54638D01*
X39465Y54594D01*
X39450Y54579D01*
X39439Y54564D01*
X39436Y54557D01*
X39432Y54553D01*
X39391Y54505D01*
X39351Y54461D01*
X39317Y54420D01*
X39288Y54387D01*
X39258Y54357D01*
X39232Y54327D01*
X39191Y54287D01*
X39162Y54257D01*
X39143Y54239D01*
X39132Y54228D01*
X39129Y54224D01*
X39088Y54202D01*
X39051Y54190D01*
X39036D01*
X39025Y54187D01*
X39018D01*
X39014D01*
X38992Y54190D01*
X38973Y54194D01*
X38936Y54216D01*
X38914Y54235D01*
X38910Y54239D01*
X38906Y54242D01*
X38892Y54264D01*
X38877Y54287D01*
X38866Y54335D01*
X38862Y54357D01*
X38858Y54372D01*
Y54387D01*
X38862Y54420D01*
X38870Y54453D01*
X38881Y54487D01*
X38895Y54520D01*
X38936Y54579D01*
X38980Y54631D01*
X39025Y54679D01*
X39066Y54712D01*
X39080Y54723D01*
X39092Y54734D01*
X39099Y54738D01*
X39103Y54742D01*
X38807Y55079D01*
X38733Y55008D01*
X38666Y54945D01*
X38614Y54886D01*
X38574Y54831D01*
X38544Y54790D01*
X38522Y54757D01*
X38511Y54734D01*
X38507Y54731D01*
Y54727D01*
X38477Y54668D01*
X38459Y54609D01*
X38444Y54549D01*
X38433Y54498D01*
X38425Y54453D01*
X38422Y54420D01*
Y55119D01*
X40210D01*
X38422D01*
Y53632D01*
D01*
Y54390D01*
X38425Y54339D01*
X38429Y54290D01*
X38448Y54202D01*
X38477Y54124D01*
X38511Y54057D01*
X38544Y54002D01*
X38559Y53980D01*
X38570Y53961D01*
X38585Y53946D01*
X38592Y53935D01*
X38596Y53931D01*
X38599Y53928D01*
X38633Y53895D01*
X38670Y53869D01*
X38703Y53843D01*
X38740Y53821D01*
X38810Y53787D01*
X38877Y53765D01*
X38936Y53754D01*
X38958Y53750D01*
X38980Y53746D01*
X38999Y53743D01*
X39010D01*
X39018D01*
X39021D01*
X39084Y53746D01*
X39147Y53761D01*
X39206Y53780D01*
X39258Y53798D01*
X39302Y53821D01*
X39336Y53835D01*
X39358Y53850D01*
X39362Y53854D01*
X39365D01*
X39399Y53876D01*
X39436Y53906D01*
X39473Y53943D01*
X39513Y53980D01*
X39595Y54061D01*
X39672Y54146D01*
X39743Y54224D01*
X39772Y54261D01*
X39798Y54290D01*
X39820Y54316D01*
X39835Y54335D01*
X39846Y54350D01*
X39850Y54353D01*
X39909Y54424D01*
X39957Y54479D01*
X40002Y54523D01*
X40035Y54557D01*
X40065Y54583D01*
X40083Y54601D01*
X40094Y54609D01*
X40098Y54612D01*
X40128Y54634D01*
X40157Y54649D01*
X40183Y54660D01*
X40205Y54668D01*
X40227Y54672D01*
X40242Y54675D01*
X40253D01*
X40257D01*
X40290Y54672D01*
X40320Y54664D01*
X40346Y54649D01*
X40368Y54634D01*
X40387Y54620D01*
X40401Y54605D01*
X40409Y54598D01*
X40412Y54594D01*
X40435Y54564D01*
X40449Y54531D01*
X40464Y54498D01*
X40472Y54468D01*
X40475Y54442D01*
X40479Y54420D01*
Y54401D01*
X40475Y54361D01*
X40464Y54320D01*
X40449Y54283D01*
X40431Y54246D01*
X40379Y54179D01*
X40320Y54124D01*
X40264Y54076D01*
X40213Y54039D01*
X40194Y54028D01*
X40179Y54017D01*
X40168Y54013D01*
X40165Y54009D01*
X40394Y53632D01*
X40486Y53684D01*
X40568Y53739D01*
X40634Y53791D01*
X40690Y53843D01*
X40731Y53883D01*
X40764Y53920D01*
X40779Y53943D01*
X40786Y53946D01*
Y53950D01*
X40827Y54024D01*
X40856Y54098D01*
X40879Y54172D01*
X40893Y54242D01*
X40901Y54302D01*
X40905Y54327D01*
Y54350D01*
X40908Y54364D01*
Y54390D01*
X40905Y54449D01*
X40901Y54505D01*
X40879Y54609D01*
X40849Y54701D01*
X40830Y54738D01*
X40812Y54775D01*
X40797Y54808D01*
X40779Y54834D01*
X40764Y54860D01*
X40749Y54879D01*
X40738Y54893D01*
X40727Y54908D01*
X40723Y54912D01*
X40720Y54916D01*
X40683Y54953D01*
X40646Y54982D01*
X40605Y55012D01*
X40564Y55034D01*
X40486Y55071D01*
X40409Y55093D01*
X40342Y55108D01*
X40316Y55112D01*
X40290Y55115D01*
X40272Y55119D01*
X40908D01*
D02*
G37*
G36*
X37526Y54845D02*
D01*
Y53991D01*
X35158Y54845D01*
Y54387D01*
X36842Y53780D01*
X35158Y53184D01*
Y52722D01*
X37526Y53558D01*
Y52722D01*
X35158D01*
X37526D01*
Y54845D01*
D02*
G37*
G36*
X40849Y53417D02*
X39942D01*
X40405D01*
Y52574D01*
X39783D01*
Y53417D01*
X38481D01*
Y52126D01*
X40849D01*
Y53417D01*
D02*
G37*
G36*
X35876Y52470D02*
X35835D01*
X35784Y52466D01*
X35732Y52463D01*
X35680Y52451D01*
X35632Y52437D01*
X35547Y52403D01*
X35473Y52363D01*
X35440Y52344D01*
X35410Y52322D01*
X35384Y52303D01*
X35366Y52289D01*
X35347Y52274D01*
X35336Y52267D01*
X35329Y52259D01*
X35325Y52255D01*
X35284Y52215D01*
X35251Y52170D01*
X35221Y52126D01*
X35195Y52082D01*
X35173Y52037D01*
X35155Y51993D01*
X35129Y51908D01*
X35118Y51867D01*
X35110Y51834D01*
X35107Y51800D01*
X35103Y51774D01*
X35099Y51749D01*
Y50983D01*
X37586D01*
X35839D01*
X35898Y50986D01*
X35954Y50990D01*
X36057Y51016D01*
X36150Y51049D01*
X36191Y51068D01*
X36228Y51086D01*
X36261Y51105D01*
X36291Y51123D01*
X36316Y51142D01*
X36339Y51157D01*
X36353Y51171D01*
X36365Y51182D01*
X36372Y51186D01*
X36376Y51190D01*
X36413Y51231D01*
X36446Y51271D01*
X36476Y51316D01*
X36498Y51360D01*
X36520Y51404D01*
X36538Y51445D01*
X36564Y51526D01*
X36579Y51597D01*
X36583Y51626D01*
X36587Y51652D01*
X36590Y51674D01*
Y51704D01*
X37397Y51290D01*
X37586Y51674D01*
X36398Y52285D01*
X36316Y52326D01*
X36246Y52359D01*
X36187Y52385D01*
X36139Y52407D01*
X36102Y52418D01*
X36076Y52429D01*
X36061Y52437D01*
X36057D01*
X35976Y52455D01*
X35939Y52463D01*
X35906Y52466D01*
X35876Y52470D01*
D02*
G37*
G36*
X40849Y51819D02*
X38481D01*
Y50505D01*
X38925D01*
Y50927D01*
X40849D01*
Y51386D01*
X38925D01*
Y51819D01*
X40849D01*
D02*
G37*
%LPD*%
G36*
Y63840D02*
X39299D01*
X40849Y64854D01*
Y63840D01*
D02*
G37*
G36*
X39576Y62034D02*
X39484Y62023D01*
X39399Y62005D01*
X39314Y61983D01*
X39236Y61953D01*
X39162Y61923D01*
X39095Y61890D01*
X39036Y61857D01*
X38980Y61824D01*
X38929Y61790D01*
X38888Y61761D01*
X38851Y61731D01*
X38825Y61709D01*
X38803Y61690D01*
X38792Y61679D01*
X38788Y61676D01*
X38725Y61605D01*
X38666Y61535D01*
X38618Y61461D01*
X38577Y61387D01*
X38540Y61317D01*
X38511Y61243D01*
X38488Y61176D01*
X38466Y61110D01*
X38451Y61047D01*
X38440Y60991D01*
X38433Y60939D01*
X38429Y60899D01*
X38425Y60862D01*
X38422Y60836D01*
Y62038D01*
X39672D01*
X39576Y62034D01*
D02*
G37*
G36*
X39732Y61583D02*
X39791Y61576D01*
X39846Y61565D01*
X39902Y61554D01*
X39998Y61516D01*
X40042Y61494D01*
X40083Y61476D01*
X40120Y61454D01*
X40150Y61431D01*
X40179Y61413D01*
X40202Y61398D01*
X40220Y61383D01*
X40231Y61372D01*
X40238Y61365D01*
X40242Y61361D01*
X40283Y61317D01*
X40316Y61272D01*
X40350Y61228D01*
X40375Y61180D01*
X40398Y61135D01*
X40416Y61087D01*
X40442Y61002D01*
X40453Y60965D01*
X40461Y60928D01*
X40464Y60895D01*
X40468Y60869D01*
X40472Y60843D01*
Y60813D01*
X40468Y60762D01*
X40464Y60710D01*
X40442Y60617D01*
X40416Y60532D01*
X40383Y60458D01*
X40364Y60425D01*
X40350Y60399D01*
X40335Y60373D01*
X40320Y60351D01*
X40309Y60336D01*
X40301Y60325D01*
X40298Y60318D01*
X40294Y60314D01*
X40250Y60266D01*
X40202Y60221D01*
X40150Y60185D01*
X40102Y60151D01*
X40050Y60125D01*
X39998Y60103D01*
X39946Y60085D01*
X39898Y60070D01*
X39850Y60055D01*
X39809Y60048D01*
X39769Y60040D01*
X39735Y60036D01*
X39709D01*
X39691Y60033D01*
X39676D01*
X39672D01*
X39606Y60036D01*
X39547Y60044D01*
X39487Y60055D01*
X39432Y60066D01*
X39380Y60085D01*
X39332Y60103D01*
X39288Y60122D01*
X39247Y60144D01*
X39210Y60166D01*
X39180Y60185D01*
X39151Y60203D01*
X39129Y60221D01*
X39110Y60233D01*
X39099Y60244D01*
X39092Y60251D01*
X39088Y60255D01*
X39047Y60299D01*
X39014Y60344D01*
X38980Y60388D01*
X38955Y60436D01*
X38932Y60480D01*
X38914Y60529D01*
X38888Y60614D01*
X38877Y60654D01*
X38870Y60691D01*
X38866Y60725D01*
X38862Y60751D01*
X38858Y60773D01*
Y60806D01*
X38862Y60865D01*
X38870Y60925D01*
X38881Y60976D01*
X38895Y61028D01*
X38932Y61124D01*
X38955Y61165D01*
X38977Y61206D01*
X38999Y61239D01*
X39021Y61269D01*
X39040Y61295D01*
X39058Y61317D01*
X39073Y61335D01*
X39084Y61346D01*
X39092Y61354D01*
X39095Y61357D01*
X39140Y61398D01*
X39188Y61431D01*
X39236Y61465D01*
X39284Y61491D01*
X39332Y61513D01*
X39380Y61531D01*
X39469Y61557D01*
X39510Y61568D01*
X39550Y61576D01*
X39584Y61579D01*
X39613Y61583D01*
X39635Y61587D01*
X39654D01*
X39665D01*
X39669D01*
X39732Y61583D01*
D02*
G37*
G36*
X39088Y59256D02*
X39018Y59245D01*
X38951Y59226D01*
X38895Y59211D01*
X38851Y59193D01*
X38818Y59174D01*
X38796Y59163D01*
X38788Y59160D01*
X38733Y59119D01*
X38684Y59074D01*
X38644Y59030D01*
X38611Y58986D01*
X38585Y58945D01*
X38570Y58915D01*
X38559Y58893D01*
X38555Y58890D01*
Y58886D01*
X38540Y58852D01*
X38529Y58812D01*
X38511Y58727D01*
X38500Y58634D01*
X38488Y58542D01*
Y58501D01*
X38485Y58460D01*
Y58423D01*
X38481Y58390D01*
Y59259D01*
X39169D01*
X39088Y59256D01*
D02*
G37*
G36*
X39221Y58815D02*
X39265Y58804D01*
X39280Y58797D01*
X39291Y58790D01*
X39299Y58786D01*
X39302Y58782D01*
X39339Y58749D01*
X39365Y58716D01*
X39373Y58701D01*
X39380Y58690D01*
X39384Y58682D01*
Y58679D01*
X39391Y58649D01*
X39395Y58612D01*
X39402Y58534D01*
X39406Y58501D01*
Y58297D01*
X38921D01*
Y58423D01*
X38925Y58497D01*
X38929Y58556D01*
X38936Y58608D01*
X38943Y58645D01*
X38955Y58675D01*
X38962Y58697D01*
X38966Y58708D01*
X38969Y58712D01*
X38995Y58749D01*
X39029Y58775D01*
X39062Y58797D01*
X39092Y58808D01*
X39121Y58815D01*
X39147Y58823D01*
X39162D01*
X39169D01*
X39199D01*
X39221Y58815D01*
D02*
G37*
G36*
X39347Y52574D02*
X38918D01*
Y53417D01*
X39347D01*
Y52574D01*
D02*
G37*
G36*
X35895Y52026D02*
X35939Y52015D01*
X35980Y52000D01*
X36013Y51985D01*
X36039Y51970D01*
X36057Y51956D01*
X36072Y51945D01*
X36076Y51941D01*
X36106Y51908D01*
X36128Y51871D01*
X36143Y51837D01*
X36154Y51804D01*
X36161Y51774D01*
X36165Y51752D01*
Y51730D01*
X36161Y51682D01*
X36150Y51638D01*
X36135Y51600D01*
X36120Y51571D01*
X36106Y51545D01*
X36091Y51523D01*
X36080Y51512D01*
X36076Y51508D01*
X36039Y51478D01*
X36002Y51460D01*
X35961Y51445D01*
X35928Y51434D01*
X35895Y51427D01*
X35869Y51423D01*
X35854D01*
X35847D01*
X35798Y51427D01*
X35754Y51438D01*
X35713Y51452D01*
X35680Y51467D01*
X35654Y51482D01*
X35632Y51497D01*
X35621Y51508D01*
X35617Y51512D01*
X35584Y51545D01*
X35562Y51582D01*
X35543Y51619D01*
X35532Y51656D01*
X35525Y51686D01*
X35521Y51708D01*
Y51730D01*
X35525Y51774D01*
X35536Y51811D01*
X35551Y51848D01*
X35569Y51878D01*
X35588Y51904D01*
X35602Y51922D01*
X35614Y51933D01*
X35617Y51937D01*
X35654Y51967D01*
X35691Y51989D01*
X35732Y52008D01*
X35765Y52019D01*
X35798Y52026D01*
X35824Y52030D01*
X35839D01*
X35847D01*
X35895Y52026D01*
D02*
G37*
G36*
X35103Y51663D02*
X35110Y51608D01*
X35118Y51560D01*
X35133Y51508D01*
X35170Y51419D01*
X35206Y51345D01*
X35229Y51312D01*
X35247Y51282D01*
X35266Y51256D01*
X35284Y51238D01*
X35299Y51219D01*
X35306Y51208D01*
X35314Y51201D01*
X35318Y51197D01*
X35358Y51160D01*
X35403Y51127D01*
X35447Y51097D01*
X35488Y51075D01*
X35532Y51053D01*
X35577Y51034D01*
X35658Y51008D01*
X35732Y50994D01*
X35761Y50990D01*
X35787Y50986D01*
X35810Y50983D01*
X35099D01*
Y51719D01*
X35103Y51663D01*
D02*
G37*
%LPC*%
G36*
X66334Y40865D02*
X64103D01*
D01*
X65207D01*
X65124Y40859D01*
X65041Y40848D01*
X64969Y40837D01*
X64891Y40815D01*
X64758Y40759D01*
X64647Y40704D01*
X64597Y40670D01*
X64552Y40643D01*
X64514Y40615D01*
X64486Y40587D01*
X64458Y40565D01*
X64441Y40554D01*
X64430Y40543D01*
X64425Y40537D01*
X64369Y40476D01*
X64319Y40410D01*
X64275Y40343D01*
X64242Y40282D01*
X64208Y40215D01*
X64181Y40149D01*
X64142Y40027D01*
X64120Y39916D01*
X64114Y39871D01*
X64109Y39832D01*
X64103Y39799D01*
Y39755D01*
X64109Y39666D01*
X64114Y39583D01*
X64153Y39427D01*
X64203Y39289D01*
X64231Y39228D01*
X64258Y39172D01*
X64286Y39122D01*
X64314Y39078D01*
X64341Y39039D01*
X64364Y39006D01*
X64386Y38983D01*
X64403Y38967D01*
X64408Y38956D01*
X64414Y38950D01*
X64475Y38895D01*
X64536Y38845D01*
X64602Y38800D01*
X64669Y38767D01*
X64736Y38734D01*
X64797Y38706D01*
X64919Y38667D01*
X65024Y38645D01*
X65069Y38639D01*
X65107Y38634D01*
X65141Y38628D01*
X65185D01*
X64564Y37418D01*
X65141Y37135D01*
D01*
X66057Y38917D01*
X66118Y39039D01*
X66167Y39144D01*
X66206Y39233D01*
X66240Y39305D01*
X66256Y39361D01*
X66273Y39400D01*
X66284Y39422D01*
Y39427D01*
X66312Y39549D01*
X66323Y39605D01*
X66328Y39655D01*
X66334Y39699D01*
Y38667D01*
Y39760D01*
X66328Y39838D01*
X66323Y39916D01*
X66306Y39994D01*
X66284Y40066D01*
X66234Y40193D01*
X66173Y40304D01*
X66145Y40354D01*
X66112Y40399D01*
X66084Y40437D01*
X66062Y40465D01*
X66040Y40493D01*
X66029Y40510D01*
X66018Y40521D01*
X66012Y40526D01*
X65951Y40587D01*
X65885Y40637D01*
X65818Y40682D01*
X65751Y40720D01*
X65685Y40754D01*
X65618Y40782D01*
X65490Y40820D01*
X65429Y40837D01*
X65379Y40848D01*
X65329Y40854D01*
X65291Y40859D01*
X65252Y40865D01*
X66334D01*
D02*
G37*
G36*
X69897Y40776D02*
X69209D01*
X68299Y38251D01*
X67405Y40776D01*
X68504D01*
X66711D01*
D01*
X67966Y37224D01*
X69897D01*
X68615D01*
X69897Y40776D01*
D02*
G37*
%LPD*%
G36*
X65291Y40227D02*
X65346Y40210D01*
X65402Y40188D01*
X65446Y40160D01*
X65485Y40132D01*
X65513Y40110D01*
X65529Y40093D01*
X65535Y40088D01*
X65579Y40032D01*
X65613Y39977D01*
X65640Y39916D01*
X65657Y39866D01*
X65668Y39816D01*
X65674Y39777D01*
Y39755D01*
Y39744D01*
X65668Y39672D01*
X65651Y39605D01*
X65629Y39544D01*
X65607Y39494D01*
X65585Y39455D01*
X65562Y39427D01*
X65546Y39405D01*
X65540Y39400D01*
X65490Y39355D01*
X65435Y39322D01*
X65385Y39300D01*
X65335Y39283D01*
X65291Y39272D01*
X65257Y39266D01*
X65224D01*
X65152Y39272D01*
X65085Y39289D01*
X65030Y39311D01*
X64985Y39333D01*
X64947Y39355D01*
X64913Y39377D01*
X64897Y39394D01*
X64891Y39400D01*
X64847Y39455D01*
X64819Y39511D01*
X64797Y39572D01*
X64780Y39622D01*
X64769Y39672D01*
X64763Y39710D01*
Y39733D01*
Y39744D01*
X64769Y39816D01*
X64786Y39882D01*
X64808Y39944D01*
X64830Y39994D01*
X64852Y40032D01*
X64874Y40066D01*
X64891Y40082D01*
X64897Y40088D01*
X64947Y40138D01*
X65002Y40171D01*
X65057Y40199D01*
X65113Y40215D01*
X65157Y40227D01*
X65191Y40232D01*
X65224D01*
X65291Y40227D01*
D02*
G37*
%LPC*%
G36*
X102431Y50184D02*
X101973D01*
X101366Y48500D01*
X100770Y50184D01*
X100308D01*
X101144Y47816D01*
X100308D01*
X102431D01*
X101577D01*
X102431Y50184D01*
D02*
G37*
G36*
X99335Y50243D02*
X99305D01*
X99249Y50239D01*
X99194Y50232D01*
X99146Y50225D01*
X99094Y50210D01*
X99005Y50173D01*
X98931Y50136D01*
X98898Y50114D01*
X98868Y50095D01*
X98842Y50077D01*
X98824Y50058D01*
X98805Y50043D01*
X98794Y50036D01*
X98787Y50029D01*
X98783Y50025D01*
X98746Y49984D01*
X98713Y49940D01*
X98683Y49895D01*
X98661Y49855D01*
X98639Y49810D01*
X98620Y49766D01*
X98594Y49685D01*
X98580Y49610D01*
X98576Y49581D01*
X98572Y49555D01*
X98569Y49533D01*
Y49503D01*
X98572Y49444D01*
X98576Y49389D01*
X98602Y49285D01*
X98635Y49192D01*
X98654Y49152D01*
X98672Y49115D01*
X98691Y49081D01*
X98709Y49052D01*
X98728Y49026D01*
X98743Y49004D01*
X98757Y48989D01*
X98768Y48978D01*
X98772Y48970D01*
X98776Y48967D01*
X98817Y48930D01*
X98857Y48896D01*
X98902Y48867D01*
X98946Y48845D01*
X98990Y48822D01*
X99031Y48804D01*
X99112Y48778D01*
X99183Y48763D01*
X99212Y48759D01*
X99238Y48756D01*
X99260Y48752D01*
X99290D01*
X98876Y47945D01*
X99260Y47757D01*
X98569D01*
X100056D01*
D01*
X99260D01*
X99871Y48945D01*
X99912Y49026D01*
X99945Y49096D01*
X99971Y49155D01*
X99993Y49204D01*
X100004Y49240D01*
X100015Y49266D01*
X100023Y49281D01*
Y49285D01*
X100041Y49366D01*
X100049Y49403D01*
X100052Y49437D01*
X100056Y49466D01*
Y49507D01*
X100052Y49559D01*
X100049Y49610D01*
X100038Y49662D01*
X100023Y49710D01*
X99989Y49795D01*
X99949Y49869D01*
X99930Y49903D01*
X99908Y49932D01*
X99889Y49958D01*
X99875Y49977D01*
X99860Y49995D01*
X99853Y50006D01*
X99845Y50014D01*
X99841Y50017D01*
X99801Y50058D01*
X99756Y50091D01*
X99712Y50121D01*
X99668Y50147D01*
X99623Y50169D01*
X99579Y50188D01*
X99494Y50214D01*
X99453Y50225D01*
X99420Y50232D01*
X99386Y50236D01*
X99360Y50239D01*
X99335Y50243D01*
D02*
G37*
%LPD*%
G36*
X99360Y49818D02*
X99397Y49807D01*
X99434Y49792D01*
X99464Y49773D01*
X99490Y49755D01*
X99508Y49740D01*
X99519Y49729D01*
X99523Y49725D01*
X99553Y49688D01*
X99575Y49651D01*
X99594Y49610D01*
X99605Y49577D01*
X99612Y49544D01*
X99616Y49518D01*
Y49503D01*
Y49496D01*
X99612Y49448D01*
X99601Y49403D01*
X99586Y49363D01*
X99571Y49329D01*
X99556Y49303D01*
X99542Y49285D01*
X99531Y49270D01*
X99527Y49266D01*
X99494Y49237D01*
X99457Y49215D01*
X99423Y49200D01*
X99390Y49189D01*
X99360Y49181D01*
X99338Y49178D01*
X99316D01*
X99268Y49181D01*
X99224Y49192D01*
X99186Y49207D01*
X99157Y49222D01*
X99131Y49237D01*
X99109Y49252D01*
X99098Y49263D01*
X99094Y49266D01*
X99064Y49303D01*
X99046Y49340D01*
X99031Y49381D01*
X99020Y49414D01*
X99013Y49448D01*
X99009Y49474D01*
Y49488D01*
Y49496D01*
X99013Y49544D01*
X99024Y49588D01*
X99038Y49629D01*
X99053Y49662D01*
X99068Y49688D01*
X99083Y49710D01*
X99094Y49722D01*
X99098Y49725D01*
X99131Y49758D01*
X99168Y49781D01*
X99205Y49799D01*
X99242Y49810D01*
X99272Y49818D01*
X99294Y49821D01*
X99316D01*
X99360Y49818D01*
D02*
G37*
%LPC*%
G36*
X218098Y156776D02*
X217410D01*
X216500Y154251D01*
X215606Y156776D01*
X214913D01*
X216167Y153224D01*
X214913D01*
D01*
X218098D01*
D01*
X216816D01*
X218098Y156776D01*
D02*
G37*
G36*
X219675Y156865D02*
X219630D01*
X219541Y156859D01*
X219453Y156848D01*
X219369Y156832D01*
X219297Y156815D01*
X219153Y156759D01*
X219092Y156726D01*
X219036Y156698D01*
X218986Y156665D01*
X218942Y156632D01*
X218903Y156604D01*
X218870Y156582D01*
X218848Y156560D01*
X218831Y156543D01*
X218820Y156532D01*
X218814Y156526D01*
X218737Y156432D01*
X218676Y156326D01*
X218626Y156221D01*
X218592Y156121D01*
X218565Y156032D01*
X218553Y155999D01*
X218548Y155966D01*
X218542Y155938D01*
X218537Y155916D01*
Y155905D01*
Y155899D01*
X219186D01*
X219203Y155949D01*
X219225Y155993D01*
X219253Y156032D01*
X219281Y156066D01*
X219303Y156093D01*
X219325Y156110D01*
X219336Y156121D01*
X219342Y156127D01*
X219386Y156154D01*
X219436Y156177D01*
X219480Y156193D01*
X219519Y156204D01*
X219558Y156210D01*
X219586Y156216D01*
X219608D01*
X219669Y156210D01*
X219719Y156199D01*
X219763Y156182D01*
X219802Y156166D01*
X219836Y156149D01*
X219858Y156132D01*
X219869Y156121D01*
X219874Y156116D01*
X219908Y156077D01*
X219935Y156038D01*
X219952Y155999D01*
X219969Y155960D01*
X219974Y155927D01*
X219980Y155899D01*
Y155882D01*
Y155877D01*
Y155838D01*
X219969Y155799D01*
X219947Y155733D01*
X219935Y155705D01*
X219924Y155683D01*
X219919Y155672D01*
X219913Y155666D01*
X219858Y155599D01*
X219797Y155550D01*
X219769Y155533D01*
X219747Y155522D01*
X219730Y155511D01*
X219724D01*
X219675Y155494D01*
X219619Y155477D01*
X219558Y155466D01*
X219497Y155455D01*
X219447Y155449D01*
X219403Y155444D01*
X219375Y155438D01*
X219364D01*
Y154861D01*
X219503Y154850D01*
X219619Y154833D01*
X219724Y154806D01*
X219808Y154772D01*
X219874Y154745D01*
X219924Y154717D01*
X219952Y154695D01*
X219963Y154689D01*
X220035Y154623D01*
X220085Y154556D01*
X220124Y154484D01*
X220146Y154423D01*
X220163Y154367D01*
X220169Y154317D01*
X220174Y154290D01*
Y154284D01*
Y154279D01*
X220169Y154201D01*
X220152Y154129D01*
X220124Y154062D01*
X220096Y154012D01*
X220069Y153968D01*
X220041Y153934D01*
X220024Y153912D01*
X220019Y153907D01*
X219958Y153857D01*
X219891Y153818D01*
X219824Y153796D01*
X219763Y153773D01*
X219708Y153762D01*
X219664Y153757D01*
X219625D01*
X219547Y153762D01*
X219475Y153779D01*
X219408Y153801D01*
X219358Y153823D01*
X219314Y153846D01*
X219281Y153868D01*
X219258Y153884D01*
X219253Y153890D01*
X219203Y153946D01*
X219158Y154012D01*
X219125Y154079D01*
X219103Y154145D01*
X219086Y154206D01*
X219075Y154256D01*
X219064Y154290D01*
Y154295D01*
Y154301D01*
X218392D01*
X218404Y154201D01*
X218415Y154106D01*
X218437Y154018D01*
X218459Y153940D01*
X218487Y153862D01*
X218515Y153790D01*
X218548Y153729D01*
X218576Y153668D01*
X218609Y153618D01*
X218637Y153574D01*
X218665Y153535D01*
X218692Y153501D01*
X218714Y153479D01*
X218731Y153463D01*
X218737Y153452D01*
X218742Y153446D01*
X218803Y153391D01*
X218875Y153346D01*
X218942Y153302D01*
X219014Y153268D01*
X219153Y153213D01*
X219286Y153174D01*
X219347Y153163D01*
X219403Y153152D01*
X219458Y153146D01*
X219503Y153141D01*
X219536Y153135D01*
X219586D01*
X219686Y153141D01*
X219780Y153152D01*
X219874Y153163D01*
X219958Y153185D01*
X220035Y153213D01*
X220113Y153241D01*
X220180Y153268D01*
X220241Y153302D01*
X220296Y153329D01*
X220346Y153357D01*
X220385Y153385D01*
X220424Y153413D01*
X220452Y153435D01*
X220468Y153446D01*
X220479Y153457D01*
X220485Y153463D01*
X220546Y153529D01*
X220602Y153596D01*
X220651Y153662D01*
X220690Y153729D01*
X220724Y153796D01*
X220751Y153868D01*
X220796Y153996D01*
X220812Y154051D01*
X220824Y154106D01*
X220829Y154151D01*
X220834Y154195D01*
X220840Y154228D01*
Y154273D01*
X220834Y154390D01*
X220812Y154500D01*
X220785Y154595D01*
X220751Y154678D01*
X220712Y154745D01*
X220685Y154795D01*
X220662Y154828D01*
X220657Y154839D01*
X220585Y154922D01*
X220501Y154994D01*
X220418Y155055D01*
X220335Y155100D01*
X220263Y155133D01*
X220207Y155161D01*
X220185Y155166D01*
X220169Y155172D01*
X220158Y155178D01*
X220152D01*
X220241Y155227D01*
X220313Y155278D01*
X220379Y155333D01*
X220429Y155383D01*
X220468Y155427D01*
X220501Y155461D01*
X220518Y155483D01*
X220524Y155494D01*
X220568Y155566D01*
X220602Y155644D01*
X220624Y155716D01*
X220640Y155782D01*
X220651Y155844D01*
X220657Y155888D01*
Y155916D01*
Y155927D01*
X220651Y155999D01*
X220646Y156066D01*
X220613Y156193D01*
X220563Y156304D01*
X220507Y156399D01*
X220452Y156482D01*
X220402Y156537D01*
X220385Y156560D01*
X220368Y156576D01*
X220363Y156582D01*
X220357Y156587D01*
X220302Y156637D01*
X220241Y156682D01*
X220180Y156715D01*
X220119Y156748D01*
X219997Y156798D01*
X219885Y156832D01*
X219786Y156848D01*
X219741Y156859D01*
X219702D01*
X219675Y156865D01*
D02*
G37*
G36*
X214608D02*
X212160D01*
Y153135D01*
D01*
Y156865D01*
X213398D01*
X213309Y156859D01*
X213220Y156848D01*
X213137Y156832D01*
X213065Y156815D01*
X212920Y156759D01*
X212859Y156726D01*
X212804Y156698D01*
X212754Y156665D01*
X212709Y156632D01*
X212670Y156604D01*
X212637Y156582D01*
X212615Y156560D01*
X212598Y156543D01*
X212587Y156532D01*
X212582Y156526D01*
X212504Y156432D01*
X212443Y156326D01*
X212393Y156221D01*
X212360Y156121D01*
X212332Y156032D01*
X212321Y155999D01*
X212315Y155966D01*
X212310Y155938D01*
X212304Y155916D01*
Y155905D01*
Y155899D01*
X212953D01*
X212970Y155949D01*
X212992Y155993D01*
X213020Y156032D01*
X213048Y156066D01*
X213070Y156093D01*
X213092Y156110D01*
X213103Y156121D01*
X213109Y156127D01*
X213153Y156154D01*
X213203Y156177D01*
X213248Y156193D01*
X213286Y156204D01*
X213325Y156210D01*
X213353Y156216D01*
X213375D01*
X213436Y156210D01*
X213486Y156199D01*
X213531Y156182D01*
X213570Y156166D01*
X213603Y156149D01*
X213625Y156132D01*
X213636Y156121D01*
X213642Y156116D01*
X213675Y156077D01*
X213703Y156038D01*
X213720Y155999D01*
X213736Y155960D01*
X213742Y155927D01*
X213747Y155899D01*
Y155882D01*
Y155877D01*
Y155838D01*
X213736Y155799D01*
X213714Y155733D01*
X213703Y155705D01*
X213692Y155683D01*
X213686Y155672D01*
X213681Y155666D01*
X213625Y155599D01*
X213564Y155550D01*
X213536Y155533D01*
X213514Y155522D01*
X213497Y155511D01*
X213492D01*
X213442Y155494D01*
X213387Y155477D01*
X213325Y155466D01*
X213264Y155455D01*
X213214Y155449D01*
X213170Y155444D01*
X213142Y155438D01*
X213131D01*
Y154861D01*
X213270Y154850D01*
X213387Y154833D01*
X213492Y154806D01*
X213575Y154772D01*
X213642Y154745D01*
X213692Y154717D01*
X213720Y154695D01*
X213731Y154689D01*
X213803Y154623D01*
X213853Y154556D01*
X213892Y154484D01*
X213914Y154423D01*
X213930Y154367D01*
X213936Y154317D01*
X213941Y154290D01*
Y154284D01*
Y154279D01*
X213936Y154201D01*
X213919Y154129D01*
X213892Y154062D01*
X213864Y154012D01*
X213836Y153968D01*
X213808Y153934D01*
X213792Y153912D01*
X213786Y153907D01*
X213725Y153857D01*
X213658Y153818D01*
X213592Y153796D01*
X213531Y153773D01*
X213475Y153762D01*
X213431Y153757D01*
X213392D01*
X213314Y153762D01*
X213242Y153779D01*
X213176Y153801D01*
X213126Y153823D01*
X213081Y153846D01*
X213048Y153868D01*
X213026Y153884D01*
X213020Y153890D01*
X212970Y153946D01*
X212926Y154012D01*
X212893Y154079D01*
X212870Y154145D01*
X212854Y154206D01*
X212842Y154256D01*
X212831Y154290D01*
Y154295D01*
Y154301D01*
X212160D01*
X212171Y154201D01*
X212182Y154106D01*
X212204Y154018D01*
X212227Y153940D01*
X212254Y153862D01*
X212282Y153790D01*
X212315Y153729D01*
X212343Y153668D01*
X212376Y153618D01*
X212404Y153574D01*
X212432Y153535D01*
X212460Y153501D01*
X212482Y153479D01*
X212498Y153463D01*
X212504Y153452D01*
X212509Y153446D01*
X212571Y153391D01*
X212643Y153346D01*
X212709Y153302D01*
X212782Y153268D01*
X212920Y153213D01*
X213053Y153174D01*
X213115Y153163D01*
X213170Y153152D01*
X213226Y153146D01*
X213270Y153141D01*
X213303Y153135D01*
X213353D01*
X213453Y153141D01*
X213547Y153152D01*
X213642Y153163D01*
X213725Y153185D01*
X213803Y153213D01*
X213880Y153241D01*
X213947Y153268D01*
X214008Y153302D01*
X214064Y153329D01*
X214113Y153357D01*
X214152Y153385D01*
X214191Y153413D01*
X214219Y153435D01*
X214236Y153446D01*
X214247Y153457D01*
X214252Y153463D01*
X214313Y153529D01*
X214369Y153596D01*
X214419Y153662D01*
X214458Y153729D01*
X214491Y153796D01*
X214519Y153868D01*
X214563Y153996D01*
X214580Y154051D01*
X214591Y154106D01*
X214596Y154151D01*
X214602Y154195D01*
X214608Y154228D01*
Y154273D01*
X214602Y154390D01*
X214580Y154500D01*
X214552Y154595D01*
X214519Y154678D01*
X214480Y154745D01*
X214452Y154795D01*
X214430Y154828D01*
X214424Y154839D01*
X214352Y154922D01*
X214269Y154994D01*
X214186Y155055D01*
X214102Y155100D01*
X214030Y155133D01*
X213975Y155161D01*
X213953Y155166D01*
X213936Y155172D01*
X213925Y155178D01*
X213919D01*
X214008Y155227D01*
X214080Y155278D01*
X214147Y155333D01*
X214197Y155383D01*
X214236Y155427D01*
X214269Y155461D01*
X214286Y155483D01*
X214291Y155494D01*
X214335Y155566D01*
X214369Y155644D01*
X214391Y155716D01*
X214408Y155782D01*
X214419Y155844D01*
X214424Y155888D01*
Y155916D01*
Y155927D01*
X214419Y155999D01*
X214413Y156066D01*
X214380Y156193D01*
X214330Y156304D01*
X214274Y156399D01*
X214219Y156482D01*
X214169Y156537D01*
X214152Y156560D01*
X214136Y156576D01*
X214130Y156582D01*
X214125Y156587D01*
X214069Y156637D01*
X214008Y156682D01*
X213947Y156715D01*
X213886Y156748D01*
X213764Y156798D01*
X213653Y156832D01*
X213553Y156848D01*
X213509Y156859D01*
X213470D01*
X213442Y156865D01*
X214608D01*
D02*
G37*
G36*
X218392D02*
D01*
Y153135D01*
D01*
Y156865D01*
D01*
D02*
G37*
G36*
X101566Y70684D02*
X101107D01*
X100500Y69001D01*
X99904Y70684D01*
X99442D01*
X100278Y68316D01*
X99442D01*
X101566D01*
X100711D01*
X101566Y70684D01*
D02*
G37*
G36*
X102616Y70743D02*
X102587D01*
X102528Y70740D01*
X102468Y70732D01*
X102413Y70721D01*
X102365Y70710D01*
X102269Y70673D01*
X102228Y70651D01*
X102191Y70632D01*
X102158Y70610D01*
X102128Y70588D01*
X102102Y70569D01*
X102080Y70555D01*
X102065Y70540D01*
X102054Y70529D01*
X102047Y70521D01*
X102043Y70517D01*
X101991Y70455D01*
X101950Y70384D01*
X101917Y70314D01*
X101895Y70247D01*
X101876Y70188D01*
X101869Y70166D01*
X101865Y70144D01*
X101862Y70125D01*
X101858Y70110D01*
Y70103D01*
Y70099D01*
X102291D01*
X102302Y70133D01*
X102317Y70162D01*
X102335Y70188D01*
X102354Y70210D01*
X102368Y70229D01*
X102383Y70240D01*
X102391Y70247D01*
X102394Y70251D01*
X102424Y70270D01*
X102457Y70284D01*
X102487Y70296D01*
X102513Y70303D01*
X102539Y70307D01*
X102557Y70310D01*
X102572D01*
X102613Y70307D01*
X102646Y70299D01*
X102676Y70288D01*
X102701Y70277D01*
X102724Y70266D01*
X102738Y70255D01*
X102746Y70247D01*
X102750Y70244D01*
X102772Y70218D01*
X102790Y70192D01*
X102801Y70166D01*
X102813Y70140D01*
X102816Y70118D01*
X102820Y70099D01*
Y70088D01*
Y70085D01*
Y70059D01*
X102813Y70033D01*
X102798Y69988D01*
X102790Y69970D01*
X102783Y69955D01*
X102779Y69948D01*
X102776Y69944D01*
X102738Y69900D01*
X102698Y69866D01*
X102679Y69855D01*
X102664Y69848D01*
X102653Y69840D01*
X102650D01*
X102616Y69829D01*
X102579Y69818D01*
X102539Y69811D01*
X102498Y69803D01*
X102465Y69800D01*
X102435Y69796D01*
X102417Y69792D01*
X102409D01*
Y69407D01*
X102502Y69400D01*
X102579Y69389D01*
X102650Y69371D01*
X102705Y69348D01*
X102750Y69330D01*
X102783Y69311D01*
X102801Y69296D01*
X102809Y69293D01*
X102857Y69248D01*
X102890Y69204D01*
X102916Y69156D01*
X102931Y69115D01*
X102942Y69078D01*
X102946Y69045D01*
X102949Y69026D01*
Y69023D01*
Y69019D01*
X102946Y68967D01*
X102935Y68919D01*
X102916Y68875D01*
X102898Y68841D01*
X102879Y68812D01*
X102861Y68790D01*
X102849Y68775D01*
X102846Y68771D01*
X102805Y68738D01*
X102761Y68712D01*
X102716Y68697D01*
X102676Y68682D01*
X102639Y68675D01*
X102609Y68671D01*
X102583D01*
X102531Y68675D01*
X102483Y68686D01*
X102439Y68701D01*
X102406Y68716D01*
X102376Y68730D01*
X102354Y68745D01*
X102339Y68756D01*
X102335Y68760D01*
X102302Y68797D01*
X102272Y68841D01*
X102250Y68886D01*
X102235Y68930D01*
X102224Y68971D01*
X102217Y69004D01*
X102209Y69026D01*
Y69030D01*
Y69034D01*
X101762D01*
X101769Y68967D01*
X101777Y68904D01*
X101791Y68845D01*
X101806Y68793D01*
X101825Y68742D01*
X101843Y68693D01*
X101865Y68653D01*
X101884Y68612D01*
X101906Y68579D01*
X101925Y68549D01*
X101943Y68523D01*
X101962Y68501D01*
X101976Y68486D01*
X101987Y68475D01*
X101991Y68468D01*
X101995Y68464D01*
X102035Y68427D01*
X102084Y68397D01*
X102128Y68368D01*
X102176Y68346D01*
X102269Y68309D01*
X102357Y68283D01*
X102398Y68275D01*
X102435Y68268D01*
X102472Y68264D01*
X102502Y68261D01*
X102524Y68257D01*
X101762D01*
X103393D01*
X102557D01*
X102624Y68261D01*
X102687Y68268D01*
X102750Y68275D01*
X102805Y68290D01*
X102857Y68309D01*
X102909Y68327D01*
X102953Y68346D01*
X102994Y68368D01*
X103031Y68386D01*
X103064Y68405D01*
X103090Y68423D01*
X103116Y68442D01*
X103134Y68457D01*
X103146Y68464D01*
X103153Y68471D01*
X103157Y68475D01*
X103197Y68520D01*
X103234Y68564D01*
X103268Y68608D01*
X103294Y68653D01*
X103316Y68697D01*
X103334Y68745D01*
X103364Y68830D01*
X103375Y68867D01*
X103382Y68904D01*
X103386Y68934D01*
X103390Y68963D01*
X103393Y68986D01*
Y69015D01*
X103390Y69093D01*
X103375Y69167D01*
X103356Y69230D01*
X103334Y69285D01*
X103308Y69330D01*
X103290Y69363D01*
X103275Y69385D01*
X103271Y69393D01*
X103223Y69448D01*
X103168Y69496D01*
X103112Y69537D01*
X103057Y69567D01*
X103009Y69589D01*
X102972Y69607D01*
X102957Y69611D01*
X102946Y69615D01*
X102938Y69618D01*
X102935D01*
X102994Y69652D01*
X103042Y69685D01*
X103086Y69722D01*
X103120Y69755D01*
X103146Y69785D01*
X103168Y69807D01*
X103179Y69822D01*
X103182Y69829D01*
X103212Y69877D01*
X103234Y69929D01*
X103249Y69977D01*
X103260Y70022D01*
X103268Y70062D01*
X103271Y70092D01*
Y70110D01*
Y70118D01*
X103268Y70166D01*
X103264Y70210D01*
X103242Y70296D01*
X103208Y70369D01*
X103171Y70432D01*
X103134Y70488D01*
X103101Y70525D01*
X103090Y70540D01*
X103079Y70551D01*
X103075Y70555D01*
X103071Y70558D01*
X103034Y70591D01*
X102994Y70621D01*
X102953Y70643D01*
X102912Y70666D01*
X102831Y70699D01*
X102757Y70721D01*
X102690Y70732D01*
X102661Y70740D01*
X102635D01*
X102616Y70743D01*
D02*
G37*
G36*
X98461D02*
X98432D01*
X98373Y70740D01*
X98313Y70732D01*
X98258Y70721D01*
X98210Y70710D01*
X98114Y70673D01*
X98073Y70651D01*
X98036Y70632D01*
X98002Y70610D01*
X97973Y70588D01*
X97947Y70569D01*
X97925Y70555D01*
X97910Y70540D01*
X97899Y70529D01*
X97891Y70521D01*
X97888Y70517D01*
X97836Y70455D01*
X97795Y70384D01*
X97762Y70314D01*
X97740Y70247D01*
X97721Y70188D01*
X97714Y70166D01*
X97710Y70144D01*
X97707Y70125D01*
X97703Y70110D01*
Y70103D01*
Y70099D01*
X98136D01*
X98147Y70133D01*
X98162Y70162D01*
X98180Y70188D01*
X98199Y70210D01*
X98213Y70229D01*
X98228Y70240D01*
X98236Y70247D01*
X98239Y70251D01*
X98269Y70270D01*
X98302Y70284D01*
X98332Y70296D01*
X98358Y70303D01*
X98384Y70307D01*
X98402Y70310D01*
X98417D01*
X98458Y70307D01*
X98491Y70299D01*
X98520Y70288D01*
X98546Y70277D01*
X98569Y70266D01*
X98583Y70255D01*
X98591Y70247D01*
X98594Y70244D01*
X98617Y70218D01*
X98635Y70192D01*
X98646Y70166D01*
X98657Y70140D01*
X98661Y70118D01*
X98665Y70099D01*
Y70088D01*
Y70085D01*
Y70059D01*
X98657Y70033D01*
X98643Y69988D01*
X98635Y69970D01*
X98628Y69955D01*
X98624Y69948D01*
X98620Y69944D01*
X98583Y69900D01*
X98543Y69866D01*
X98524Y69855D01*
X98509Y69848D01*
X98498Y69840D01*
X98495D01*
X98461Y69829D01*
X98424Y69818D01*
X98384Y69811D01*
X98343Y69803D01*
X98310Y69800D01*
X98280Y69796D01*
X98261Y69792D01*
X98254D01*
Y69407D01*
X98347Y69400D01*
X98424Y69389D01*
X98495Y69371D01*
X98550Y69348D01*
X98594Y69330D01*
X98628Y69311D01*
X98646Y69296D01*
X98654Y69293D01*
X98702Y69248D01*
X98735Y69204D01*
X98761Y69156D01*
X98776Y69115D01*
X98787Y69078D01*
X98791Y69045D01*
X98794Y69026D01*
Y69023D01*
Y69019D01*
X98791Y68967D01*
X98779Y68919D01*
X98761Y68875D01*
X98743Y68841D01*
X98724Y68812D01*
X98706Y68790D01*
X98694Y68775D01*
X98691Y68771D01*
X98650Y68738D01*
X98606Y68712D01*
X98561Y68697D01*
X98520Y68682D01*
X98484Y68675D01*
X98454Y68671D01*
X98428D01*
X98376Y68675D01*
X98328Y68686D01*
X98284Y68701D01*
X98250Y68716D01*
X98221Y68730D01*
X98199Y68745D01*
X98184Y68756D01*
X98180Y68760D01*
X98147Y68797D01*
X98117Y68841D01*
X98095Y68886D01*
X98080Y68930D01*
X98069Y68971D01*
X98062Y69004D01*
X98054Y69026D01*
Y69030D01*
Y69034D01*
X97607D01*
X97614Y68967D01*
X97621Y68904D01*
X97636Y68845D01*
X97651Y68793D01*
X97670Y68742D01*
X97688Y68693D01*
X97710Y68653D01*
X97729Y68612D01*
X97751Y68579D01*
X97769Y68549D01*
X97788Y68523D01*
X97806Y68501D01*
X97821Y68486D01*
X97832Y68475D01*
X97836Y68468D01*
X97840Y68464D01*
X97880Y68427D01*
X97929Y68397D01*
X97973Y68368D01*
X98021Y68346D01*
X98114Y68309D01*
X98202Y68283D01*
X98243Y68275D01*
X98280Y68268D01*
X98317Y68264D01*
X98347Y68261D01*
X98369Y68257D01*
X97607D01*
X99238D01*
X98402D01*
X98469Y68261D01*
X98532Y68268D01*
X98594Y68275D01*
X98650Y68290D01*
X98702Y68309D01*
X98754Y68327D01*
X98798Y68346D01*
X98839Y68368D01*
X98876Y68386D01*
X98909Y68405D01*
X98935Y68423D01*
X98961Y68442D01*
X98979Y68457D01*
X98990Y68464D01*
X98998Y68471D01*
X99001Y68475D01*
X99042Y68520D01*
X99079Y68564D01*
X99112Y68608D01*
X99138Y68653D01*
X99161Y68697D01*
X99179Y68745D01*
X99209Y68830D01*
X99220Y68867D01*
X99227Y68904D01*
X99231Y68934D01*
X99235Y68963D01*
X99238Y68986D01*
Y69015D01*
X99235Y69093D01*
X99220Y69167D01*
X99201Y69230D01*
X99179Y69285D01*
X99153Y69330D01*
X99135Y69363D01*
X99120Y69385D01*
X99116Y69393D01*
X99068Y69448D01*
X99013Y69496D01*
X98957Y69537D01*
X98902Y69567D01*
X98853Y69589D01*
X98817Y69607D01*
X98802Y69611D01*
X98791Y69615D01*
X98783Y69618D01*
X98779D01*
X98839Y69652D01*
X98887Y69685D01*
X98931Y69722D01*
X98965Y69755D01*
X98990Y69785D01*
X99013Y69807D01*
X99024Y69822D01*
X99027Y69829D01*
X99057Y69877D01*
X99079Y69929D01*
X99094Y69977D01*
X99105Y70022D01*
X99112Y70062D01*
X99116Y70092D01*
Y70110D01*
Y70118D01*
X99112Y70166D01*
X99109Y70210D01*
X99087Y70296D01*
X99053Y70369D01*
X99016Y70432D01*
X98979Y70488D01*
X98946Y70525D01*
X98935Y70540D01*
X98924Y70551D01*
X98920Y70555D01*
X98916Y70558D01*
X98879Y70591D01*
X98839Y70621D01*
X98798Y70643D01*
X98757Y70666D01*
X98676Y70699D01*
X98602Y70721D01*
X98535Y70732D01*
X98506Y70740D01*
X98480D01*
X98461Y70743D01*
D02*
G37*
G36*
X131957Y151493D02*
X131872D01*
D01*
X130703D01*
X131872D01*
X131813Y151486D01*
X131698Y151467D01*
X131591Y151438D01*
X131543Y151423D01*
X131498Y151408D01*
X131457Y151393D01*
X131421Y151379D01*
X131391Y151364D01*
X131365Y151349D01*
X131343Y151338D01*
X131328Y151330D01*
X131317Y151327D01*
X131313Y151323D01*
X131213Y151256D01*
X131124Y151182D01*
X131047Y151108D01*
X130984Y151034D01*
X130932Y150971D01*
X130914Y150942D01*
X130895Y150920D01*
X130884Y150898D01*
X130873Y150883D01*
X130869Y150875D01*
X130866Y150872D01*
X130836Y150820D01*
X130814Y150764D01*
X130773Y150657D01*
X130743Y150550D01*
X130725Y150457D01*
X130718Y150413D01*
X130710Y150372D01*
X130706Y150339D01*
Y150309D01*
X130703Y150283D01*
Y150250D01*
X130706Y150157D01*
X130718Y150069D01*
X130736Y149980D01*
X130758Y149899D01*
X130784Y149821D01*
X130814Y149750D01*
X130847Y149684D01*
X130880Y149621D01*
X130910Y149565D01*
X130943Y149517D01*
X130973Y149473D01*
X130999Y149440D01*
X131021Y149410D01*
X131039Y149392D01*
X131051Y149377D01*
X131054Y149373D01*
X131121Y149310D01*
X131195Y149251D01*
X131265Y149203D01*
X131339Y149162D01*
X131417Y149125D01*
X131487Y149096D01*
X131561Y149073D01*
X131628Y149051D01*
X131694Y149036D01*
X131750Y149025D01*
X131805Y149018D01*
X131850Y149014D01*
X131887Y149011D01*
X131916Y149007D01*
X130703D01*
X133159D01*
X131938D01*
X132031Y149011D01*
X132120Y149022D01*
X132205Y149040D01*
X132286Y149062D01*
X132364Y149088D01*
X132434Y149118D01*
X132501Y149151D01*
X132560Y149184D01*
X132616Y149218D01*
X132660Y149251D01*
X132704Y149281D01*
X132738Y149306D01*
X132764Y149329D01*
X132786Y149347D01*
X132797Y149358D01*
X132800Y149362D01*
X132863Y149432D01*
X132919Y149503D01*
X132967Y149577D01*
X133008Y149651D01*
X133045Y149725D01*
X133071Y149799D01*
X133097Y149869D01*
X133115Y149935D01*
X133130Y150002D01*
X133141Y150058D01*
X133148Y150109D01*
X133156Y150154D01*
Y150191D01*
X133159Y150220D01*
Y150243D01*
X133156Y150339D01*
X133145Y150431D01*
X133126Y150516D01*
X133104Y150601D01*
X133074Y150679D01*
X133045Y150753D01*
X133011Y150820D01*
X132978Y150879D01*
X132945Y150935D01*
X132912Y150986D01*
X132882Y151027D01*
X132852Y151064D01*
X132830Y151090D01*
X132812Y151112D01*
X132800Y151123D01*
X132797Y151127D01*
X132727Y151190D01*
X132656Y151249D01*
X132582Y151297D01*
X132508Y151338D01*
X132438Y151375D01*
X132364Y151404D01*
X132297Y151427D01*
X132231Y151449D01*
X132168Y151464D01*
X132112Y151475D01*
X132061Y151482D01*
X132020Y151486D01*
X131983Y151489D01*
X131957Y151493D01*
D02*
G37*
G36*
X134802D02*
X134750D01*
X134643Y151489D01*
X134540Y151475D01*
X134443Y151456D01*
X134351Y151430D01*
X134266Y151397D01*
X134184Y151364D01*
X134114Y151323D01*
X134047Y151286D01*
X133988Y151249D01*
X133936Y151208D01*
X133892Y151175D01*
X133855Y151145D01*
X133826Y151116D01*
X133807Y151097D01*
X133792Y151083D01*
X133788Y151079D01*
X133733Y151012D01*
X133689Y150946D01*
X133648Y150875D01*
X133611Y150805D01*
X133581Y150735D01*
X133555Y150668D01*
X133537Y150601D01*
X133518Y150539D01*
X133507Y150483D01*
X133496Y150428D01*
X133493Y150380D01*
X133485Y150339D01*
Y150305D01*
X133481Y150283D01*
Y150261D01*
X133485Y150198D01*
X133489Y150135D01*
X133507Y150017D01*
X133533Y149906D01*
X133548Y149858D01*
X133566Y149813D01*
X133581Y149769D01*
X133596Y149732D01*
X133611Y149699D01*
X133622Y149673D01*
X133633Y149651D01*
X133641Y149636D01*
X133648Y149625D01*
Y149621D01*
X133714Y149517D01*
X133788Y149425D01*
X133866Y149347D01*
X133936Y149284D01*
X134003Y149232D01*
X134033Y149210D01*
X134055Y149196D01*
X134077Y149184D01*
X134092Y149173D01*
X134099Y149170D01*
X134103Y149166D01*
X134158Y149136D01*
X134214Y149114D01*
X134329Y149073D01*
X134440Y149048D01*
X134543Y149025D01*
X134588Y149022D01*
X134632Y149014D01*
X134669Y149011D01*
X134699D01*
X134724Y149007D01*
X133481D01*
X135942D01*
D01*
X134762D01*
X134887Y149014D01*
X135002Y149029D01*
X135102Y149051D01*
X135150Y149066D01*
X135191Y149081D01*
X135228Y149092D01*
X135261Y149107D01*
X135291Y149118D01*
X135317Y149129D01*
X135335Y149136D01*
X135350Y149144D01*
X135357Y149151D01*
X135361D01*
X135453Y149210D01*
X135535Y149281D01*
X135609Y149351D01*
X135668Y149421D01*
X135716Y149480D01*
X135735Y149506D01*
X135749Y149532D01*
X135764Y149551D01*
X135772Y149565D01*
X135779Y149573D01*
Y149577D01*
X135809Y149628D01*
X135835Y149680D01*
X135872Y149787D01*
X135901Y149887D01*
X135923Y149976D01*
X135927Y150017D01*
X135934Y150054D01*
X135938Y150087D01*
Y150117D01*
X135942Y150139D01*
Y150176D01*
Y150169D01*
X135938Y150268D01*
X134747D01*
Y149847D01*
X135431D01*
X135391Y149773D01*
X135350Y149710D01*
X135305Y149658D01*
X135265Y149614D01*
X135228Y149580D01*
X135198Y149558D01*
X135180Y149543D01*
X135176Y149540D01*
X135172D01*
X135109Y149506D01*
X135043Y149484D01*
X134980Y149466D01*
X134917Y149454D01*
X134861Y149447D01*
X134821Y149443D01*
X134780D01*
X134713Y149447D01*
X134651Y149454D01*
X134591Y149466D01*
X134536Y149480D01*
X134480Y149499D01*
X134432Y149517D01*
X134384Y149540D01*
X134344Y149562D01*
X134306Y149584D01*
X134273Y149606D01*
X134244Y149625D01*
X134221Y149643D01*
X134203Y149658D01*
X134188Y149669D01*
X134181Y149677D01*
X134177Y149680D01*
X134133Y149725D01*
X134096Y149773D01*
X134062Y149821D01*
X134036Y149873D01*
X134010Y149921D01*
X133992Y149969D01*
X133962Y150061D01*
X133955Y150102D01*
X133948Y150139D01*
X133940Y150176D01*
X133936Y150206D01*
X133933Y150228D01*
Y150246D01*
Y150257D01*
Y150261D01*
X133936Y150320D01*
X133944Y150380D01*
X133955Y150435D01*
X133970Y150487D01*
X134007Y150583D01*
X134029Y150627D01*
X134051Y150664D01*
X134070Y150701D01*
X134092Y150731D01*
X134110Y150761D01*
X134129Y150783D01*
X134144Y150801D01*
X134155Y150812D01*
X134162Y150820D01*
X134166Y150823D01*
X134210Y150864D01*
X134258Y150901D01*
X134306Y150931D01*
X134358Y150957D01*
X134406Y150983D01*
X134454Y151001D01*
X134547Y151027D01*
X134588Y151038D01*
X134628Y151046D01*
X134662Y151049D01*
X134691Y151053D01*
X134717Y151057D01*
X134750D01*
X134825Y151053D01*
X134895Y151042D01*
X134965Y151027D01*
X135032Y151005D01*
X135091Y150983D01*
X135150Y150957D01*
X135205Y150927D01*
X135254Y150898D01*
X135298Y150864D01*
X135339Y150838D01*
X135372Y150809D01*
X135402Y150786D01*
X135424Y150764D01*
X135439Y150750D01*
X135450Y150738D01*
X135453Y150735D01*
X135772Y151049D01*
X135690Y151131D01*
X135609Y151201D01*
X135535Y151256D01*
X135468Y151301D01*
X135409Y151334D01*
X135387Y151349D01*
X135365Y151360D01*
X135350Y151367D01*
X135339Y151375D01*
X135331Y151379D01*
X135328D01*
X135224Y151416D01*
X135124Y151445D01*
X135028Y151464D01*
X134939Y151478D01*
X134898Y151482D01*
X134861Y151486D01*
X134832Y151489D01*
X134802Y151493D01*
D02*
G37*
G36*
X129478Y151434D02*
X128938D01*
Y149066D01*
X130455D01*
D01*
X129892Y150117D01*
X129970Y150150D01*
X130040Y150187D01*
X130099Y150228D01*
X130144Y150265D01*
X130181Y150302D01*
X130207Y150328D01*
X130225Y150346D01*
X130229Y150354D01*
X130266Y150417D01*
X130296Y150483D01*
X130314Y150546D01*
X130329Y150609D01*
X130336Y150664D01*
X130344Y150709D01*
Y150724D01*
Y150735D01*
Y150742D01*
Y150746D01*
X130340Y150827D01*
X130329Y150901D01*
X130310Y150964D01*
X130292Y151023D01*
X130273Y151068D01*
X130255Y151101D01*
X130244Y151123D01*
X130240Y151131D01*
X130200Y151186D01*
X130155Y151234D01*
X130111Y151275D01*
X130070Y151308D01*
X130033Y151334D01*
X130000Y151349D01*
X129981Y151360D01*
X129977Y151364D01*
X129974D01*
X129940Y151375D01*
X129903Y151386D01*
X129815Y151404D01*
X129722Y151416D01*
X129633Y151427D01*
X129589D01*
X129548Y151430D01*
X129511D01*
X129478Y151434D01*
D02*
G37*
G36*
X127598D02*
X127058D01*
Y149066D01*
X127506D01*
Y150069D01*
X127624D01*
X127676Y150072D01*
X127724Y150076D01*
X127769D01*
X127809Y150080D01*
X127843Y150083D01*
X127872Y150087D01*
X127902Y150091D01*
X127924Y150095D01*
X127943Y150098D01*
X127957D01*
X127976Y150106D01*
X127983D01*
X128061Y150135D01*
X128131Y150169D01*
X128190Y150206D01*
X128242Y150243D01*
X128283Y150276D01*
X128312Y150305D01*
X128327Y150324D01*
X128335Y150331D01*
X128379Y150398D01*
X128412Y150468D01*
X128435Y150535D01*
X128453Y150601D01*
X128460Y150657D01*
X128464Y150683D01*
Y150705D01*
X128468Y150724D01*
Y150746D01*
X128464Y150827D01*
X128453Y150898D01*
X128435Y150964D01*
X128420Y151020D01*
X128401Y151064D01*
X128383Y151097D01*
X128372Y151119D01*
X128368Y151127D01*
X128327Y151182D01*
X128283Y151231D01*
X128238Y151271D01*
X128194Y151304D01*
X128153Y151330D01*
X128124Y151345D01*
X128102Y151356D01*
X128098Y151360D01*
X128094D01*
X128061Y151375D01*
X128020Y151386D01*
X127935Y151404D01*
X127843Y151416D01*
X127750Y151427D01*
X127709D01*
X127669Y151430D01*
X127632D01*
X127598Y151434D01*
D02*
G37*
%LPD*%
G36*
X131987Y151053D02*
X132046Y151046D01*
X132098Y151034D01*
X132149Y151020D01*
X132246Y150983D01*
X132286Y150960D01*
X132327Y150938D01*
X132360Y150916D01*
X132390Y150894D01*
X132416Y150875D01*
X132438Y150857D01*
X132456Y150842D01*
X132468Y150831D01*
X132475Y150823D01*
X132479Y150820D01*
X132519Y150775D01*
X132553Y150727D01*
X132586Y150679D01*
X132612Y150631D01*
X132634Y150583D01*
X132652Y150535D01*
X132678Y150446D01*
X132690Y150405D01*
X132697Y150365D01*
X132701Y150331D01*
X132704Y150302D01*
X132708Y150280D01*
Y150261D01*
Y150250D01*
Y150246D01*
X132704Y150183D01*
X132697Y150124D01*
X132686Y150069D01*
X132675Y150013D01*
X132638Y149917D01*
X132616Y149873D01*
X132597Y149832D01*
X132575Y149795D01*
X132553Y149765D01*
X132534Y149736D01*
X132519Y149714D01*
X132504Y149695D01*
X132493Y149684D01*
X132486Y149677D01*
X132482Y149673D01*
X132438Y149632D01*
X132394Y149599D01*
X132349Y149565D01*
X132301Y149540D01*
X132257Y149517D01*
X132209Y149499D01*
X132123Y149473D01*
X132086Y149462D01*
X132050Y149454D01*
X132016Y149451D01*
X131990Y149447D01*
X131964Y149443D01*
X131935D01*
X131883Y149447D01*
X131831Y149451D01*
X131739Y149473D01*
X131653Y149499D01*
X131579Y149532D01*
X131546Y149551D01*
X131520Y149565D01*
X131494Y149580D01*
X131472Y149595D01*
X131457Y149606D01*
X131446Y149614D01*
X131439Y149617D01*
X131435Y149621D01*
X131387Y149665D01*
X131343Y149714D01*
X131306Y149765D01*
X131272Y149813D01*
X131247Y149865D01*
X131224Y149917D01*
X131206Y149969D01*
X131191Y150017D01*
X131176Y150065D01*
X131169Y150106D01*
X131161Y150146D01*
X131158Y150180D01*
Y150206D01*
X131154Y150224D01*
Y150239D01*
Y150243D01*
X131158Y150309D01*
X131165Y150368D01*
X131176Y150428D01*
X131187Y150483D01*
X131206Y150535D01*
X131224Y150583D01*
X131243Y150627D01*
X131265Y150668D01*
X131287Y150705D01*
X131306Y150735D01*
X131324Y150764D01*
X131343Y150786D01*
X131354Y150805D01*
X131365Y150816D01*
X131372Y150823D01*
X131376Y150827D01*
X131421Y150868D01*
X131465Y150901D01*
X131509Y150935D01*
X131557Y150960D01*
X131602Y150983D01*
X131650Y151001D01*
X131735Y151027D01*
X131776Y151038D01*
X131813Y151046D01*
X131846Y151049D01*
X131872Y151053D01*
X131894Y151057D01*
X131927D01*
X131987Y151053D01*
D02*
G37*
G36*
X129622Y150990D02*
X129667Y150986D01*
X129700Y150983D01*
X129726Y150975D01*
X129741Y150971D01*
X129752Y150968D01*
X129755D01*
X129804Y150942D01*
X129837Y150916D01*
X129859Y150894D01*
X129867Y150886D01*
Y150883D01*
X129881Y150861D01*
X129889Y150838D01*
X129903Y150794D01*
Y150775D01*
X129907Y150764D01*
Y150753D01*
Y150750D01*
X129903Y150705D01*
X129892Y150664D01*
X129881Y150635D01*
X129867Y150609D01*
X129848Y150590D01*
X129837Y150576D01*
X129826Y150568D01*
X129822Y150565D01*
X129785Y150546D01*
X129741Y150531D01*
X129693Y150524D01*
X129645Y150516D01*
X129600Y150513D01*
X129559Y150509D01*
X129385D01*
Y150994D01*
X129570D01*
X129622Y150990D01*
D02*
G37*
G36*
X129963Y149066D02*
X129385D01*
Y150069D01*
X129426D01*
X129963Y149066D01*
D02*
G37*
G36*
X127706Y150990D02*
X127765Y150986D01*
X127817Y150979D01*
X127854Y150971D01*
X127883Y150960D01*
X127905Y150953D01*
X127917Y150949D01*
X127920Y150946D01*
X127957Y150920D01*
X127983Y150886D01*
X128005Y150853D01*
X128016Y150823D01*
X128024Y150794D01*
X128031Y150768D01*
Y150753D01*
Y150746D01*
Y150716D01*
X128024Y150694D01*
X128013Y150650D01*
X128005Y150635D01*
X127998Y150624D01*
X127994Y150616D01*
X127991Y150613D01*
X127957Y150576D01*
X127924Y150550D01*
X127909Y150542D01*
X127898Y150535D01*
X127891Y150531D01*
X127887D01*
X127857Y150524D01*
X127820Y150520D01*
X127743Y150513D01*
X127709Y150509D01*
X127506D01*
Y150994D01*
X127632D01*
X127706Y150990D01*
D02*
G37*
%LPC*%
G36*
X193087Y156865D02*
X193009D01*
X192848Y156859D01*
X192693Y156837D01*
X192548Y156809D01*
X192410Y156771D01*
X192282Y156720D01*
X192160Y156671D01*
X192054Y156609D01*
X191955Y156554D01*
X191866Y156499D01*
X191788Y156437D01*
X191721Y156387D01*
X191666Y156343D01*
X191622Y156299D01*
X191594Y156271D01*
X191572Y156249D01*
X191566Y156243D01*
X191483Y156143D01*
X191416Y156043D01*
X191355Y155938D01*
X191300Y155833D01*
X191255Y155727D01*
X191216Y155627D01*
X191189Y155527D01*
X191161Y155433D01*
X191144Y155350D01*
X191128Y155266D01*
X191122Y155194D01*
X191111Y155133D01*
Y155083D01*
X191105Y155050D01*
Y156865D01*
D01*
D01*
Y153135D01*
D01*
Y155017D01*
X191111Y154922D01*
X191116Y154828D01*
X191144Y154650D01*
X191183Y154484D01*
X191205Y154412D01*
X191233Y154345D01*
X191255Y154279D01*
X191277Y154223D01*
X191300Y154173D01*
X191316Y154134D01*
X191333Y154101D01*
X191344Y154079D01*
X191355Y154062D01*
Y154057D01*
X191455Y153901D01*
X191566Y153762D01*
X191683Y153646D01*
X191788Y153551D01*
X191888Y153474D01*
X191932Y153440D01*
X191966Y153418D01*
X191999Y153402D01*
X192021Y153385D01*
X192032Y153379D01*
X192038Y153374D01*
X192121Y153329D01*
X192204Y153296D01*
X192376Y153235D01*
X192543Y153196D01*
X192698Y153163D01*
X192765Y153157D01*
X192831Y153146D01*
X192887Y153141D01*
X192931D01*
X192970Y153135D01*
X191105D01*
X193026D01*
X193214Y153146D01*
X193386Y153168D01*
X193536Y153202D01*
X193608Y153224D01*
X193669Y153246D01*
X193725Y153263D01*
X193775Y153285D01*
X193819Y153302D01*
X193858Y153318D01*
X193886Y153329D01*
X193908Y153341D01*
X193919Y153352D01*
X193925D01*
X194064Y153440D01*
X194186Y153546D01*
X194297Y153651D01*
X194385Y153757D01*
X194458Y153846D01*
X194485Y153884D01*
X194508Y153923D01*
X194530Y153951D01*
X194541Y153973D01*
X194552Y153984D01*
Y153990D01*
X194596Y154068D01*
X194635Y154145D01*
X194691Y154306D01*
X194735Y154456D01*
X194768Y154589D01*
X194774Y154650D01*
X194785Y154706D01*
X194791Y154756D01*
Y154800D01*
X194796Y154833D01*
Y154878D01*
X194791Y155028D01*
X193003D01*
Y154395D01*
X194030D01*
X193969Y154284D01*
X193908Y154190D01*
X193842Y154112D01*
X193781Y154045D01*
X193725Y153996D01*
X193681Y153962D01*
X193653Y153940D01*
X193647Y153934D01*
X193642D01*
X193547Y153884D01*
X193447Y153851D01*
X193353Y153823D01*
X193259Y153807D01*
X193175Y153796D01*
X193114Y153790D01*
X193053D01*
X192954Y153796D01*
X192859Y153807D01*
X192770Y153823D01*
X192687Y153846D01*
X192604Y153873D01*
X192532Y153901D01*
X192460Y153934D01*
X192399Y153968D01*
X192343Y154001D01*
X192293Y154034D01*
X192249Y154062D01*
X192215Y154090D01*
X192188Y154112D01*
X192166Y154129D01*
X192154Y154140D01*
X192149Y154145D01*
X192082Y154212D01*
X192027Y154284D01*
X191977Y154356D01*
X191938Y154434D01*
X191899Y154506D01*
X191871Y154578D01*
X191827Y154717D01*
X191816Y154778D01*
X191805Y154833D01*
X191794Y154889D01*
X191788Y154933D01*
X191782Y154967D01*
Y154994D01*
Y155011D01*
Y155017D01*
X191788Y155105D01*
X191799Y155194D01*
X191816Y155278D01*
X191838Y155355D01*
X191893Y155499D01*
X191927Y155566D01*
X191960Y155622D01*
X191988Y155677D01*
X192021Y155721D01*
X192049Y155766D01*
X192077Y155799D01*
X192099Y155827D01*
X192115Y155844D01*
X192127Y155855D01*
X192132Y155860D01*
X192199Y155921D01*
X192271Y155977D01*
X192343Y156021D01*
X192421Y156060D01*
X192493Y156099D01*
X192565Y156127D01*
X192704Y156166D01*
X192765Y156182D01*
X192826Y156193D01*
X192876Y156199D01*
X192920Y156204D01*
X192959Y156210D01*
X193009D01*
X193120Y156204D01*
X193226Y156188D01*
X193331Y156166D01*
X193431Y156132D01*
X193520Y156099D01*
X193608Y156060D01*
X193692Y156016D01*
X193764Y155971D01*
X193830Y155921D01*
X193892Y155882D01*
X193941Y155838D01*
X193986Y155805D01*
X194019Y155772D01*
X194041Y155749D01*
X194058Y155733D01*
X194064Y155727D01*
X194541Y156199D01*
X194419Y156321D01*
X194297Y156426D01*
X194186Y156510D01*
X194086Y156576D01*
X193997Y156626D01*
X193964Y156648D01*
X193930Y156665D01*
X193908Y156676D01*
X193892Y156687D01*
X193880Y156693D01*
X193875D01*
X193719Y156748D01*
X193570Y156793D01*
X193425Y156820D01*
X193292Y156843D01*
X193231Y156848D01*
X193175Y156854D01*
X193131Y156859D01*
X193087Y156865D01*
D02*
G37*
G36*
X201895Y156776D02*
X199081D01*
Y153224D01*
X200013D01*
X200130Y153229D01*
X200235D01*
X200335Y153235D01*
X200418Y153246D01*
X200501Y153252D01*
X200568Y153257D01*
X200635Y153268D01*
X200685Y153274D01*
X200735Y153279D01*
X200774Y153291D01*
X200801Y153296D01*
X200829Y153302D01*
X200846D01*
X200851Y153307D01*
X200857D01*
X200962Y153346D01*
X201057Y153396D01*
X201145Y153446D01*
X201223Y153501D01*
X201290Y153546D01*
X201340Y153585D01*
X201367Y153612D01*
X201378Y153624D01*
X201462Y153712D01*
X201539Y153807D01*
X201601Y153907D01*
X201656Y153996D01*
X201700Y154073D01*
X201728Y154140D01*
X201739Y154162D01*
X201750Y154179D01*
X201756Y154190D01*
Y154195D01*
X201800Y154328D01*
X201834Y154456D01*
X201861Y154584D01*
X201878Y154700D01*
X201889Y154800D01*
Y154845D01*
X201895Y154883D01*
Y155055D01*
X201884Y155161D01*
X201856Y155350D01*
X201839Y155438D01*
X201817Y155522D01*
X201795Y155599D01*
X201772Y155672D01*
X201750Y155733D01*
X201728Y155788D01*
X201706Y155838D01*
X201689Y155877D01*
X201673Y155910D01*
X201661Y155938D01*
X201656Y155949D01*
X201650Y155955D01*
X201606Y156032D01*
X201556Y156104D01*
X201451Y156238D01*
X201345Y156343D01*
X201251Y156432D01*
X201162Y156499D01*
X201123Y156526D01*
X201090Y156543D01*
X201068Y156560D01*
X201045Y156571D01*
X201034Y156582D01*
X201029D01*
X200957Y156615D01*
X200873Y156648D01*
X200785Y156671D01*
X200690Y156693D01*
X200501Y156726D01*
X200313Y156754D01*
X200224Y156759D01*
X200146Y156765D01*
X200069Y156771D01*
X200008D01*
X199952Y156776D01*
X201895D01*
D02*
G37*
G36*
X198265D02*
X195423D01*
Y153224D01*
X196095D01*
Y155550D01*
X197616Y153224D01*
X198265D01*
Y156776D01*
D02*
G37*
G36*
X194796Y153135D02*
X193261D01*
X194796D01*
D01*
D02*
G37*
%LPD*%
G36*
X200096Y156110D02*
X200202Y156104D01*
X200302Y156088D01*
X200391Y156071D01*
X200474Y156049D01*
X200546Y156027D01*
X200613Y155999D01*
X200674Y155977D01*
X200729Y155949D01*
X200774Y155921D01*
X200812Y155899D01*
X200840Y155877D01*
X200868Y155860D01*
X200885Y155844D01*
X200890Y155838D01*
X200896Y155833D01*
X200951Y155772D01*
X201001Y155705D01*
X201045Y155638D01*
X201084Y155566D01*
X201112Y155494D01*
X201140Y155422D01*
X201179Y155283D01*
X201190Y155217D01*
X201201Y155155D01*
X201206Y155100D01*
X201212Y155055D01*
X201218Y155017D01*
Y154983D01*
Y154967D01*
Y154961D01*
X201212Y154828D01*
X201195Y154711D01*
X201173Y154606D01*
X201151Y154517D01*
X201129Y154445D01*
X201107Y154390D01*
X201090Y154356D01*
X201084Y154351D01*
Y154345D01*
X201029Y154256D01*
X200973Y154184D01*
X200918Y154123D01*
X200862Y154073D01*
X200812Y154034D01*
X200774Y154012D01*
X200751Y153996D01*
X200740Y153990D01*
X200696Y153973D01*
X200651Y153957D01*
X200546Y153929D01*
X200435Y153912D01*
X200324Y153896D01*
X200224Y153890D01*
X200180D01*
X200141Y153884D01*
X199752D01*
Y156116D01*
X199980D01*
X200096Y156110D01*
D02*
G37*
G36*
X197593Y154434D02*
X196062Y156776D01*
X197593D01*
Y154434D01*
D02*
G37*
%LPC*%
G36*
X100123Y60714D02*
D01*
Y59104D01*
X100119Y59167D01*
X100115Y59226D01*
X100104Y59282D01*
X100089Y59333D01*
X100075Y59385D01*
X100056Y59430D01*
X100034Y59474D01*
X100015Y59511D01*
X99997Y59544D01*
X99975Y59578D01*
X99956Y59604D01*
X99941Y59622D01*
X99927Y59641D01*
X99919Y59652D01*
X99912Y59659D01*
X99908Y59663D01*
X99867Y59703D01*
X99823Y59737D01*
X99778Y59766D01*
X99734Y59792D01*
X99690Y59815D01*
X99645Y59829D01*
X99560Y59859D01*
X99523Y59866D01*
X99486Y59874D01*
X99457Y59877D01*
X99427Y59881D01*
X99405Y59885D01*
X99349D01*
X99323Y59881D01*
X99305Y59877D01*
X99297D01*
X99272Y59870D01*
X99246Y59866D01*
X99227Y59863D01*
X99224Y59859D01*
X99220D01*
X99316Y60295D01*
X100089D01*
Y60714D01*
X98979D01*
X98694Y59396D01*
X99061Y59315D01*
X99112Y59363D01*
X99157Y59400D01*
X99175Y59411D01*
X99190Y59419D01*
X99198Y59426D01*
X99201D01*
X99257Y59448D01*
X99305Y59459D01*
X99323Y59463D01*
X99349D01*
X99397Y59459D01*
X99442Y59448D01*
X99483Y59430D01*
X99516Y59411D01*
X99545Y59389D01*
X99564Y59374D01*
X99579Y59359D01*
X99582Y59356D01*
X99616Y59315D01*
X99642Y59271D01*
X99656Y59226D01*
X99671Y59185D01*
X99679Y59145D01*
X99682Y59115D01*
Y59097D01*
Y59093D01*
Y59089D01*
X99679Y59030D01*
X99668Y58975D01*
X99649Y58926D01*
X99630Y58886D01*
X99608Y58856D01*
X99594Y58830D01*
X99579Y58815D01*
X99575Y58812D01*
X99534Y58779D01*
X99494Y58753D01*
X99449Y58734D01*
X99412Y58723D01*
X99375Y58716D01*
X99349Y58708D01*
X99323D01*
X99283Y58712D01*
X99246Y58716D01*
X99212Y58727D01*
X99183Y58738D01*
X99157Y58745D01*
X99138Y58756D01*
X99127Y58760D01*
X99124Y58764D01*
X99094Y58786D01*
X99064Y58815D01*
X99038Y58841D01*
X99020Y58871D01*
X99005Y58893D01*
X98994Y58915D01*
X98987Y58930D01*
X98983Y58934D01*
X98509D01*
X98539Y58827D01*
X98583Y58730D01*
X98628Y58649D01*
X98676Y58582D01*
X98720Y58527D01*
X98739Y58505D01*
X98757Y58490D01*
X98772Y58475D01*
X98783Y58464D01*
X98787Y58460D01*
X98791Y58457D01*
X98831Y58427D01*
X98876Y58401D01*
X98965Y58357D01*
X99053Y58327D01*
X99135Y58309D01*
X99205Y58294D01*
X99235Y58290D01*
X99260D01*
X99283Y58286D01*
X98509D01*
D01*
X100123D01*
Y60714D01*
D02*
G37*
G36*
X102491D02*
D01*
Y58346D01*
X101636D01*
X102491Y60714D01*
X102032D01*
X101425Y59030D01*
X100829Y60714D01*
X100367D01*
D01*
X101203Y58346D01*
X100367D01*
X102491D01*
Y60714D01*
D02*
G37*
%LPD*%
G36*
X100123Y58286D02*
X99312D01*
X99375Y58290D01*
X99434Y58297D01*
X99490Y58309D01*
X99545Y58323D01*
X99642Y58360D01*
X99686Y58383D01*
X99727Y58405D01*
X99760Y58423D01*
X99793Y58446D01*
X99819Y58464D01*
X99845Y58482D01*
X99864Y58497D01*
X99875Y58508D01*
X99882Y58516D01*
X99886Y58520D01*
X99927Y58564D01*
X99963Y58612D01*
X99997Y58660D01*
X100023Y58712D01*
X100045Y58760D01*
X100063Y58808D01*
X100093Y58901D01*
X100104Y58941D01*
X100111Y58982D01*
X100115Y59015D01*
X100119Y59045D01*
X100123Y59071D01*
Y58286D01*
D02*
G37*
%LPC*%
G36*
X222022Y62243D02*
X221989D01*
X221911Y62239D01*
X221841Y62228D01*
X221778Y62217D01*
X221722Y62203D01*
X221678Y62184D01*
X221645Y62173D01*
X221622Y62162D01*
X221619Y62158D01*
X221615D01*
X221556Y62125D01*
X221508Y62084D01*
X221463Y62047D01*
X221430Y62006D01*
X221400Y61973D01*
X221378Y61947D01*
X221367Y61929D01*
X221363Y61921D01*
X221334Y61862D01*
X221312Y61807D01*
X221297Y61747D01*
X221286Y61696D01*
X221278Y61651D01*
X221275Y61614D01*
Y61592D01*
Y61588D01*
Y61585D01*
X221278Y61533D01*
X221282Y61485D01*
X221289Y61444D01*
X221301Y61403D01*
X221312Y61370D01*
X221319Y61348D01*
X221323Y61333D01*
X221326Y61326D01*
X221349Y61281D01*
X221375Y61241D01*
X221400Y61203D01*
X221426Y61170D01*
X221448Y61141D01*
X221467Y61118D01*
X221482Y61104D01*
X221486Y61100D01*
X221430Y61052D01*
X221378Y61004D01*
X221338Y60959D01*
X221304Y60915D01*
X221275Y60878D01*
X221256Y60848D01*
X221245Y60830D01*
X221241Y60822D01*
X221216Y60763D01*
X221197Y60704D01*
X221182Y60649D01*
X221175Y60597D01*
X221167Y60549D01*
X221164Y60515D01*
Y62243D01*
D01*
D01*
Y59757D01*
D01*
Y60482D01*
X221167Y60404D01*
X221179Y60330D01*
X221197Y60264D01*
X221216Y60208D01*
X221230Y60160D01*
X221249Y60123D01*
X221260Y60101D01*
X221264Y60097D01*
Y60093D01*
X221304Y60034D01*
X221349Y59983D01*
X221393Y59938D01*
X221437Y59901D01*
X221474Y59875D01*
X221504Y59853D01*
X221526Y59842D01*
X221534Y59838D01*
X221604Y59812D01*
X221678Y59790D01*
X221752Y59775D01*
X221826Y59768D01*
X221892Y59760D01*
X221922D01*
X221944Y59757D01*
X221164D01*
X221992D01*
X222089Y59760D01*
X222174Y59772D01*
X222248Y59783D01*
X222311Y59801D01*
X222362Y59816D01*
X222399Y59827D01*
X222411Y59834D01*
X222422Y59838D01*
X222425Y59842D01*
X222429D01*
X222492Y59879D01*
X222547Y59920D01*
X222592Y59964D01*
X222633Y60008D01*
X222666Y60045D01*
X222688Y60075D01*
X222703Y60097D01*
X222707Y60101D01*
Y60105D01*
X222740Y60171D01*
X222766Y60238D01*
X222784Y60301D01*
X222799Y60360D01*
X222806Y60408D01*
X222810Y60449D01*
Y60482D01*
X222806Y60552D01*
X222795Y60615D01*
X222780Y60678D01*
X222766Y60730D01*
X222751Y60771D01*
X222736Y60804D01*
X222725Y60826D01*
X222721Y60834D01*
X222684Y60893D01*
X222644Y60944D01*
X222603Y60989D01*
X222566Y61030D01*
X222529Y61059D01*
X222499Y61081D01*
X222481Y61096D01*
X222477Y61100D01*
X222474D01*
X222518Y61148D01*
X222555Y61192D01*
X222585Y61233D01*
X222607Y61270D01*
X222625Y61300D01*
X222636Y61322D01*
X222644Y61337D01*
X222647Y61340D01*
X222666Y61381D01*
X222677Y61426D01*
X222688Y61462D01*
X222692Y61500D01*
X222695Y61533D01*
X222699Y61555D01*
Y61573D01*
Y61577D01*
X222695Y61644D01*
X222684Y61707D01*
X222670Y61762D01*
X222655Y61814D01*
X222636Y61855D01*
X222621Y61888D01*
X222610Y61906D01*
X222607Y61914D01*
X222570Y61969D01*
X222529Y62018D01*
X222488Y62058D01*
X222448Y62091D01*
X222411Y62121D01*
X222381Y62140D01*
X222362Y62151D01*
X222359Y62154D01*
X222355D01*
X222292Y62184D01*
X222229Y62206D01*
X222170Y62221D01*
X222111Y62232D01*
X222063Y62239D01*
X222022Y62243D01*
D02*
G37*
G36*
X220968Y62184D02*
X218844D01*
Y59816D01*
D01*
Y62184D01*
X219680Y59816D01*
X220252D01*
X220113D01*
X220968Y62184D01*
D01*
D02*
G37*
G36*
X218126D02*
X217449D01*
X217190Y61762D01*
X217678D01*
Y59816D01*
X217190D01*
X218126D01*
Y62184D01*
D02*
G37*
G36*
X217190D02*
Y59816D01*
D01*
Y62184D01*
D02*
G37*
%LPD*%
G36*
X222018Y61807D02*
X222055Y61799D01*
X222089Y61788D01*
X222118Y61773D01*
X222141Y61759D01*
X222155Y61747D01*
X222166Y61740D01*
X222170Y61736D01*
X222196Y61707D01*
X222214Y61677D01*
X222229Y61647D01*
X222237Y61618D01*
X222244Y61592D01*
X222248Y61570D01*
Y61555D01*
Y61551D01*
X222244Y61507D01*
X222237Y61470D01*
X222222Y61437D01*
X222211Y61407D01*
X222196Y61385D01*
X222181Y61370D01*
X222174Y61359D01*
X222170Y61355D01*
X222141Y61329D01*
X222111Y61311D01*
X222078Y61300D01*
X222048Y61292D01*
X222022Y61285D01*
X222000Y61281D01*
X221981D01*
X221941Y61285D01*
X221904Y61292D01*
X221874Y61303D01*
X221845Y61318D01*
X221822Y61333D01*
X221808Y61344D01*
X221796Y61352D01*
X221793Y61355D01*
X221767Y61385D01*
X221748Y61418D01*
X221737Y61451D01*
X221730Y61481D01*
X221722Y61507D01*
X221719Y61529D01*
Y61544D01*
Y61548D01*
X221722Y61588D01*
X221730Y61625D01*
X221741Y61659D01*
X221756Y61685D01*
X221767Y61707D01*
X221778Y61721D01*
X221785Y61733D01*
X221789Y61736D01*
X221819Y61762D01*
X221848Y61781D01*
X221881Y61792D01*
X221911Y61803D01*
X221933Y61807D01*
X221955Y61810D01*
X221974D01*
X222018Y61807D01*
D02*
G37*
G36*
X222044Y60856D02*
X222096Y60845D01*
X222144Y60826D01*
X222181Y60811D01*
X222214Y60793D01*
X222237Y60774D01*
X222252Y60763D01*
X222255Y60760D01*
X222292Y60719D01*
X222318Y60678D01*
X222337Y60637D01*
X222348Y60597D01*
X222359Y60563D01*
X222362Y60537D01*
Y60519D01*
Y60512D01*
X222359Y60460D01*
X222348Y60412D01*
X222329Y60371D01*
X222311Y60338D01*
X222292Y60308D01*
X222274Y60290D01*
X222263Y60275D01*
X222259Y60271D01*
X222218Y60242D01*
X222174Y60219D01*
X222126Y60201D01*
X222081Y60190D01*
X222041Y60182D01*
X222011Y60179D01*
X221981D01*
X221922Y60182D01*
X221867Y60193D01*
X221819Y60208D01*
X221782Y60227D01*
X221748Y60245D01*
X221726Y60260D01*
X221711Y60271D01*
X221708Y60275D01*
X221674Y60316D01*
X221648Y60356D01*
X221630Y60397D01*
X221619Y60434D01*
X221611Y60467D01*
X221604Y60497D01*
Y60512D01*
Y60519D01*
X221608Y60571D01*
X221622Y60615D01*
X221641Y60656D01*
X221659Y60693D01*
X221682Y60719D01*
X221696Y60741D01*
X221711Y60756D01*
X221715Y60760D01*
X221759Y60793D01*
X221804Y60819D01*
X221852Y60834D01*
X221892Y60848D01*
X221933Y60856D01*
X221963Y60859D01*
X221989D01*
X222044Y60856D01*
D02*
G37*
G36*
X219902Y60501D02*
X219306Y62184D01*
X220509D01*
X219902Y60501D01*
D02*
G37*
%LPC*%
G36*
X85296Y40865D02*
X81605D01*
X83509D01*
X83348Y40859D01*
X83193Y40837D01*
X83048Y40809D01*
X82910Y40770D01*
X82782Y40720D01*
X82660Y40670D01*
X82554Y40609D01*
X82455Y40554D01*
X82366Y40499D01*
X82288Y40437D01*
X82222Y40387D01*
X82166Y40343D01*
X82122Y40299D01*
X82094Y40271D01*
X82072Y40249D01*
X82066Y40243D01*
X81983Y40143D01*
X81916Y40043D01*
X81855Y39938D01*
X81800Y39832D01*
X81755Y39727D01*
X81716Y39627D01*
X81689Y39527D01*
X81661Y39433D01*
X81644Y39350D01*
X81628Y39266D01*
X81622Y39194D01*
X81611Y39133D01*
Y39083D01*
X81605Y39050D01*
Y39083D01*
Y39017D01*
X81611Y38922D01*
X81616Y38828D01*
X81644Y38650D01*
X81683Y38484D01*
X81705Y38412D01*
X81733Y38345D01*
X81755Y38278D01*
X81777Y38223D01*
X81800Y38173D01*
X81816Y38134D01*
X81833Y38101D01*
X81844Y38079D01*
X81855Y38062D01*
Y38056D01*
X81955Y37901D01*
X82066Y37762D01*
X82183Y37646D01*
X82288Y37551D01*
X82388Y37474D01*
X82432Y37440D01*
X82466Y37418D01*
X82499Y37402D01*
X82521Y37385D01*
X82532Y37379D01*
X82538Y37374D01*
X82621Y37330D01*
X82704Y37296D01*
X82876Y37235D01*
X83043Y37196D01*
X83198Y37163D01*
X83265Y37157D01*
X83331Y37146D01*
X83387Y37141D01*
X83431D01*
X83470Y37135D01*
X85296D01*
X83526D01*
X83714Y37146D01*
X83886Y37168D01*
X84036Y37202D01*
X84109Y37224D01*
X84170Y37246D01*
X84225Y37263D01*
X84275Y37285D01*
X84319Y37302D01*
X84358Y37318D01*
X84386Y37330D01*
X84408Y37341D01*
X84419Y37352D01*
X84425D01*
X84563Y37440D01*
X84686Y37546D01*
X84797Y37651D01*
X84886Y37757D01*
X84958Y37846D01*
X84985Y37884D01*
X85008Y37923D01*
X85030Y37951D01*
X85041Y37973D01*
X85052Y37984D01*
Y37990D01*
X85096Y38068D01*
X85135Y38145D01*
X85191Y38306D01*
X85235Y38456D01*
X85268Y38589D01*
X85274Y38650D01*
X85285Y38706D01*
X85291Y38756D01*
Y38800D01*
X85296Y38833D01*
Y38878D01*
X85291Y39028D01*
X83504D01*
Y38395D01*
X84530D01*
X84469Y38284D01*
X84408Y38190D01*
X84342Y38112D01*
X84281Y38045D01*
X84225Y37995D01*
X84181Y37962D01*
X84153Y37940D01*
X84147Y37934D01*
X84142D01*
X84047Y37884D01*
X83947Y37851D01*
X83853Y37823D01*
X83759Y37807D01*
X83675Y37796D01*
X83614Y37790D01*
X83553D01*
X83454Y37796D01*
X83359Y37807D01*
X83270Y37823D01*
X83187Y37846D01*
X83104Y37873D01*
X83032Y37901D01*
X82960Y37934D01*
X82899Y37968D01*
X82843Y38001D01*
X82793Y38034D01*
X82749Y38062D01*
X82715Y38090D01*
X82688Y38112D01*
X82665Y38129D01*
X82654Y38140D01*
X82649Y38145D01*
X82582Y38212D01*
X82527Y38284D01*
X82477Y38356D01*
X82438Y38434D01*
X82399Y38506D01*
X82371Y38578D01*
X82327Y38717D01*
X82316Y38778D01*
X82305Y38833D01*
X82294Y38889D01*
X82288Y38933D01*
X82283Y38967D01*
Y38995D01*
Y39011D01*
Y39017D01*
X82288Y39105D01*
X82299Y39194D01*
X82316Y39277D01*
X82338Y39355D01*
X82393Y39500D01*
X82427Y39566D01*
X82460Y39622D01*
X82488Y39677D01*
X82521Y39722D01*
X82549Y39766D01*
X82577Y39799D01*
X82599Y39827D01*
X82616Y39844D01*
X82627Y39855D01*
X82632Y39860D01*
X82699Y39921D01*
X82771Y39977D01*
X82843Y40021D01*
X82921Y40060D01*
X82993Y40099D01*
X83065Y40127D01*
X83204Y40165D01*
X83265Y40182D01*
X83326Y40193D01*
X83376Y40199D01*
X83420Y40204D01*
X83459Y40210D01*
X83509D01*
X83620Y40204D01*
X83726Y40188D01*
X83831Y40165D01*
X83931Y40132D01*
X84020Y40099D01*
X84109Y40060D01*
X84192Y40016D01*
X84264Y39971D01*
X84330Y39921D01*
X84391Y39882D01*
X84441Y39838D01*
X84486Y39805D01*
X84519Y39771D01*
X84541Y39749D01*
X84558Y39733D01*
X84563Y39727D01*
X85041Y40199D01*
X84919Y40321D01*
X84797Y40426D01*
X84686Y40510D01*
X84586Y40576D01*
X84497Y40626D01*
X84464Y40648D01*
X84430Y40665D01*
X84408Y40676D01*
X84391Y40687D01*
X84380Y40693D01*
X84375D01*
X84219Y40748D01*
X84070Y40793D01*
X83925Y40820D01*
X83792Y40843D01*
X83731Y40848D01*
X83675Y40854D01*
X83631Y40859D01*
X83587Y40865D01*
X85296D01*
D01*
D02*
G37*
G36*
X90452Y40776D02*
X89581D01*
Y37224D01*
X92395D01*
D01*
X90513D01*
X90630Y37230D01*
X90735D01*
X90835Y37235D01*
X90918Y37246D01*
X91001Y37252D01*
X91068Y37257D01*
X91135Y37268D01*
X91185Y37274D01*
X91235Y37279D01*
X91273Y37291D01*
X91301Y37296D01*
X91329Y37302D01*
X91346D01*
X91351Y37307D01*
X91357D01*
X91462Y37346D01*
X91557Y37396D01*
X91645Y37446D01*
X91723Y37501D01*
X91790Y37546D01*
X91840Y37585D01*
X91867Y37613D01*
X91878Y37624D01*
X91962Y37712D01*
X92039Y37807D01*
X92101Y37907D01*
X92156Y37995D01*
X92200Y38073D01*
X92228Y38140D01*
X92239Y38162D01*
X92250Y38179D01*
X92256Y38190D01*
Y38195D01*
X92300Y38328D01*
X92334Y38456D01*
X92361Y38584D01*
X92378Y38700D01*
X92389Y38800D01*
Y38845D01*
X92395Y38883D01*
Y39055D01*
X92383Y39161D01*
X92356Y39350D01*
X92339Y39439D01*
X92317Y39522D01*
X92295Y39599D01*
X92273Y39672D01*
X92250Y39733D01*
X92228Y39788D01*
X92206Y39838D01*
X92189Y39877D01*
X92173Y39910D01*
X92162Y39938D01*
X92156Y39949D01*
X92150Y39955D01*
X92106Y40032D01*
X92056Y40104D01*
X91951Y40238D01*
X91845Y40343D01*
X91751Y40432D01*
X91662Y40499D01*
X91623Y40526D01*
X91590Y40543D01*
X91568Y40560D01*
X91545Y40571D01*
X91534Y40582D01*
X91529D01*
X91457Y40615D01*
X91373Y40648D01*
X91285Y40670D01*
X91190Y40693D01*
X91001Y40726D01*
X90813Y40754D01*
X90724Y40759D01*
X90646Y40765D01*
X90569Y40770D01*
X90508D01*
X90452Y40776D01*
D02*
G37*
G36*
X88765D02*
X85923D01*
Y37224D01*
X86595D01*
D01*
X87186D01*
X86595D01*
Y39549D01*
X88116Y37224D01*
X88765D01*
Y40776D01*
D02*
G37*
G36*
X83470Y37135D02*
D01*
X81605D01*
X83470D01*
D02*
G37*
%LPD*%
G36*
X90596Y40110D02*
X90702Y40104D01*
X90802Y40088D01*
X90891Y40071D01*
X90974Y40049D01*
X91046Y40027D01*
X91113Y39999D01*
X91174Y39977D01*
X91229Y39949D01*
X91273Y39921D01*
X91312Y39899D01*
X91340Y39877D01*
X91368Y39860D01*
X91385Y39844D01*
X91390Y39838D01*
X91396Y39832D01*
X91451Y39771D01*
X91501Y39705D01*
X91545Y39638D01*
X91584Y39566D01*
X91612Y39494D01*
X91640Y39422D01*
X91679Y39283D01*
X91690Y39216D01*
X91701Y39155D01*
X91706Y39100D01*
X91712Y39055D01*
X91717Y39017D01*
Y38983D01*
Y38967D01*
Y38961D01*
X91712Y38828D01*
X91695Y38711D01*
X91673Y38606D01*
X91651Y38517D01*
X91629Y38445D01*
X91606Y38390D01*
X91590Y38356D01*
X91584Y38351D01*
Y38345D01*
X91529Y38256D01*
X91473Y38184D01*
X91418Y38123D01*
X91362Y38073D01*
X91312Y38034D01*
X91273Y38012D01*
X91251Y37995D01*
X91240Y37990D01*
X91196Y37973D01*
X91151Y37957D01*
X91046Y37929D01*
X90935Y37912D01*
X90824Y37896D01*
X90724Y37890D01*
X90680D01*
X90641Y37884D01*
X90252D01*
Y40116D01*
X90480D01*
X90596Y40110D01*
D02*
G37*
G36*
X88093Y38434D02*
X86562Y40776D01*
X88093D01*
Y38434D01*
D02*
G37*
%LPC*%
G36*
X224594Y103862D02*
X223541D01*
X224039D01*
X223543Y103099D01*
X223043Y103862D01*
X222533D01*
X223287Y102707D01*
X222488Y101494D01*
X222999D01*
X223543Y102319D01*
X224083Y101494D01*
X223541D01*
X224594D01*
X223798Y102707D01*
X224553Y103862D01*
X224594D01*
D02*
G37*
G36*
X218921D02*
X217869D01*
X218366D01*
X217871Y103099D01*
X217371Y103862D01*
X216861D01*
X217615Y102707D01*
X216816Y101494D01*
X217327D01*
X217871Y102319D01*
X218411Y101494D01*
X217869D01*
X218921D01*
X218126Y102707D01*
X218881Y103862D01*
X218921D01*
D02*
G37*
G36*
X221352D02*
X220812D01*
Y101494D01*
X221260D01*
Y102496D01*
X221301D01*
X221837Y101494D01*
X222329D01*
X221767Y102544D01*
X221845Y102578D01*
X221915Y102615D01*
X221974Y102655D01*
X222018Y102692D01*
X222055Y102729D01*
X222081Y102755D01*
X222100Y102774D01*
X222104Y102781D01*
X222141Y102844D01*
X222170Y102911D01*
X222188Y102974D01*
X222203Y103036D01*
X222211Y103092D01*
X222218Y103136D01*
Y103151D01*
Y103162D01*
Y103170D01*
Y103173D01*
X222214Y103255D01*
X222203Y103329D01*
X222185Y103392D01*
X222166Y103451D01*
X222148Y103495D01*
X222129Y103529D01*
X222118Y103551D01*
X222115Y103558D01*
X222074Y103614D01*
X222029Y103662D01*
X221985Y103702D01*
X221944Y103736D01*
X221907Y103762D01*
X221874Y103777D01*
X221855Y103788D01*
X221852Y103791D01*
X221848D01*
X221815Y103802D01*
X221778Y103814D01*
X221689Y103832D01*
X221597Y103843D01*
X221508Y103854D01*
X221463D01*
X221423Y103858D01*
X221386D01*
X221352Y103862D01*
D02*
G37*
G36*
X216720D02*
X215406D01*
Y101494D01*
Y103418D01*
X215828D01*
Y101494D01*
X216720D01*
X216287D01*
Y103418D01*
X216720D01*
Y103862D01*
D02*
G37*
G36*
X220442Y103928D02*
X219062D01*
X220131D01*
X219062Y101072D01*
X219467D01*
X219373D01*
X220442Y103928D01*
D01*
D02*
G37*
%LPD*%
G36*
X221497Y103418D02*
X221541Y103414D01*
X221574Y103410D01*
X221600Y103403D01*
X221615Y103399D01*
X221626Y103395D01*
X221630D01*
X221678Y103369D01*
X221711Y103344D01*
X221733Y103321D01*
X221741Y103314D01*
Y103310D01*
X221756Y103288D01*
X221763Y103266D01*
X221778Y103221D01*
Y103203D01*
X221782Y103192D01*
Y103181D01*
Y103177D01*
X221778Y103133D01*
X221767Y103092D01*
X221756Y103062D01*
X221741Y103036D01*
X221722Y103018D01*
X221711Y103003D01*
X221700Y102996D01*
X221696Y102992D01*
X221659Y102974D01*
X221615Y102959D01*
X221567Y102951D01*
X221519Y102944D01*
X221474Y102940D01*
X221434Y102937D01*
X221260D01*
Y103421D01*
X221445D01*
X221497Y103418D01*
D02*
G37*
%LPC*%
G36*
X239698Y86684D02*
X237637D01*
X238392Y85530D01*
X237593Y84316D01*
D01*
X238103D01*
X238647Y85141D01*
X239187Y84316D01*
X238645D01*
X239698D01*
Y86684D01*
D02*
G37*
G36*
X237293D02*
X236845D01*
Y84316D01*
X237293D01*
Y86684D01*
D02*
G37*
G36*
X236479D02*
X235302D01*
Y84316D01*
X236479D01*
Y86684D01*
D02*
G37*
%LPD*%
G36*
X238647Y85922D02*
X238147Y86684D01*
X239143D01*
X238647Y85922D01*
D02*
G37*
G36*
X239698Y84316D02*
X238902Y85530D01*
X239657Y86684D01*
X239698D01*
Y84316D01*
D02*
G37*
G36*
X236479Y85818D02*
X235750D01*
Y86247D01*
X236479D01*
Y85818D01*
D02*
G37*
G36*
Y84316D02*
X235750D01*
Y85382D01*
X236479D01*
Y84316D01*
D02*
G37*
D10*
X272164Y36681D02*
G03*
X260462Y35024I-5164J-5681D01*
G01*
Y26976D02*
G03*
X272429Y25571I6538J4024D01*
G01*
X228051Y91500D02*
G03*
X228051Y91500I-394J0D01*
G01*
X154000Y153602D02*
G03*
X154984Y154587I0J984D01*
G01*
X153016Y154587D02*
G03*
X154000Y153602I984J0D01*
G01*
X175299Y154587D02*
G03*
X176284Y153602I984J0D01*
G01*
Y153602D02*
G03*
X177268Y154587I0J984D01*
G01*
X130732Y154587D02*
G03*
X131717Y153602I984J0D01*
G01*
Y153602D02*
G03*
X132701Y154587I0J984D01*
G01*
X257472Y57874D02*
G03*
X257472Y57874I-394J0D01*
G01*
X282472D02*
G03*
X282472Y57874I-394J0D01*
G01*
X296164Y36681D02*
G03*
X284462Y35024I-5164J-5681D01*
G01*
Y26976D02*
G03*
X296429Y25571I6538J4024D01*
G01*
X308962Y26976D02*
G03*
X320929Y25571I6538J4024D01*
G01*
X320664Y36681D02*
G03*
X308962Y35024I-5164J-5681D01*
G01*
X308472Y58874D02*
G03*
X308472Y58874I-394J0D01*
G01*
X95429Y49000D02*
G03*
X95429Y49000I-394J0D01*
G01*
X95236Y59500D02*
G03*
X95236Y59500I-394J0D01*
G01*
Y69500D02*
G03*
X95236Y69500I-394J0D01*
G01*
X210748Y111370D02*
G03*
X210748Y111370I-394J0D01*
G01*
X272500Y35000D02*
Y36345D01*
Y25571D02*
Y27000D01*
X272164Y36681D02*
X272500Y36345D01*
X52142Y48642D02*
Y62421D01*
X69858Y48642D02*
Y62421D01*
X65724Y66358D02*
X69858Y62421D01*
X52142D02*
X56276Y66358D01*
X52142Y48642D02*
X56374D01*
X65626D02*
X69858D01*
X282677Y176811D02*
X292323D01*
X275689Y153878D02*
Y176122D01*
X282677Y153189D02*
X292323D01*
X299311Y153878D02*
Y176122D01*
X36453Y42832D02*
X40587D01*
Y22753D02*
Y32793D01*
Y41257D02*
Y42832D01*
X6295Y41257D02*
Y42832D01*
Y22753D02*
Y32793D01*
Y5627D02*
Y14092D01*
Y42832D02*
X10429D01*
X39917Y5627D02*
Y14092D01*
X123843Y154783D02*
X184158D01*
X123843D02*
Y190217D01*
X184158D01*
Y154783D02*
Y190217D01*
X154984Y154587D02*
Y154783D01*
X153016Y154587D02*
Y154783D01*
X296500Y35000D02*
Y36345D01*
Y25571D02*
Y27000D01*
X296164Y36681D02*
X296500Y36345D01*
X320664Y36681D02*
X321000Y36345D01*
Y25571D02*
Y27000D01*
Y35000D02*
Y36345D01*
X237677Y176311D02*
X247323D01*
X230689Y153378D02*
Y175622D01*
X237677Y152689D02*
X247323D01*
X254311Y153378D02*
Y175622D01*
X148795Y138205D02*
X173205D01*
X148795Y113795D02*
X173205D01*
X148795D02*
Y138205D01*
X173205Y113795D02*
Y138205D01*
X158945Y60508D02*
X159732D01*
X158945D02*
Y61295D01*
Y73106D02*
Y73894D01*
X159732D01*
X171543D02*
X172331D01*
Y73106D02*
Y73894D01*
X171543Y60508D02*
X172331D01*
Y61295D01*
X177671Y47162D02*
X181608D01*
X177671Y34958D02*
X181608D01*
X177671D02*
Y47162D01*
X181608Y34958D02*
Y47162D01*
X85898Y106032D02*
Y109968D01*
X98102Y106032D02*
Y109968D01*
X85898Y106032D02*
X98102D01*
X85898Y109968D02*
X98102D01*
X36102Y142032D02*
Y145968D01*
X23898Y142032D02*
Y145968D01*
X36102D01*
X23898Y142032D02*
X36102D01*
D11*
X61492Y43130D02*
G03*
X61492Y43130I-492J0D01*
G01*
X296850Y186260D02*
G03*
X296850Y186260I-492J0D01*
G01*
X234079Y33913D02*
G03*
X234079Y33913I-492J0D01*
G01*
X253079D02*
G03*
X253079Y33913I-492J0D01*
G01*
X164492Y192165D02*
G03*
X164492Y192165I-492J0D01*
G01*
X251850Y185760D02*
G03*
X251850Y185760I-492J0D01*
G01*
X177831Y111728D02*
G03*
X177831Y111728I-492J0D01*
G01*
X160028Y57949D02*
G03*
X160028Y57949I-492J0D01*
G01*
X175112Y48048D02*
G03*
X175112Y48048I-492J0D01*
G01*
X99579Y113512D02*
G03*
X99579Y113512I-492J0D01*
G01*
X23405Y138488D02*
G03*
X23405Y138488I-492J0D01*
G01*
D12*
X218460Y12000D02*
G03*
X218460Y12000I-1500J0D01*
G01*
X331799D02*
G03*
X331799Y12000I-1500J0D01*
G01*
D13*
X330000Y176500D02*
G03*
X330000Y176500I-12500J0D01*
G01*
D14*
X247539Y131575D02*
G03*
X247539Y131575I-500J0D01*
G01*
X133850Y36850D02*
G03*
X133850Y36850I-500J0D01*
G01*
Y60850D02*
G03*
X133850Y60850I-500J0D01*
G01*
Y48850D02*
G03*
X133850Y48850I-500J0D01*
G01*
X209960Y5595D02*
Y17995D01*
X100260Y5595D02*
X209960D01*
X100260D02*
Y17995D01*
X209960D01*
X320996Y134835D02*
Y137000D01*
X257004Y73000D02*
Y75165D01*
Y134835D02*
Y137000D01*
X320996D01*
Y73000D02*
Y75165D01*
X257004Y73000D02*
X320996D01*
X127800Y41350D02*
X130982D01*
X127800Y47010D02*
Y48650D01*
X130982D01*
X127800Y41350D02*
Y42990D01*
Y65350D02*
X130982D01*
X127800Y71010D02*
Y72650D01*
X130982D01*
X127800Y65350D02*
Y66990D01*
Y53350D02*
X130982D01*
X127800Y59010D02*
Y60650D01*
X130982D01*
X127800Y53350D02*
Y54990D01*
X213599Y17995D02*
X323299D01*
X213599Y5595D02*
Y17995D01*
Y5595D02*
X323299D01*
Y17995D01*
X277000Y28999D02*
Y26000D01*
Y27000D01*
X278999Y28999D01*
X277500Y27499D01*
X278999Y26000D01*
X301000Y28999D02*
Y26000D01*
Y27000D01*
X302999Y28999D01*
X301500Y27499D01*
X302999Y26000D01*
X325500Y28999D02*
Y26000D01*
Y27000D01*
X327499Y28999D01*
X326000Y27499D01*
X327499Y26000D01*
D15*
X170449Y117732D02*
G03*
X170449Y117732I-1181J0D01*
G01*
D16*
X204600Y52000D02*
G03*
X204600Y52000I-1100J0D01*
G01*
D17*
X237535Y136862D02*
X244465D01*
X237535Y142138D02*
X244465D01*
X126035Y140638D02*
X132965D01*
X126035Y135362D02*
X132965D01*
X228917Y95555D02*
X243917D01*
X228917Y87445D02*
Y95555D01*
Y87445D02*
X243917D01*
X126035Y141862D02*
X132965D01*
X126035Y147138D02*
X132965D01*
X245638Y123535D02*
Y130465D01*
X240362Y123535D02*
Y130465D01*
X238638Y123535D02*
Y130465D01*
X233362Y123535D02*
Y130465D01*
X255898Y55905D02*
X264756D01*
Y51870D02*
Y55905D01*
X259244Y44094D02*
X264756D01*
Y48130D01*
X280898Y55905D02*
X289756D01*
Y51870D02*
Y55905D01*
X284244Y44094D02*
X289756D01*
Y48130D01*
X306898Y56906D02*
X315756D01*
Y52870D02*
Y56906D01*
X310244Y45094D02*
X315756D01*
Y49130D01*
X78776Y44945D02*
X93776D01*
Y53055D01*
X78776D02*
X93776D01*
X78583Y55445D02*
X93583D01*
Y63555D01*
X78583D02*
X93583D01*
X78583Y65445D02*
X93583D01*
Y73555D01*
X78583D02*
X93583D01*
X257807Y168791D02*
X271193D01*
X257807Y160209D02*
X271193D01*
X223535Y45138D02*
X230465D01*
X223535Y39862D02*
X230465D01*
X226362Y123535D02*
Y130465D01*
X231638Y123535D02*
Y130465D01*
X120209Y118807D02*
Y132193D01*
X128791Y118807D02*
Y132193D01*
X130362Y125035D02*
Y131965D01*
X135638Y125035D02*
Y131965D01*
X187638Y124535D02*
Y131465D01*
X182362Y124535D02*
Y131465D01*
X224291Y121307D02*
Y134693D01*
X215709Y121307D02*
Y134693D01*
X178175Y28422D02*
X185104D01*
X178175Y33698D02*
X185104D01*
X167931Y34367D02*
Y47753D01*
X159348Y34367D02*
Y47753D01*
X189348Y40367D02*
Y53753D01*
X197931Y40367D02*
Y53753D01*
X196862Y61535D02*
Y68465D01*
X202138Y61535D02*
Y68465D01*
X189862Y61535D02*
Y68465D01*
X195138Y61535D02*
Y68465D01*
X182862Y61535D02*
Y68465D01*
X188138Y61535D02*
Y68465D01*
X80535Y86638D02*
X87465D01*
X80535Y81362D02*
X87465D01*
X63709Y101307D02*
Y114693D01*
X72291Y101307D02*
Y114693D01*
X73709Y101307D02*
Y114693D01*
X82291Y101307D02*
Y114693D01*
X95307Y149709D02*
X108693D01*
X95307Y158291D02*
X108693D01*
X95307Y169709D02*
X108693D01*
X95307Y178291D02*
X108693D01*
X95307Y159709D02*
X108693D01*
X95307Y168291D02*
X108693D01*
X75307D02*
X88693D01*
X75307Y159709D02*
X88693D01*
X75307Y158291D02*
X88693D01*
X75307Y149709D02*
X88693D01*
X103307Y109709D02*
X116693D01*
X103307Y118291D02*
X116693D01*
X58291Y137307D02*
Y150693D01*
X49709Y137307D02*
Y150693D01*
X48291Y137307D02*
Y150693D01*
X39709Y137307D02*
Y150693D01*
X5307Y142291D02*
X18693D01*
X5307Y133709D02*
X18693D01*
X13307Y102291D02*
X26693D01*
X13307Y93709D02*
X26693D01*
X13307Y92291D02*
X26693D01*
X13307Y83709D02*
X26693D01*
X33307Y93709D02*
X46693D01*
X33307Y102291D02*
X46693D01*
X33307Y83709D02*
X46693D01*
X33307Y92291D02*
X46693D01*
X13307Y82291D02*
X26693D01*
X13307Y73709D02*
X26693D01*
D18*
X200200Y142900D02*
X212799D01*
X200165Y152100D02*
X213000D01*
X311701Y153100D02*
X324300D01*
X311500Y143900D02*
X324335D01*
X220595Y24957D02*
Y32043D01*
X232405Y24957D02*
Y32043D01*
X239595Y24957D02*
Y32043D01*
X251406Y24957D02*
Y32043D01*
X186500Y157858D02*
X226500D01*
X186500D02*
Y186205D01*
Y190142D01*
X226500D01*
Y186205D02*
Y190142D01*
Y157858D02*
Y186205D01*
X186500D02*
X226500D01*
X13701Y172600D02*
X26300D01*
X13500Y163400D02*
X26335D01*
X269400Y43701D02*
Y56300D01*
X278600Y43500D02*
Y56335D01*
X294400Y44701D02*
Y57300D01*
X303600Y44500D02*
Y57335D01*
X320400Y44701D02*
Y57300D01*
X329600Y44500D02*
Y57335D01*
X257701Y184100D02*
X270300D01*
X257500Y174900D02*
X270335D01*
X258200Y144900D02*
X270799D01*
X258165Y154100D02*
X271000D01*
X57000Y7795D02*
X97000D01*
X57000D02*
Y36142D01*
Y3858D02*
Y7795D01*
Y3858D02*
X97000D01*
Y7795D01*
Y36142D01*
X57000D02*
X97000D01*
X245600Y99700D02*
Y112299D01*
X236400Y99665D02*
Y112500D01*
X155100Y86700D02*
Y99299D01*
X145900Y86665D02*
Y99500D01*
X164100Y86700D02*
Y99299D01*
X154900Y86665D02*
Y99500D01*
X173100Y86700D02*
Y99299D01*
X163900Y86665D02*
Y99500D01*
X199047Y114220D02*
X204953D01*
X192157Y122882D02*
Y133118D01*
X211842Y122882D02*
Y133118D01*
X199047Y141779D02*
X204953D01*
X110900Y44701D02*
Y57300D01*
X120100Y44500D02*
Y57335D01*
X139701Y49600D02*
X152300D01*
X139500Y40400D02*
X152335D01*
X139701Y61600D02*
X152300D01*
X139500Y52400D02*
X152335D01*
X139701Y73600D02*
X152300D01*
X139500Y64400D02*
X152335D01*
X75701Y98600D02*
X88300D01*
X75500Y89400D02*
X88335D01*
X95500Y89400D02*
X108335D01*
X95701Y98600D02*
X108300D01*
X95666Y88600D02*
X108500D01*
X95700Y79400D02*
X108299D01*
X103701Y108600D02*
X116300D01*
X103500Y99400D02*
X116335D01*
X33701Y172600D02*
X46300D01*
X33500Y163400D02*
X46335D01*
X33700Y153400D02*
X46299D01*
X33665Y162600D02*
X46500D01*
X13666Y162600D02*
X26500D01*
X13700Y153400D02*
X26299D01*
X5700Y143400D02*
X18299D01*
X5665Y152600D02*
X18500D01*
D19*
X235500Y91500D02*
X237500D01*
Y89500D02*
Y93500D01*
X85193Y49000D02*
X87193D01*
X85193Y47000D02*
Y51000D01*
X85000Y59500D02*
X87000D01*
X85000Y57500D02*
Y61500D01*
Y69500D02*
X87000D01*
X85000Y67500D02*
Y71500D01*
D20*
X137000Y152000D02*
X155000D01*
X157000Y150000D01*
Y147500D02*
Y150000D01*
X155500Y146000D02*
X157000Y147500D01*
X139000Y146000D02*
X155500D01*
X136500Y148500D02*
X139000Y146000D01*
X201500Y104000D02*
X203500Y106000D01*
X201500Y101000D02*
X203500Y99000D01*
X204000D01*
X212000D02*
X214000Y101000D01*
X211500Y99000D02*
X212000D01*
X214000Y101500D02*
Y104000D01*
X212000Y106000D02*
X214000Y104000D01*
X211500Y106000D02*
X212000D01*
X201500Y101000D02*
Y104000D01*
X203500Y106000D02*
X210500D01*
X211500D01*
X210500Y99000D02*
X211500D01*
X204000D02*
X210500D01*
X214000Y101000D02*
Y104000D01*
X208500Y54000D02*
X213500D01*
X205000Y68000D02*
X216000D01*
X205000Y54000D02*
Y68000D01*
Y54000D02*
X216000D01*
Y68000D01*
X205500Y61500D02*
X212500Y54500D01*
X81303Y120701D02*
X102697D01*
Y147299D01*
X81303D02*
X102697D01*
X81303Y120701D02*
Y147299D01*
X19303Y131299D02*
X40697D01*
X19303Y104701D02*
Y131299D01*
Y104701D02*
X40697D01*
Y131299D01*
X214169Y4666D02*
Y2167D01*
X215418D01*
X215835Y2583D01*
Y4250D01*
X215418Y4666D01*
X214169D01*
X217917Y2167D02*
X217084D01*
X216668Y2583D01*
Y3416D01*
X217084Y3833D01*
X217917D01*
X218334Y3416D01*
Y3000D01*
X216668D01*
X219167Y4666D02*
Y2167D01*
X220416D01*
X220833Y2583D01*
Y3000D01*
Y3416D01*
X220416Y3833D01*
X219167D01*
X221666D02*
Y2583D01*
X222083Y2167D01*
X223332D01*
Y3833D01*
X224998Y1334D02*
X225415D01*
X225831Y1750D01*
Y3833D01*
X224582D01*
X224165Y3416D01*
Y2583D01*
X224582Y2167D01*
X225831D01*
X12000Y186499D02*
Y183500D01*
X13499D01*
X13999Y184000D01*
Y184500D01*
X13499Y185000D01*
X12000D01*
X13499D01*
X13999Y185499D01*
Y185999D01*
X13499Y186499D01*
X12000D01*
X14999D02*
X15999D01*
X15499D01*
Y183500D01*
X14999D01*
X15999D01*
X17498Y186499D02*
Y183500D01*
Y184500D01*
X19498Y186499D01*
X17998Y185000D01*
X19498Y183500D01*
X22497Y186499D02*
X20497D01*
Y183500D01*
X22497D01*
X20497Y185000D02*
X21497D01*
X26495Y186499D02*
Y183500D01*
X28495D01*
X30994Y186499D02*
X29994D01*
X29494Y185999D01*
Y184000D01*
X29994Y183500D01*
X30994D01*
X31494Y184000D01*
Y185999D01*
X30994Y186499D01*
X34493Y185999D02*
X33993Y186499D01*
X32993D01*
X32493Y185999D01*
Y184000D01*
X32993Y183500D01*
X33993D01*
X34493Y184000D01*
Y185000D01*
X33493D01*
X37492Y185999D02*
X36992Y186499D01*
X35992D01*
X35492Y185999D01*
Y184000D01*
X35992Y183500D01*
X36992D01*
X37492Y184000D01*
Y185000D01*
X36492D01*
X40491Y186499D02*
X38491D01*
Y183500D01*
X40491D01*
X38491Y185000D02*
X39491D01*
X41491Y183500D02*
Y186499D01*
X42990D01*
X43490Y185999D01*
Y185000D01*
X42990Y184500D01*
X41491D01*
X42490D02*
X43490Y183500D01*
X47488D02*
Y186499D01*
X48988D01*
X49488Y185999D01*
Y185000D01*
X48988Y184500D01*
X47488D01*
X48488D02*
X49488Y183500D01*
X51987D02*
X50987D01*
X50488Y184000D01*
Y185000D01*
X50987Y185499D01*
X51987D01*
X52487Y185000D01*
Y184500D01*
X50488D01*
X53487Y185499D02*
X54486Y183500D01*
X55486Y185499D01*
X56486Y183500D02*
X57485D01*
X56985D01*
Y186499D01*
X56486Y185999D01*
X13999Y179499D02*
X12000D01*
Y176500D01*
X13999D01*
X12000Y177999D02*
X13000D01*
X14999Y176500D02*
X15999D01*
X15499D01*
Y179499D01*
X14999D01*
X17498Y176500D02*
X18498D01*
X17998D01*
Y179499D01*
X17498D01*
X19997Y176500D02*
X20997D01*
X20497D01*
Y178499D01*
X19997D01*
X22996Y176500D02*
X23996D01*
X24496Y177000D01*
Y177999D01*
X23996Y178499D01*
X22996D01*
X22497Y177999D01*
Y177000D01*
X22996Y176500D01*
X25995Y178999D02*
Y178499D01*
X25496D01*
X26495D01*
X25995D01*
Y177000D01*
X26495Y176500D01*
X28495Y178999D02*
Y178499D01*
X27995D01*
X28995D01*
X28495D01*
Y177000D01*
X28995Y176500D01*
X33493D02*
Y179499D01*
X34493Y178499D01*
X35492Y179499D01*
Y176500D01*
X37992D02*
X36992D01*
X36492Y177000D01*
Y177999D01*
X36992Y178499D01*
X37992D01*
X38491Y177999D01*
Y177500D01*
X36492D01*
X40991Y176500D02*
X39991D01*
X39491Y177000D01*
Y177999D01*
X39991Y178499D01*
X40991D01*
X41490Y177999D01*
Y177500D01*
X39491D01*
X42490Y176500D02*
Y179499D01*
Y177500D02*
X43990Y178499D01*
X42490Y177500D02*
X43990Y176500D01*
X45489D02*
X46989D01*
X47488Y177000D01*
X46989Y177500D01*
X45989D01*
X45489Y177999D01*
X45989Y178499D01*
X47488D01*
X53487Y176500D02*
X51487D01*
X53487Y178499D01*
Y178999D01*
X52987Y179499D01*
X51987D01*
X51487Y178999D01*
X54486Y176500D02*
X56486Y178499D01*
X59485Y176500D02*
X57485D01*
X59485Y178499D01*
Y178999D01*
X58985Y179499D01*
X57985D01*
X57485Y178999D01*
X61984Y176500D02*
Y179499D01*
X60484Y177999D01*
X62484D01*
X104917Y4750D02*
Y2250D01*
X106167D01*
X106583Y2667D01*
Y3084D01*
X106167Y3500D01*
X104917D01*
X106167D01*
X106583Y3917D01*
Y4333D01*
X106167Y4750D01*
X104917D01*
X109083Y2250D02*
X107416D01*
X109083Y3917D01*
Y4333D01*
X108666Y4750D01*
X107833D01*
X107416Y4333D01*
X313668D02*
X314084Y4750D01*
X314917D01*
X315334Y4333D01*
Y3917D01*
X314917Y3500D01*
X314501D01*
X314917D01*
X315334Y3084D01*
Y2667D01*
X314917Y2250D01*
X314084D01*
X313668Y2667D01*
X316167Y4750D02*
Y3084D01*
X317000Y2250D01*
X317833Y3084D01*
Y4750D01*
X318666Y4333D02*
X319083Y4750D01*
X319916D01*
X320332Y4333D01*
Y3917D01*
X319916Y3500D01*
X319499D01*
X319916D01*
X320332Y3084D01*
Y2667D01*
X319916Y2250D01*
X319083D01*
X318666Y2667D01*
X301334Y4333D02*
X300917Y4750D01*
X300084D01*
X299668Y4333D01*
Y2667D01*
X300084Y2250D01*
X300917D01*
X301334Y2667D01*
Y3500D01*
X300501D01*
X302167Y2250D02*
Y4750D01*
X303833Y2250D01*
Y4750D01*
X304666D02*
Y2250D01*
X305916D01*
X306332Y2667D01*
Y4333D01*
X305916Y4750D01*
X304666D01*
X287417D02*
Y2250D01*
X289084D01*
X291583Y4333D02*
X291166Y4750D01*
X290333D01*
X289916Y4333D01*
Y3917D01*
X290333Y3500D01*
X291166D01*
X291583Y3084D01*
Y2667D01*
X291166Y2250D01*
X290333D01*
X289916Y2667D01*
X273417D02*
X273834Y2250D01*
X274667D01*
X275083Y2667D01*
Y4333D01*
X274667Y4750D01*
X273834D01*
X273417Y4333D01*
Y3917D01*
X273834Y3500D01*
X275083D01*
X275917Y4750D02*
Y3084D01*
X276750Y2250D01*
X277583Y3084D01*
Y4750D01*
X257126D02*
Y2250D01*
X258376D01*
X258792Y2667D01*
Y3084D01*
X258376Y3500D01*
X257126D01*
X258376D01*
X258792Y3917D01*
Y4333D01*
X258376Y4750D01*
X257126D01*
X259626D02*
X260459D01*
X260042D01*
Y2250D01*
X259626D01*
X260459D01*
X261708Y4750D02*
Y2250D01*
Y3084D01*
X263374Y4750D01*
X262125Y3500D01*
X263374Y2250D01*
X265874Y4750D02*
X264208D01*
Y2250D01*
X265874D01*
X264208Y3500D02*
X265040D01*
X245917Y2667D02*
X246334Y2250D01*
X247167D01*
X247584Y2667D01*
Y4333D01*
X247167Y4750D01*
X246334D01*
X245917Y4333D01*
Y3917D01*
X246334Y3500D01*
X247584D01*
X248416Y4750D02*
Y3084D01*
X249250Y2250D01*
X250083Y3084D01*
Y4750D01*
X230668D02*
Y2250D01*
X232334D01*
X234833Y4333D02*
X234417Y4750D01*
X233583D01*
X233167Y4333D01*
Y2667D01*
X233583Y2250D01*
X234417D01*
X234833Y2667D01*
X235666Y4750D02*
Y2250D01*
X236916D01*
X237332Y2667D01*
Y4333D01*
X236916Y4750D01*
X235666D01*
X203083D02*
X201417D01*
Y3500D01*
X202250Y3917D01*
X202667D01*
X203083Y3500D01*
Y2667D01*
X202667Y2250D01*
X201834D01*
X201417Y2667D01*
X203917Y4750D02*
Y3084D01*
X204750Y2250D01*
X205583Y3084D01*
Y4750D01*
X187834Y4333D02*
X187417Y4750D01*
X186584D01*
X186168Y4333D01*
Y2667D01*
X186584Y2250D01*
X187417D01*
X187834Y2667D01*
Y3500D01*
X187001D01*
X188667Y2250D02*
Y4750D01*
X190333Y2250D01*
Y4750D01*
X191166D02*
Y2250D01*
X192416D01*
X192832Y2667D01*
Y4333D01*
X192416Y4750D01*
X191166D01*
X174334Y4333D02*
X173917Y4750D01*
X173084D01*
X172668Y4333D01*
Y3917D01*
X173084Y3500D01*
X173917D01*
X174334Y3084D01*
Y2667D01*
X173917Y2250D01*
X173084D01*
X172668Y2667D01*
X175167Y4750D02*
Y2250D01*
X176417D01*
X176833Y2667D01*
Y4333D01*
X176417Y4750D01*
X175167D01*
X177666Y2250D02*
Y3917D01*
X178499Y4750D01*
X179332Y3917D01*
Y2250D01*
Y3500D01*
X177666D01*
X160334Y4333D02*
X159917Y4750D01*
X159084D01*
X158668Y4333D01*
Y3917D01*
X159084Y3500D01*
X159917D01*
X160334Y3084D01*
Y2667D01*
X159917Y2250D01*
X159084D01*
X158668Y2667D01*
X162833Y4333D02*
X162417Y4750D01*
X161583D01*
X161167Y4333D01*
Y2667D01*
X161583Y2250D01*
X162417D01*
X162833Y2667D01*
X163666Y4750D02*
Y2250D01*
X165332D01*
X144668Y4333D02*
X145084Y4750D01*
X145917D01*
X146334Y4333D01*
Y3917D01*
X145917Y3500D01*
X145501D01*
X145917D01*
X146334Y3084D01*
Y2667D01*
X145917Y2250D01*
X145084D01*
X144668Y2667D01*
X147167Y4750D02*
Y3084D01*
X148000Y2250D01*
X148833Y3084D01*
Y4750D01*
X149666Y4333D02*
X150083Y4750D01*
X150916D01*
X151332Y4333D01*
Y3917D01*
X150916Y3500D01*
X150499D01*
X150916D01*
X151332Y3084D01*
Y2667D01*
X150916Y2250D01*
X150083D01*
X149666Y2667D01*
X132834Y4333D02*
X132417Y4750D01*
X131584D01*
X131168Y4333D01*
Y2667D01*
X131584Y2250D01*
X132417D01*
X132834Y2667D01*
Y3500D01*
X132001D01*
X133667Y2250D02*
Y4750D01*
X135333Y2250D01*
Y4750D01*
X136166D02*
Y2250D01*
X137416D01*
X137832Y2667D01*
Y4333D01*
X137416Y4750D01*
X136166D01*
X118834D02*
Y2250D01*
X120083D01*
X120500Y2667D01*
Y3084D01*
X120083Y3500D01*
X118834D01*
X120083D01*
X120500Y3917D01*
Y4333D01*
X120083Y4750D01*
X118834D01*
X121333Y2250D02*
X122166D01*
X121750D01*
Y4750D01*
X121333Y4333D01*
X59001Y73000D02*
X58501Y73500D01*
X57501D01*
X57001Y73000D01*
Y71000D01*
X57501Y70500D01*
X58501D01*
X59001Y71000D01*
X60000Y73000D02*
X60500Y73500D01*
X61500D01*
X62000Y73000D01*
Y72500D01*
X61500Y72000D01*
X61000D01*
X61500D01*
X62000Y71500D01*
Y71000D01*
X61500Y70500D01*
X60500D01*
X60000Y71000D01*
X64499Y70500D02*
Y73500D01*
X62999Y72000D01*
X64999D01*
X247501Y138500D02*
Y141499D01*
X249001D01*
X249501Y141000D01*
Y140000D01*
X249001Y139500D01*
X247501D01*
X248501D02*
X249501Y138500D01*
X250500Y141000D02*
X251000Y141499D01*
X252000D01*
X252500Y141000D01*
Y140500D01*
X252000Y140000D01*
X251500D01*
X252000D01*
X252500Y139500D01*
Y139000D01*
X252000Y138500D01*
X251000D01*
X250500Y139000D01*
X254999Y138500D02*
Y141499D01*
X253499Y140000D01*
X255499D01*
X116001Y136501D02*
Y139499D01*
X117501D01*
X118000Y139000D01*
Y138000D01*
X117501Y137500D01*
X116001D01*
X117001D02*
X118000Y136501D01*
X121000D02*
X119000D01*
X121000Y138500D01*
Y139000D01*
X120500Y139499D01*
X119500D01*
X119000Y139000D01*
X121999Y136501D02*
X122999D01*
X122499D01*
Y139499D01*
X121999Y139000D01*
X247500Y89001D02*
X250500D01*
Y90500D01*
X250000Y91000D01*
X248000D01*
X247500Y90500D01*
Y89001D01*
X248000Y92000D02*
X247500Y92500D01*
Y93499D01*
X248000Y93999D01*
X248500D01*
X249000Y93499D01*
X249500Y93999D01*
X250000D01*
X250500Y93499D01*
Y92500D01*
X250000Y92000D01*
X249500D01*
X249000Y92500D01*
X248500Y92000D01*
X248000D01*
X249000Y92500D02*
Y93499D01*
X278251Y188750D02*
X277751Y189249D01*
X276752D01*
X276252Y188750D01*
Y188250D01*
X276752Y187750D01*
X277751D01*
X278251Y187250D01*
Y186750D01*
X277751Y186250D01*
X276752D01*
X276252Y186750D01*
X279251Y186250D02*
X280251D01*
X279751D01*
Y189249D01*
X279251Y188750D01*
X281750Y185751D02*
X283750D01*
X284749Y189249D02*
Y186250D01*
X286249D01*
X286749Y186750D01*
Y187250D01*
X286249Y187750D01*
X284749D01*
X286249D01*
X286749Y188250D01*
Y188750D01*
X286249Y189249D01*
X284749D01*
X287748Y186250D02*
X288748D01*
X288248D01*
Y189249D01*
X287748Y188750D01*
X314001Y154500D02*
Y157500D01*
X315501D01*
X316001Y157000D01*
Y156000D01*
X315501Y155500D01*
X314001D01*
X315001D02*
X316001Y154500D01*
X317000Y157000D02*
X317500Y157500D01*
X318500D01*
X319000Y157000D01*
Y156500D01*
X318500Y156000D01*
X318000D01*
X318500D01*
X319000Y155500D01*
Y155000D01*
X318500Y154500D01*
X317500D01*
X317000Y155000D01*
X321999Y154500D02*
X319999D01*
X321999Y156500D01*
Y157000D01*
X321499Y157500D01*
X320499D01*
X319999Y157000D01*
X326001Y164499D02*
Y161501D01*
Y163000D01*
X328000D01*
Y164499D01*
Y161501D01*
X329000D02*
X329999D01*
X329500D01*
Y164499D01*
X329000Y164000D01*
X216501Y146001D02*
Y149000D01*
X218001D01*
X218501Y148500D01*
Y147500D01*
X218001Y147000D01*
X216501D01*
X217501D02*
X218501Y146001D01*
X219500Y148500D02*
X220000Y149000D01*
X221000D01*
X221500Y148500D01*
Y148000D01*
X221000Y147500D01*
X220500D01*
X221000D01*
X221500Y147000D01*
Y146500D01*
X221000Y146001D01*
X220000D01*
X219500Y146500D01*
X222499Y148500D02*
X222999Y149000D01*
X223999D01*
X224499Y148500D01*
Y146500D01*
X223999Y146001D01*
X222999D01*
X222499Y146500D01*
Y148500D01*
X117501Y146500D02*
X117001Y147000D01*
X116001D01*
X115501Y146500D01*
Y144500D01*
X116001Y144000D01*
X117001D01*
X117501Y144500D01*
X118500Y146500D02*
X119000Y147000D01*
X120000D01*
X120500Y146500D01*
Y146000D01*
X120000Y145500D01*
X119500D01*
X120000D01*
X120500Y145000D01*
Y144500D01*
X120000Y144000D01*
X119000D01*
X118500Y144500D01*
X121499Y146500D02*
X121999Y147000D01*
X122999D01*
X123499Y146500D01*
Y146000D01*
X122999Y145500D01*
X122499D01*
X122999D01*
X123499Y145000D01*
Y144500D01*
X122999Y144000D01*
X121999D01*
X121499Y144500D01*
X165001Y102500D02*
Y105499D01*
X166501D01*
X167001Y105000D01*
Y104000D01*
X166501Y103500D01*
X165001D01*
X166001D02*
X167001Y102500D01*
X170000D02*
X168000D01*
X170000Y104500D01*
Y105000D01*
X169500Y105499D01*
X168500D01*
X168000Y105000D01*
X170999Y105499D02*
X172999D01*
Y105000D01*
X170999Y103000D01*
Y102500D01*
X156501Y51500D02*
Y54500D01*
X158001D01*
X158501Y54000D01*
Y53000D01*
X158001Y52500D01*
X156501D01*
X157501D02*
X158501Y51500D01*
X159500Y54000D02*
X160000Y54500D01*
X161000D01*
X161500Y54000D01*
Y53500D01*
X161000Y53000D01*
X160500D01*
X161000D01*
X161500Y52500D01*
Y52000D01*
X161000Y51500D01*
X160000D01*
X159500Y52000D01*
X162499Y51500D02*
X163499D01*
X162999D01*
Y54500D01*
X162499Y54000D01*
X233252Y187750D02*
X232752Y188249D01*
X231752D01*
X231252Y187750D01*
Y187250D01*
X231752Y186750D01*
X232752D01*
X233252Y186250D01*
Y185750D01*
X232752Y185250D01*
X231752D01*
X231252Y185750D01*
X234251Y185250D02*
X235251D01*
X234751D01*
Y188249D01*
X234251Y187750D01*
X236750Y184751D02*
X238750D01*
X239749Y188249D02*
Y185250D01*
X241249D01*
X241749Y185750D01*
Y186250D01*
X241249Y186750D01*
X239749D01*
X241249D01*
X241749Y187250D01*
Y187750D01*
X241249Y188249D01*
X239749D01*
X244748Y185250D02*
X242748D01*
X244748Y187250D01*
Y187750D01*
X244248Y188249D01*
X243248D01*
X242748Y187750D01*
X184001Y119000D02*
Y118500D01*
X185000Y117500D01*
X186000Y118500D01*
Y119000D01*
X185000Y117500D02*
Y116000D01*
X187000D02*
X187999D01*
X187499D01*
Y119000D01*
X187000Y118500D01*
X164001Y79000D02*
Y76500D01*
X164501Y76000D01*
X165500D01*
X166000Y76500D01*
Y79000D01*
X168999D02*
X167999Y78500D01*
X167000Y77500D01*
Y76500D01*
X167500Y76000D01*
X168499D01*
X168999Y76500D01*
Y77000D01*
X168499Y77500D01*
X167000D01*
X179501Y52500D02*
Y50000D01*
X180001Y49501D01*
X181000D01*
X181500Y50000D01*
Y52500D01*
X184499D02*
X182500D01*
Y51000D01*
X183500Y51500D01*
X183999D01*
X184499Y51000D01*
Y50000D01*
X183999Y49501D01*
X183000D01*
X182500Y50000D01*
X33501Y135500D02*
Y133000D01*
X34001Y132501D01*
X35000D01*
X35500Y133000D01*
Y135500D01*
X37999Y132501D02*
Y135500D01*
X36500Y134000D01*
X38499D01*
X83501Y119500D02*
Y117000D01*
X84001Y116500D01*
X85000D01*
X85500Y117000D01*
Y119500D01*
X86500Y119000D02*
X87000Y119500D01*
X87999D01*
X88499Y119000D01*
Y118500D01*
X87999Y118000D01*
X87499D01*
X87999D01*
X88499Y117500D01*
Y117000D01*
X87999Y116500D01*
X87000D01*
X86500Y117000D01*
X286501Y142499D02*
Y140000D01*
X287001Y139500D01*
X288000D01*
X288500Y140000D01*
Y142499D01*
X291499Y139500D02*
X289500D01*
X291499Y141500D01*
Y142000D01*
X290999Y142499D01*
X290000D01*
X289500Y142000D01*
X142001Y111000D02*
Y108500D01*
X142500Y108001D01*
X143500D01*
X144000Y108500D01*
Y111000D01*
X145000Y108001D02*
X145999D01*
X145500D01*
Y111000D01*
X145000Y110500D01*
X142001Y35500D02*
Y38500D01*
X143501D01*
X144001Y38000D01*
Y37000D01*
X143501Y36500D01*
X142001D01*
X143001D02*
X144001Y35500D01*
X147000D02*
X145000D01*
X147000Y37500D01*
Y38000D01*
X146500Y38500D01*
X145500D01*
X145000Y38000D01*
X147999Y36000D02*
X148499Y35500D01*
X149499D01*
X149999Y36000D01*
Y38000D01*
X149499Y38500D01*
X148499D01*
X147999Y38000D01*
Y37500D01*
X148499Y37000D01*
X149999D01*
X111501Y61001D02*
Y63999D01*
X113001D01*
X113501Y63500D01*
Y62500D01*
X113001Y62000D01*
X111501D01*
X112501D02*
X113501Y61001D01*
X116500D02*
X114500D01*
X116500Y63000D01*
Y63500D01*
X116000Y63999D01*
X115000D01*
X114500Y63500D01*
X117499D02*
X117999Y63999D01*
X118999D01*
X119499Y63500D01*
Y63000D01*
X118999Y62500D01*
X119499Y62000D01*
Y61500D01*
X118999Y61001D01*
X117999D01*
X117499Y61500D01*
Y62000D01*
X117999Y62500D01*
X117499Y63000D01*
Y63500D01*
X117999Y62500D02*
X118999D01*
X140001Y75501D02*
Y78500D01*
X141501D01*
X142001Y78000D01*
Y77000D01*
X141501Y76500D01*
X140001D01*
X141001D02*
X142001Y75501D01*
X145000D02*
X143000D01*
X145000Y77500D01*
Y78000D01*
X144500Y78500D01*
X143500D01*
X143000Y78000D01*
X147999Y78500D02*
X146999Y78000D01*
X145999Y77000D01*
Y76000D01*
X146499Y75501D01*
X147499D01*
X147999Y76000D01*
Y76500D01*
X147499Y77000D01*
X145999D01*
X9499Y164001D02*
X6500D01*
Y165501D01*
X7000Y166001D01*
X8000D01*
X8500Y165501D01*
Y164001D01*
Y165001D02*
X9499Y166001D01*
Y169000D02*
Y167000D01*
X7500Y169000D01*
X7000D01*
X6500Y168500D01*
Y167500D01*
X7000Y167000D01*
X9499Y171999D02*
Y169999D01*
X7500Y171999D01*
X7000D01*
X6500Y171499D01*
Y170499D01*
X7000Y169999D01*
X235500Y102001D02*
X232501D01*
Y103501D01*
X233000Y104001D01*
X234000D01*
X234500Y103501D01*
Y102001D01*
Y103001D02*
X235500Y104001D01*
Y107000D02*
Y105000D01*
X233500Y107000D01*
X233000D01*
X232501Y106500D01*
Y105500D01*
X233000Y105000D01*
Y107999D02*
X232501Y108499D01*
Y109499D01*
X233000Y109999D01*
X235000D01*
X235500Y109499D01*
Y108499D01*
X235000Y107999D01*
X233000D01*
X9499Y154251D02*
X6500D01*
Y155751D01*
X7000Y156251D01*
X8000D01*
X8500Y155751D01*
Y154251D01*
Y155251D02*
X9499Y156251D01*
Y157250D02*
Y158250D01*
Y157750D01*
X6500D01*
X7000Y157250D01*
X6500Y161749D02*
X7000Y160749D01*
X8000Y159749D01*
X9000D01*
X9499Y160249D01*
Y161249D01*
X9000Y161749D01*
X8500D01*
X8000Y161249D01*
Y159749D01*
X115499Y80251D02*
X112501D01*
Y81751D01*
X113000Y82251D01*
X114000D01*
X114500Y81751D01*
Y80251D01*
Y81251D02*
X115499Y82251D01*
Y83250D02*
Y84250D01*
Y83750D01*
X112501D01*
X113000Y83250D01*
X112501Y87749D02*
Y85749D01*
X114000D01*
X113500Y86749D01*
Y87249D01*
X114000Y87749D01*
X115000D01*
X115499Y87249D01*
Y86249D01*
X115000Y85749D01*
X71500Y90251D02*
X68501D01*
Y91751D01*
X69000Y92251D01*
X70000D01*
X70500Y91751D01*
Y90251D01*
Y91251D02*
X71500Y92251D01*
Y93250D02*
Y94250D01*
Y93750D01*
X68501D01*
X69000Y93250D01*
X71500Y97249D02*
X68501D01*
X70000Y95749D01*
Y97749D01*
X53500Y154251D02*
X50501D01*
Y155751D01*
X51000Y156251D01*
X52000D01*
X52500Y155751D01*
Y154251D01*
Y155251D02*
X53500Y156251D01*
Y157250D02*
Y158250D01*
Y157750D01*
X50501D01*
X51000Y157250D01*
Y159749D02*
X50501Y160249D01*
Y161249D01*
X51000Y161749D01*
X51500D01*
X52000Y161249D01*
Y160749D01*
Y161249D01*
X52500Y161749D01*
X53000D01*
X53500Y161249D01*
Y160249D01*
X53000Y159749D01*
X53500Y164251D02*
X50501D01*
Y165751D01*
X51000Y166251D01*
X52000D01*
X52500Y165751D01*
Y164251D01*
Y165251D02*
X53500Y166251D01*
Y167250D02*
Y168250D01*
Y167750D01*
X50501D01*
X51000Y167250D01*
X53500Y171749D02*
Y169749D01*
X51500Y171749D01*
X51000D01*
X50501Y171249D01*
Y170249D01*
X51000Y169749D01*
X115499Y90251D02*
X112501D01*
Y91751D01*
X113000Y92251D01*
X114000D01*
X114500Y91751D01*
Y90251D01*
Y91251D02*
X115499Y92251D01*
Y93250D02*
Y94250D01*
Y93750D01*
X112501D01*
X113000Y93250D01*
Y95749D02*
X112501Y96249D01*
Y97249D01*
X113000Y97749D01*
X115000D01*
X115499Y97249D01*
Y96249D01*
X115000Y95749D01*
X113000D01*
X76999Y81501D02*
X74001D01*
Y83000D01*
X74500Y83500D01*
X75500D01*
X76000Y83000D01*
Y81501D01*
Y82500D02*
X76999Y83500D01*
X76500Y84500D02*
X76999Y85000D01*
Y85999D01*
X76500Y86499D01*
X74500D01*
X74001Y85999D01*
Y85000D01*
X74500Y84500D01*
X75000D01*
X75500Y85000D01*
Y86499D01*
X123500Y101501D02*
X120501D01*
Y103000D01*
X121000Y103500D01*
X122000D01*
X122500Y103000D01*
Y101501D01*
Y102500D02*
X123500Y103500D01*
X121000Y104500D02*
X120501Y105000D01*
Y105999D01*
X121000Y106499D01*
X121500D01*
X122000Y105999D01*
X122500Y106499D01*
X123000D01*
X123500Y105999D01*
Y105000D01*
X123000Y104500D01*
X122500D01*
X122000Y105000D01*
X121500Y104500D01*
X121000D01*
X122000Y105000D02*
Y105999D01*
X157001Y102500D02*
Y105499D01*
X158500D01*
X159000Y105000D01*
Y104000D01*
X158500Y103500D01*
X157001D01*
X158001D02*
X159000Y102500D01*
X160000Y105499D02*
X161999D01*
Y105000D01*
X160000Y103000D01*
Y102500D01*
X148001D02*
Y105499D01*
X149500D01*
X150000Y105000D01*
Y104000D01*
X149500Y103500D01*
X148001D01*
X149001D02*
X150000Y102500D01*
X152999Y105499D02*
X151999Y105000D01*
X151000Y104000D01*
Y103000D01*
X151500Y102500D01*
X152499D01*
X152999Y103000D01*
Y103500D01*
X152499Y104000D01*
X151000D01*
X296501Y60501D02*
Y63499D01*
X298000D01*
X298500Y63000D01*
Y62000D01*
X298000Y61500D01*
X296501D01*
X297500D02*
X298500Y60501D01*
X301499Y63499D02*
X299500D01*
Y62000D01*
X300500Y62500D01*
X300999D01*
X301499Y62000D01*
Y61000D01*
X300999Y60501D01*
X300000D01*
X299500Y61000D01*
X271501Y59500D02*
Y62499D01*
X273000D01*
X273500Y62000D01*
Y61000D01*
X273000Y60500D01*
X271501D01*
X272500D02*
X273500Y59500D01*
X275999D02*
Y62499D01*
X274500Y61000D01*
X276499D01*
X322501Y60501D02*
Y63499D01*
X324000D01*
X324500Y63000D01*
Y62000D01*
X324000Y61500D01*
X322501D01*
X323500D02*
X324500Y60501D01*
X325500Y63000D02*
X326000Y63499D01*
X326999D01*
X327499Y63000D01*
Y62500D01*
X326999Y62000D01*
X326500D01*
X326999D01*
X327499Y61500D01*
Y61000D01*
X326999Y60501D01*
X326000D01*
X325500Y61000D01*
X257502Y155750D02*
Y158749D01*
X259002D01*
X259502Y158250D01*
Y157250D01*
X259002Y156750D01*
X257502D01*
X258502D02*
X259502Y155750D01*
X262501D02*
X260501D01*
X262501Y157750D01*
Y158250D01*
X262001Y158749D01*
X261001D01*
X260501Y158250D01*
X263500Y155251D02*
X265500D01*
X266499Y158749D02*
Y155750D01*
X267999D01*
X268499Y156250D01*
Y156750D01*
X267999Y157250D01*
X266499D01*
X267999D01*
X268499Y157750D01*
Y158250D01*
X267999Y158749D01*
X266499D01*
X271498Y155750D02*
X269498D01*
X271498Y157750D01*
Y158250D01*
X270998Y158749D01*
X269998D01*
X269498Y158250D01*
X257252Y185750D02*
Y188749D01*
X258752D01*
X259251Y188250D01*
Y187250D01*
X258752Y186750D01*
X257252D01*
X258252D02*
X259251Y185750D01*
X260251D02*
X261251D01*
X260751D01*
Y188749D01*
X260251Y188250D01*
X262750Y185251D02*
X264750D01*
X265749Y188749D02*
Y185750D01*
X267249D01*
X267749Y186250D01*
Y186750D01*
X267249Y187250D01*
X265749D01*
X267249D01*
X267749Y187750D01*
Y188250D01*
X267249Y188749D01*
X265749D01*
X270748Y185750D02*
X268748D01*
X270748Y187750D01*
Y188250D01*
X270248Y188749D01*
X269248D01*
X268748Y188250D01*
X125000Y50500D02*
X123000D01*
X122501Y50000D01*
Y49001D01*
X123000Y48501D01*
X125000D01*
X125499Y49001D01*
Y50000D01*
X124500Y49501D02*
X125499Y50500D01*
Y50000D02*
X125000Y50500D01*
X123000Y51500D02*
X122501Y52000D01*
Y52999D01*
X123000Y53499D01*
X123500D01*
X124000Y52999D01*
X124500Y53499D01*
X125000D01*
X125499Y52999D01*
Y52000D01*
X125000Y51500D01*
X124500D01*
X124000Y52000D01*
X123500Y51500D01*
X123000D01*
X124000Y52000D02*
Y52999D01*
X125000Y38500D02*
X123000D01*
X122501Y38000D01*
Y37001D01*
X123000Y36501D01*
X125000D01*
X125499Y37001D01*
Y38000D01*
X124500Y37501D02*
X125499Y38500D01*
Y38000D02*
X125000Y38500D01*
X122501Y39500D02*
Y41499D01*
X123000D01*
X125000Y39500D01*
X125499D01*
X125000Y62500D02*
X123000D01*
X122501Y62000D01*
Y61001D01*
X123000Y60501D01*
X125000D01*
X125499Y61001D01*
Y62000D01*
X124500Y61501D02*
X125499Y62500D01*
Y62000D02*
X125000Y62500D01*
X122501Y65499D02*
X123000Y64499D01*
X124000Y63500D01*
X125000D01*
X125499Y64000D01*
Y64999D01*
X125000Y65499D01*
X124500D01*
X124000Y64999D01*
Y63500D01*
X215000Y33000D02*
Y35000D01*
X214500Y35500D01*
X213501D01*
X213001Y35000D01*
Y33000D01*
X213501Y32500D01*
X214500D01*
X214001Y33500D02*
X215000Y32500D01*
X214500D02*
X215000Y33000D01*
X217999Y35500D02*
X216000D01*
Y34000D01*
X217000Y34500D01*
X217499D01*
X217999Y34000D01*
Y33000D01*
X217499Y32500D01*
X216500D01*
X216000Y33000D01*
X249500Y38000D02*
Y40000D01*
X249000Y40499D01*
X248001D01*
X247501Y40000D01*
Y38000D01*
X248001Y37501D01*
X249000D01*
X248500Y38500D02*
X249500Y37501D01*
X249000D02*
X249500Y38000D01*
X251999Y37501D02*
Y40499D01*
X250500Y39000D01*
X252499D01*
X288500Y59000D02*
Y61000D01*
X288000Y61500D01*
X287001D01*
X286501Y61000D01*
Y59000D01*
X287001Y58500D01*
X288000D01*
X287501Y59500D02*
X288500Y58500D01*
X288000D02*
X288500Y59000D01*
X289500Y61000D02*
X290000Y61500D01*
X290999D01*
X291499Y61000D01*
Y60500D01*
X290999Y60000D01*
X290499D01*
X290999D01*
X291499Y59500D01*
Y59000D01*
X290999Y58500D01*
X290000D01*
X289500Y59000D01*
X263500D02*
Y61000D01*
X263000Y61500D01*
X262001D01*
X261501Y61000D01*
Y59000D01*
X262001Y58500D01*
X263000D01*
X262501Y59500D02*
X263500Y58500D01*
X263000D02*
X263500Y59000D01*
X266499Y58500D02*
X264500D01*
X266499Y60500D01*
Y61000D01*
X265999Y61500D01*
X265000D01*
X264500Y61000D01*
X314000Y60000D02*
Y62000D01*
X313500Y62499D01*
X312501D01*
X312001Y62000D01*
Y60000D01*
X312501Y59500D01*
X313500D01*
X313000Y60500D02*
X314000Y59500D01*
X313500D02*
X314000Y60000D01*
X315000Y59500D02*
X315999D01*
X315499D01*
Y62499D01*
X315000Y62000D01*
X43501Y117499D02*
Y114500D01*
X45500D01*
X46500Y117000D02*
X47000Y117499D01*
X47999D01*
X48499Y117000D01*
Y116500D01*
X47999Y116000D01*
X47499D01*
X47999D01*
X48499Y115500D01*
Y115000D01*
X47999Y114500D01*
X47000D01*
X46500Y115000D01*
X74001Y135500D02*
Y132501D01*
X76000D01*
X77000D02*
X77999D01*
X77500D01*
Y135500D01*
X77000Y135000D01*
X226500Y156500D02*
X225500D01*
X226000D01*
Y154000D01*
X225500Y153500D01*
X225001D01*
X224501Y154000D01*
X229499Y156500D02*
X228500Y156000D01*
X227500Y155000D01*
Y154000D01*
X228000Y153500D01*
X228999D01*
X229499Y154000D01*
Y154500D01*
X228999Y155000D01*
X227500D01*
X7000Y53000D02*
X6001D01*
X6500D01*
Y50500D01*
X6001Y50001D01*
X5501D01*
X5001Y50500D01*
X9999Y53000D02*
X8000D01*
Y51500D01*
X8999Y52000D01*
X9499D01*
X9999Y51500D01*
Y50500D01*
X9499Y50001D01*
X8500D01*
X8000Y50500D01*
X52500Y32000D02*
Y31001D01*
Y31500D01*
X55000D01*
X55500Y31001D01*
Y30501D01*
X55000Y30001D01*
X55500Y34499D02*
X52500D01*
X54000Y33000D01*
Y34999D01*
X102499Y24799D02*
X101500D01*
X101999D01*
Y22300D01*
X101500Y21800D01*
X101000D01*
X100500Y22300D01*
X103499Y24299D02*
X103999Y24799D01*
X104999D01*
X105498Y24299D01*
Y23799D01*
X104999Y23300D01*
X104499D01*
X104999D01*
X105498Y22800D01*
Y22300D01*
X104999Y21800D01*
X103999D01*
X103499Y22300D01*
X215799Y24799D02*
X214800D01*
X215300D01*
Y22300D01*
X214800Y21800D01*
X214300D01*
X213800Y22300D01*
X218798Y21800D02*
X216799D01*
X218798Y23799D01*
Y24299D01*
X218299Y24799D01*
X217299D01*
X216799Y24299D01*
X119500Y189999D02*
X118500D01*
X119000D01*
Y187500D01*
X118500Y187001D01*
X118000D01*
X117501Y187500D01*
X120500Y187001D02*
X121499D01*
X121000D01*
Y189999D01*
X120500Y189500D01*
X223001Y47001D02*
Y49999D01*
X224501D01*
X225001Y49500D01*
Y48500D01*
X224501Y48000D01*
X223001D01*
X224001D02*
X225001Y47001D01*
X226000Y49500D02*
X226500Y49999D01*
X227500D01*
X228000Y49500D01*
Y49000D01*
X227500Y48500D01*
X227000D01*
X227500D01*
X228000Y48000D01*
Y47500D01*
X227500Y47001D01*
X226500D01*
X226000Y47500D01*
X228999Y49500D02*
X229499Y49999D01*
X230499D01*
X230999Y49500D01*
Y49000D01*
X230499Y48500D01*
X229999D01*
X230499D01*
X230999Y48000D01*
Y47500D01*
X230499Y47001D01*
X229499D01*
X228999Y47500D01*
X208001Y74499D02*
Y71500D01*
X209500D01*
X210000Y72000D01*
Y74000D01*
X209500Y74499D01*
X208001D01*
X211000D02*
X212999D01*
Y74000D01*
X211000Y72000D01*
Y71500D01*
X72500Y67001D02*
X75499D01*
Y68500D01*
X75000Y69000D01*
X73000D01*
X72500Y68500D01*
Y67001D01*
Y71999D02*
X73000Y70999D01*
X74000Y70000D01*
X75000D01*
X75499Y70500D01*
Y71499D01*
X75000Y71999D01*
X74500D01*
X74000Y71499D01*
Y70000D01*
X72500Y57001D02*
X75499D01*
Y58500D01*
X75000Y59000D01*
X73000D01*
X72500Y58500D01*
Y57001D01*
Y61999D02*
Y60000D01*
X74000D01*
X73500Y61000D01*
Y61499D01*
X74000Y61999D01*
X75000D01*
X75499Y61499D01*
Y60500D01*
X75000Y60000D01*
X72500Y46501D02*
X75499D01*
Y48000D01*
X75000Y48500D01*
X73000D01*
X72500Y48000D01*
Y46501D01*
X75499Y50999D02*
X72500D01*
X74000Y49500D01*
Y51499D01*
X300501Y39000D02*
Y36000D01*
X302000D01*
X302500Y36500D01*
Y38500D01*
X302000Y39000D01*
X300501D01*
X303500Y38500D02*
X304000Y39000D01*
X304999D01*
X305499Y38500D01*
Y38000D01*
X304999Y37500D01*
X304500D01*
X304999D01*
X305499Y37000D01*
Y36500D01*
X304999Y36000D01*
X304000D01*
X303500Y36500D01*
X276501Y39500D02*
Y36500D01*
X278000D01*
X278500Y37000D01*
Y39000D01*
X278000Y39500D01*
X276501D01*
X281499Y36500D02*
X279500D01*
X281499Y38500D01*
Y39000D01*
X280999Y39500D01*
X280000D01*
X279500Y39000D01*
X326001Y38500D02*
Y35500D01*
X327500D01*
X328000Y36000D01*
Y38000D01*
X327500Y38500D01*
X326001D01*
X329000Y35500D02*
X329999D01*
X329500D01*
Y38500D01*
X329000Y38000D01*
X198500Y73001D02*
X198001Y72501D01*
Y71501D01*
X198500Y71001D01*
X200500D01*
X200999Y71501D01*
Y72501D01*
X200500Y73001D01*
X198500Y74000D02*
X198001Y74500D01*
Y75500D01*
X198500Y76000D01*
X199000D01*
X199500Y75500D01*
Y75000D01*
Y75500D01*
X200000Y76000D01*
X200500D01*
X200999Y75500D01*
Y74500D01*
X200500Y74000D01*
X200999Y78999D02*
Y76999D01*
X199000Y78999D01*
X198500D01*
X198001Y78499D01*
Y77499D01*
X198500Y76999D01*
X191500Y73501D02*
X191000Y73001D01*
Y72001D01*
X191500Y71501D01*
X193500D01*
X194000Y72001D01*
Y73001D01*
X193500Y73501D01*
X191500Y74500D02*
X191000Y75000D01*
Y76000D01*
X191500Y76499D01*
X192000D01*
X192500Y76000D01*
Y75500D01*
Y76000D01*
X193000Y76499D01*
X193500D01*
X194000Y76000D01*
Y75000D01*
X193500Y74500D01*
X194000Y77499D02*
Y78499D01*
Y77999D01*
X191000D01*
X191500Y77499D01*
X184500Y73001D02*
X184001Y72501D01*
Y71501D01*
X184500Y71001D01*
X186500D01*
X186999Y71501D01*
Y72501D01*
X186500Y73001D01*
X184500Y74000D02*
X184001Y74500D01*
Y75500D01*
X184500Y76000D01*
X185000D01*
X185500Y75500D01*
Y75000D01*
Y75500D01*
X186000Y76000D01*
X186500D01*
X186999Y75500D01*
Y74500D01*
X186500Y74000D01*
X184500Y76999D02*
X184001Y77499D01*
Y78499D01*
X184500Y78999D01*
X186500D01*
X186999Y78499D01*
Y77499D01*
X186500Y76999D01*
X184500D01*
X162001Y30000D02*
X161501Y30500D01*
X160501D01*
X160001Y30000D01*
Y28000D01*
X160501Y27501D01*
X161501D01*
X162001Y28000D01*
X165000Y27501D02*
X163000D01*
X165000Y29500D01*
Y30000D01*
X164500Y30500D01*
X163500D01*
X163000Y30000D01*
X165999Y28000D02*
X166499Y27501D01*
X167499D01*
X167999Y28000D01*
Y30000D01*
X167499Y30500D01*
X166499D01*
X165999Y30000D01*
Y29500D01*
X166499Y29000D01*
X167999D01*
X192001Y36000D02*
X191501Y36500D01*
X190501D01*
X190001Y36000D01*
Y34000D01*
X190501Y33500D01*
X191501D01*
X192001Y34000D01*
X195000Y33500D02*
X193000D01*
X195000Y35500D01*
Y36000D01*
X194500Y36500D01*
X193500D01*
X193000Y36000D01*
X195999D02*
X196499Y36500D01*
X197499D01*
X197999Y36000D01*
Y35500D01*
X197499Y35000D01*
X197999Y34500D01*
Y34000D01*
X197499Y33500D01*
X196499D01*
X195999Y34000D01*
Y34500D01*
X196499Y35000D01*
X195999Y35500D01*
Y36000D01*
X196499Y35000D02*
X197499D01*
X180001Y26000D02*
X179501Y26500D01*
X178501D01*
X178001Y26000D01*
Y24000D01*
X178501Y23501D01*
X179501D01*
X180001Y24000D01*
X183000Y23501D02*
X181000D01*
X183000Y25500D01*
Y26000D01*
X182500Y26500D01*
X181500D01*
X181000Y26000D01*
X183999Y26500D02*
X185999D01*
Y26000D01*
X183999Y24000D01*
Y23501D01*
X51000Y86001D02*
X50501Y85501D01*
Y84501D01*
X51000Y84001D01*
X53000D01*
X53500Y84501D01*
Y85501D01*
X53000Y86001D01*
X53500Y89000D02*
Y87000D01*
X51500Y89000D01*
X51000D01*
X50501Y88500D01*
Y87500D01*
X51000Y87000D01*
X50501Y91999D02*
X51000Y90999D01*
X52000Y89999D01*
X53000D01*
X53500Y90499D01*
Y91499D01*
X53000Y91999D01*
X52500D01*
X52000Y91499D01*
Y89999D01*
X51000Y96001D02*
X50501Y95501D01*
Y94501D01*
X51000Y94001D01*
X53000D01*
X53500Y94501D01*
Y95501D01*
X53000Y96001D01*
X53500Y99000D02*
Y97000D01*
X51500Y99000D01*
X51000D01*
X50501Y98500D01*
Y97500D01*
X51000Y97000D01*
Y99999D02*
X50501Y100499D01*
Y101499D01*
X51000Y101999D01*
X51500D01*
X52000Y101499D01*
Y100999D01*
Y101499D01*
X52500Y101999D01*
X53000D01*
X53500Y101499D01*
Y100499D01*
X53000Y99999D01*
X43001Y134000D02*
X42501Y134500D01*
X41501D01*
X41001Y134000D01*
Y132000D01*
X41501Y131500D01*
X42501D01*
X43001Y132000D01*
X46000Y131500D02*
X44000D01*
X46000Y133500D01*
Y134000D01*
X45500Y134500D01*
X44500D01*
X44000Y134000D01*
X48999Y131500D02*
X46999D01*
X48999Y133500D01*
Y134000D01*
X48499Y134500D01*
X47499D01*
X46999Y134000D01*
X57500D02*
X57001Y134500D01*
X56001D01*
X55501Y134000D01*
Y132000D01*
X56001Y131500D01*
X57001D01*
X57500Y132000D01*
X60500Y131500D02*
X58500D01*
X60500Y133500D01*
Y134000D01*
X60000Y134500D01*
X59000D01*
X58500Y134000D01*
X61499Y131500D02*
X62499D01*
X61999D01*
Y134500D01*
X61499Y134000D01*
X7000Y76001D02*
X6500Y75501D01*
Y74501D01*
X7000Y74001D01*
X9000D01*
X9499Y74501D01*
Y75501D01*
X9000Y76001D01*
X9499Y79000D02*
Y77000D01*
X7500Y79000D01*
X7000D01*
X6500Y78500D01*
Y77500D01*
X7000Y77000D01*
Y79999D02*
X6500Y80499D01*
Y81499D01*
X7000Y81999D01*
X9000D01*
X9499Y81499D01*
Y80499D01*
X9000Y79999D01*
X7000D01*
Y86251D02*
X6500Y85751D01*
Y84751D01*
X7000Y84251D01*
X9000D01*
X9499Y84751D01*
Y85751D01*
X9000Y86251D01*
X9499Y87250D02*
Y88250D01*
Y87750D01*
X6500D01*
X7000Y87250D01*
X9000Y89749D02*
X9499Y90249D01*
Y91249D01*
X9000Y91749D01*
X7000D01*
X6500Y91249D01*
Y90249D01*
X7000Y89749D01*
X7500D01*
X8000Y90249D01*
Y91749D01*
X7000Y96251D02*
X6500Y95751D01*
Y94751D01*
X7000Y94251D01*
X9000D01*
X9499Y94751D01*
Y95751D01*
X9000Y96251D01*
X9499Y97250D02*
Y98250D01*
Y97750D01*
X6500D01*
X7000Y97250D01*
Y99749D02*
X6500Y100249D01*
Y101249D01*
X7000Y101749D01*
X7500D01*
X8000Y101249D01*
X8500Y101749D01*
X9000D01*
X9499Y101249D01*
Y100249D01*
X9000Y99749D01*
X8500D01*
X8000Y100249D01*
X7500Y99749D01*
X7000D01*
X8000Y100249D02*
Y101249D01*
X8251Y131000D02*
X7751Y131500D01*
X6751D01*
X6251Y131000D01*
Y129000D01*
X6751Y128500D01*
X7751D01*
X8251Y129000D01*
X9250Y128500D02*
X10250D01*
X9750D01*
Y131500D01*
X9250Y131000D01*
X11749Y131500D02*
X13749D01*
Y131000D01*
X11749Y129000D01*
Y128500D01*
X74251Y120500D02*
X73751Y121000D01*
X72751D01*
X72251Y120500D01*
Y118500D01*
X72751Y118000D01*
X73751D01*
X74251Y118500D01*
X75250Y118000D02*
X76250D01*
X75750D01*
Y121000D01*
X75250Y120500D01*
X79749Y121000D02*
X78749Y120500D01*
X77749Y119500D01*
Y118500D01*
X78249Y118000D01*
X79249D01*
X79749Y118500D01*
Y119000D01*
X79249Y119500D01*
X77749D01*
X62251Y120500D02*
X61751Y121000D01*
X60751D01*
X60251Y120500D01*
Y118500D01*
X60751Y118000D01*
X61751D01*
X62251Y118500D01*
X63250Y118000D02*
X64250D01*
X63750D01*
Y121000D01*
X63250Y120500D01*
X67749Y121000D02*
X65749D01*
Y119500D01*
X66749Y120000D01*
X67249D01*
X67749Y119500D01*
Y118500D01*
X67249Y118000D01*
X66249D01*
X65749Y118500D01*
X113000Y162251D02*
X112501Y161751D01*
Y160751D01*
X113000Y160251D01*
X115000D01*
X115499Y160751D01*
Y161751D01*
X115000Y162251D01*
X115499Y163250D02*
Y164250D01*
Y163750D01*
X112501D01*
X113000Y163250D01*
X115499Y167249D02*
X112501D01*
X114000Y165749D01*
Y167749D01*
X113000Y152251D02*
X112501Y151751D01*
Y150751D01*
X113000Y150251D01*
X115000D01*
X115499Y150751D01*
Y151751D01*
X115000Y152251D01*
X115499Y153250D02*
Y154250D01*
Y153750D01*
X112501D01*
X113000Y153250D01*
Y155749D02*
X112501Y156249D01*
Y157249D01*
X113000Y157749D01*
X113500D01*
X114000Y157249D01*
Y156749D01*
Y157249D01*
X114500Y157749D01*
X115000D01*
X115499Y157249D01*
Y156249D01*
X115000Y155749D01*
X69000Y152251D02*
X68501Y151751D01*
Y150751D01*
X69000Y150251D01*
X71000D01*
X71500Y150751D01*
Y151751D01*
X71000Y152251D01*
X71500Y153250D02*
Y154250D01*
Y153750D01*
X68501D01*
X69000Y153250D01*
X71500Y157749D02*
Y155749D01*
X69500Y157749D01*
X69000D01*
X68501Y157249D01*
Y156249D01*
X69000Y155749D01*
Y162750D02*
X68501Y162251D01*
Y161251D01*
X69000Y160751D01*
X71000D01*
X71500Y161251D01*
Y162251D01*
X71000Y162750D01*
X71500Y163750D02*
Y164750D01*
Y164250D01*
X68501D01*
X69000Y163750D01*
X71500Y166249D02*
Y167249D01*
Y166749D01*
X68501D01*
X69000Y166249D01*
X113000Y172251D02*
X112501Y171751D01*
Y170751D01*
X113000Y170251D01*
X115000D01*
X115499Y170751D01*
Y171751D01*
X115000Y172251D01*
X115499Y173250D02*
Y174250D01*
Y173750D01*
X112501D01*
X113000Y173250D01*
Y175749D02*
X112501Y176249D01*
Y177249D01*
X113000Y177749D01*
X115000D01*
X115499Y177249D01*
Y176249D01*
X115000Y175749D01*
X113000D01*
X121000Y113500D02*
X120501Y113000D01*
Y112001D01*
X121000Y111501D01*
X123000D01*
X123500Y112001D01*
Y113000D01*
X123000Y113500D01*
Y114500D02*
X123500Y115000D01*
Y115999D01*
X123000Y116499D01*
X121000D01*
X120501Y115999D01*
Y115000D01*
X121000Y114500D01*
X121500D01*
X122000Y115000D01*
Y116499D01*
X219500Y141000D02*
X219000Y141499D01*
X218001D01*
X217501Y141000D01*
Y139000D01*
X218001Y138500D01*
X219000D01*
X219500Y139000D01*
X220500Y141000D02*
X221000Y141499D01*
X221999D01*
X222499Y141000D01*
Y140500D01*
X221999Y140000D01*
X222499Y139500D01*
Y139000D01*
X221999Y138500D01*
X221000D01*
X220500Y139000D01*
Y139500D01*
X221000Y140000D01*
X220500Y140500D01*
Y141000D01*
X221000Y140000D02*
X221999D01*
X243000Y119500D02*
X242500Y120000D01*
X241501D01*
X241001Y119500D01*
Y117500D01*
X241501Y117000D01*
X242500D01*
X243000Y117500D01*
X244000Y120000D02*
X245999D01*
Y119500D01*
X244000Y117500D01*
Y117000D01*
X235500Y119500D02*
X235000Y120000D01*
X234001D01*
X233501Y119500D01*
Y117500D01*
X234001Y117000D01*
X235000D01*
X235500Y117500D01*
X238499Y120000D02*
X237499Y119500D01*
X236500Y118500D01*
Y117500D01*
X237000Y117000D01*
X237999D01*
X238499Y117500D01*
Y118000D01*
X237999Y118500D01*
X236500D01*
X228500Y119500D02*
X228000Y120000D01*
X227001D01*
X226501Y119500D01*
Y117500D01*
X227001Y117000D01*
X228000D01*
X228500Y117500D01*
X231499Y120000D02*
X229500D01*
Y118500D01*
X230500Y119000D01*
X230999D01*
X231499Y118500D01*
Y117500D01*
X230999Y117000D01*
X230000D01*
X229500Y117500D01*
X259502Y173250D02*
X259002Y173749D01*
X258002D01*
X257502Y173250D01*
Y171250D01*
X258002Y170750D01*
X259002D01*
X259502Y171250D01*
X262001Y170750D02*
Y173749D01*
X260501Y172250D01*
X262501D01*
X263500Y170251D02*
X265500D01*
X266499Y173749D02*
Y170750D01*
X267999D01*
X268499Y171250D01*
Y171750D01*
X267999Y172250D01*
X266499D01*
X267999D01*
X268499Y172750D01*
Y173250D01*
X267999Y173749D01*
X266499D01*
X271498Y170750D02*
X269498D01*
X271498Y172750D01*
Y173250D01*
X270998Y173749D01*
X269998D01*
X269498Y173250D01*
X132500Y121000D02*
X132000Y121500D01*
X131001D01*
X130501Y121000D01*
Y119000D01*
X131001Y118500D01*
X132000D01*
X132500Y119000D01*
X133500Y121000D02*
X134000Y121500D01*
X134999D01*
X135499Y121000D01*
Y120500D01*
X134999Y120000D01*
X134500D01*
X134999D01*
X135499Y119500D01*
Y119000D01*
X134999Y118500D01*
X134000D01*
X133500Y119000D01*
X184500Y138000D02*
X184000Y138499D01*
X183001D01*
X182501Y138000D01*
Y136000D01*
X183001Y135501D01*
X184000D01*
X184500Y136000D01*
X187499Y135501D02*
X185500D01*
X187499Y137500D01*
Y138000D01*
X186999Y138499D01*
X186000D01*
X185500Y138000D01*
X116500Y125500D02*
X116000Y125000D01*
Y124001D01*
X116500Y123501D01*
X118500D01*
X119000Y124001D01*
Y125000D01*
X118500Y125500D01*
X119000Y126500D02*
Y127499D01*
Y126999D01*
X116000D01*
X116500Y126500D01*
D21*
X42000Y46500D02*
Y71500D01*
M02*
