G04*
G04 #@! TF.GenerationSoftware,Altium Limited,Altium Designer,21.9.2 (33)*
G04*
G04 Layer_Color=32768*
%FSLAX25Y25*%
%MOIN*%
G70*
G04*
G04 #@! TF.SameCoordinates,A0D018B4-DB31-4F92-A021-C5504D576F11*
G04*
G04*
G04 #@! TF.FilePolarity,Positive*
G04*
G01*
G75*
%ADD17C,0.00472*%
D17*
X231083Y88232D02*
Y92589D01*
X233261Y94768D01*
X243917D01*
Y88232D02*
Y94768D01*
X231083Y88232D02*
X243917D01*
X297193Y160957D02*
Y168043D01*
X283807D02*
X297193D01*
X283807Y160957D02*
Y168043D01*
Y160957D02*
X297193D01*
X126035Y142610D02*
X132965D01*
Y146390D01*
X126035D02*
X132965D01*
X126035Y142610D02*
Y146390D01*
X244890Y123535D02*
Y130465D01*
X241110D02*
X244890D01*
X241110Y123535D02*
Y130465D01*
Y123535D02*
X244890D01*
X237890D02*
Y130465D01*
X234110D02*
X237890D01*
X234110Y123535D02*
Y130465D01*
Y123535D02*
X237890D01*
X259244Y44094D02*
Y54068D01*
X261081Y55905D01*
X264756D01*
Y44094D02*
Y55905D01*
X259244Y44094D02*
X264756D01*
X284244D02*
Y54068D01*
X286081Y55905D01*
X289756D01*
Y44094D02*
Y55905D01*
X284244Y44094D02*
X289756D01*
X310244Y45094D02*
Y55068D01*
X312081Y56906D01*
X315756D01*
Y45094D02*
Y56906D01*
X310244Y45094D02*
X315756D01*
X91610Y47911D02*
Y52268D01*
X89432Y45732D02*
X91610Y47911D01*
X78776Y45732D02*
X89432D01*
X78776D02*
Y52268D01*
X91610D01*
X91417Y58411D02*
Y62768D01*
X89239Y56232D02*
X91417Y58411D01*
X78583Y56232D02*
X89239D01*
X78583D02*
Y62768D01*
X91417D01*
Y68411D02*
Y72768D01*
X89239Y66232D02*
X91417Y68411D01*
X78583Y66232D02*
X89239D01*
X78583D02*
Y72768D01*
X91417D01*
X257807Y168043D02*
X271193D01*
X257807Y160957D02*
Y168043D01*
Y160957D02*
X271193D01*
Y168043D01*
X100307Y38543D02*
X113693D01*
Y31457D02*
Y38543D01*
X100307Y31457D02*
X113693D01*
X100307D02*
Y38543D01*
X122307D02*
X135693D01*
Y31457D02*
Y38543D01*
X122307Y31457D02*
X135693D01*
X122307D02*
Y38543D01*
X227110Y123535D02*
X230890D01*
X227110D02*
Y130465D01*
X230890D01*
Y123535D02*
Y130465D01*
X120957Y118807D02*
X128043D01*
X120957D02*
Y132193D01*
X128043D01*
Y118807D02*
Y132193D01*
X131110Y125035D02*
X134890D01*
X131110D02*
Y131965D01*
X134890D01*
Y125035D02*
Y131965D01*
X183110Y131465D02*
X186890D01*
Y124535D02*
Y131465D01*
X183110Y124535D02*
X186890D01*
X183110D02*
Y131465D01*
X216457Y134693D02*
X223543D01*
Y121307D02*
Y134693D01*
X216457Y121307D02*
X223543D01*
X216457D02*
Y134693D01*
X178175Y29170D02*
X185104D01*
Y32950D01*
X178175D02*
X185104D01*
X178175Y29170D02*
Y32950D01*
X167183Y34367D02*
Y47753D01*
X160097D02*
X167183D01*
X160097Y34367D02*
Y47753D01*
Y34367D02*
X167183D01*
X190096Y40367D02*
X197183D01*
X190096D02*
Y53753D01*
X197183D01*
Y40367D02*
Y53753D01*
X197610Y61535D02*
Y68465D01*
Y61535D02*
X201390D01*
Y68465D01*
X197610D02*
X201390D01*
X190610Y61535D02*
Y68465D01*
Y61535D02*
X194390D01*
Y68465D01*
X190610D02*
X194390D01*
X183610Y61535D02*
Y68465D01*
Y61535D02*
X187390D01*
Y68465D01*
X183610D02*
X187390D01*
X64457Y101307D02*
X71543D01*
X64457D02*
Y114693D01*
X71543D01*
Y101307D02*
Y114693D01*
X74457Y101307D02*
X81543D01*
X74457D02*
Y114693D01*
X81543D01*
Y101307D02*
Y114693D01*
X108693Y150457D02*
Y157543D01*
X95307Y150457D02*
X108693D01*
X95307D02*
Y157543D01*
X108693D01*
Y170457D02*
Y177543D01*
X95307Y170457D02*
X108693D01*
X95307D02*
Y177543D01*
X108693D01*
Y160457D02*
Y167543D01*
X95307Y160457D02*
X108693D01*
X95307D02*
Y167543D01*
X108693D01*
X75307Y160457D02*
Y167543D01*
X88693D01*
Y160457D02*
Y167543D01*
X75307Y160457D02*
X88693D01*
X75307Y150457D02*
Y157543D01*
X88693D01*
Y150457D02*
Y157543D01*
X75307Y150457D02*
X88693D01*
X116693Y110457D02*
Y117543D01*
X103307Y110457D02*
X116693D01*
X103307D02*
Y117543D01*
X116693D01*
X50457Y150693D02*
X57543D01*
Y137307D02*
Y150693D01*
X50457Y137307D02*
X57543D01*
X50457D02*
Y150693D01*
X40457D02*
X47543D01*
Y137307D02*
Y150693D01*
X40457Y137307D02*
X47543D01*
X40457D02*
Y150693D01*
X5307Y134457D02*
Y141543D01*
X18693D01*
Y134457D02*
Y141543D01*
X5307Y134457D02*
X18693D01*
X13307Y94457D02*
Y101543D01*
X26693D01*
Y94457D02*
Y101543D01*
X13307Y94457D02*
X26693D01*
X13307Y84457D02*
Y91543D01*
X26693D01*
Y84457D02*
Y91543D01*
X13307Y84457D02*
X26693D01*
X46693Y94457D02*
Y101543D01*
X33307Y94457D02*
X46693D01*
X33307D02*
Y101543D01*
X46693D01*
Y84457D02*
Y91543D01*
X33307Y84457D02*
X46693D01*
X33307D02*
Y91543D01*
X46693D01*
X13307Y74457D02*
Y81543D01*
X26693D01*
Y74457D02*
Y81543D01*
X13307Y74457D02*
X26693D01*
M02*
