G04*
G04 #@! TF.GenerationSoftware,Altium Limited,Altium Designer,21.9.2 (33)*
G04*
G04 Layer_Physical_Order=2*
G04 Layer_Color=32768*
%FSLAX25Y25*%
%MOIN*%
G70*
G04*
G04 #@! TF.SameCoordinates,A0D018B4-DB31-4F92-A021-C5504D576F11*
G04*
G04*
G04 #@! TF.FilePolarity,Negative*
G04*
G01*
G75*
%ADD90C,0.04000*%
%ADD91C,0.07937*%
%ADD92C,0.08700*%
%ADD93C,0.16800*%
%ADD94C,0.05575*%
%ADD95C,0.08331*%
%ADD96C,0.05500*%
D90*
Y7874D02*
G03*
X7874Y0I7874J0D01*
G01*
X326772D02*
G03*
X334646Y7874I0J7874D01*
G01*
Y185039D02*
G03*
X326772Y192913I-7874J0D01*
G01*
X7874D02*
G03*
X0Y185039I0J-7874D01*
G01*
X7874Y0D02*
X326772D01*
X334646Y7874D02*
Y185039D01*
X7874Y192913D02*
X326772D01*
X0Y7874D02*
Y185039D01*
D91*
X272000Y31000D02*
D03*
X262000D02*
D03*
X164000Y177500D02*
D03*
X154000D02*
D03*
X144000D02*
D03*
X164000Y167500D02*
D03*
X154000D02*
D03*
X296000Y31000D02*
D03*
X286000D02*
D03*
X310500D02*
D03*
X320500D02*
D03*
D92*
X106882Y12000D02*
D03*
X120661D02*
D03*
X148221D02*
D03*
X162000D02*
D03*
X175779D02*
D03*
X203339D02*
D03*
X289000Y106772D02*
D03*
X316677Y12000D02*
D03*
X289118D02*
D03*
X275339D02*
D03*
X261559D02*
D03*
X247779D02*
D03*
X234000D02*
D03*
X220220D02*
D03*
D93*
X317500Y176500D02*
D03*
D94*
X32949Y38816D02*
D03*
X14051D02*
D03*
X29799D02*
D03*
X17201D02*
D03*
X26650D02*
D03*
X20350D02*
D03*
X28224Y41572D02*
D03*
X18776D02*
D03*
X25075D02*
D03*
X21925D02*
D03*
D95*
X216500Y174000D02*
D03*
X67000Y20000D02*
D03*
D96*
X239500Y73000D02*
D03*
X222000Y97000D02*
D03*
X182500Y89450D02*
D03*
X185500Y119500D02*
D03*
X54684Y64491D02*
D03*
X66500Y64500D02*
D03*
X74000Y54500D02*
D03*
Y64500D02*
D03*
X75269Y75046D02*
D03*
X60500Y112500D02*
D03*
X37500Y138500D02*
D03*
X226500Y140000D02*
D03*
X248864Y130012D02*
D03*
X194971Y147432D02*
D03*
X206500Y147500D02*
D03*
X118599Y141830D02*
D03*
X285000Y172500D02*
D03*
X264000Y179500D02*
D03*
X290500Y180500D02*
D03*
X291000Y149500D02*
D03*
X168500Y82500D02*
D03*
X197500Y97650D02*
D03*
X179000Y98500D02*
D03*
X209000Y92500D02*
D03*
X176050Y109500D02*
D03*
X140700Y149000D02*
D03*
X151000Y128000D02*
D03*
X154000Y149000D02*
D03*
X45908Y59500D02*
D03*
X46000Y49000D02*
D03*
X46500Y69500D02*
D03*
X210500Y102500D02*
D03*
X205235Y102265D02*
D03*
X136836Y76164D02*
D03*
X127000Y75889D02*
D03*
X140500Y101500D02*
D03*
X115500Y51000D02*
D03*
X136500Y93500D02*
D03*
Y49500D02*
D03*
X159500Y82500D02*
D03*
X150500Y82050D02*
D03*
X137500Y110500D02*
D03*
X272500Y68500D02*
D03*
X138500Y138000D02*
D03*
X137520Y118192D02*
D03*
X151500Y121000D02*
D03*
X172000Y75500D02*
D03*
X171500Y135000D02*
D03*
X184500Y109000D02*
D03*
Y98500D02*
D03*
X190702Y98335D02*
D03*
X162609Y116013D02*
D03*
X164500Y150500D02*
D03*
X178000Y147000D02*
D03*
X280500Y64500D02*
D03*
X283000Y49621D02*
D03*
X190777Y109818D02*
D03*
X248500Y159500D02*
D03*
X249792Y113803D02*
D03*
X147000Y149000D02*
D03*
X29500Y79000D02*
D03*
Y75000D02*
D03*
X20000Y158000D02*
D03*
X102500Y94000D02*
D03*
X62000Y139500D02*
D03*
X84500Y113000D02*
D03*
X70000Y118500D02*
D03*
X52000Y134000D02*
D03*
X115000Y77000D02*
D03*
X39500Y168000D02*
D03*
X29500Y93000D02*
D03*
X192000Y125000D02*
D03*
X139000Y132500D02*
D03*
X92000Y174000D02*
D03*
Y153500D02*
D03*
Y163500D02*
D03*
X308000Y43000D02*
D03*
X281569Y42140D02*
D03*
X252000Y49000D02*
D03*
X218000Y42000D02*
D03*
X154000Y25000D02*
D03*
X202000Y118000D02*
D03*
X171000Y48000D02*
D03*
X175500Y52000D02*
D03*
X176500Y63000D02*
D03*
Y58500D02*
D03*
X171000Y32500D02*
D03*
X156035Y68616D02*
D03*
X146000Y45000D02*
D03*
Y57000D02*
D03*
Y69000D02*
D03*
M02*
