G04*
G04 #@! TF.GenerationSoftware,Altium Limited,Altium Designer,21.9.2 (33)*
G04*
G04 Layer_Color=255*
%FSLAX25Y25*%
%MOIN*%
G70*
G04*
G04 #@! TF.SameCoordinates,A0D018B4-DB31-4F92-A021-C5504D576F11*
G04*
G04*
G04 #@! TF.FilePolarity,Positive*
G04*
G01*
G75*
%ADD24R,0.04252X0.06575*%
%ADD35R,0.04567X0.07165*%
%ADD71C,0.06700*%
%ADD77R,0.06102X0.06102*%
%ADD78C,0.06102*%
%ADD82C,0.06299*%
%ADD83C,0.23622*%
%ADD84O,0.03937X0.06299*%
%ADD85C,0.02559*%
%ADD86R,0.06496X0.06496*%
%ADD87C,0.06496*%
%ADD88C,0.04700*%
D24*
X97000Y49000D02*
D03*
X85622D02*
D03*
X96496Y59500D02*
D03*
X85118D02*
D03*
X85311Y69500D02*
D03*
X96689D02*
D03*
X296689Y149500D02*
D03*
X285311D02*
D03*
X284811Y180500D02*
D03*
X296189D02*
D03*
X112689Y25500D02*
D03*
X101311D02*
D03*
X148311Y25000D02*
D03*
X159689D02*
D03*
X134878D02*
D03*
X123500D02*
D03*
D35*
X296307Y164500D02*
D03*
X284693D02*
D03*
X112807Y35000D02*
D03*
X101193D02*
D03*
X134807D02*
D03*
X123193D02*
D03*
D71*
X106882Y12000D02*
D03*
X120661D02*
D03*
X134441D02*
D03*
X148221D02*
D03*
X162000D02*
D03*
X175779D02*
D03*
X189559D02*
D03*
X203339D02*
D03*
X316677D02*
D03*
X302898D02*
D03*
X289118D02*
D03*
X275339D02*
D03*
X261559D02*
D03*
X247779D02*
D03*
X234000D02*
D03*
X220220D02*
D03*
D77*
X164000Y177500D02*
D03*
D78*
X154000D02*
D03*
X144000D02*
D03*
X164000Y167500D02*
D03*
X154000D02*
D03*
X144000D02*
D03*
D82*
X272000Y31000D02*
D03*
X262000D02*
D03*
X296000D02*
D03*
X286000D02*
D03*
X310500D02*
D03*
X320500D02*
D03*
D83*
X317500Y176500D02*
D03*
D84*
X6689Y18423D02*
D03*
X40311D02*
D03*
X6689Y37045D02*
D03*
X40311D02*
D03*
D85*
X32949Y38816D02*
D03*
X14051D02*
D03*
X29799D02*
D03*
X17201D02*
D03*
X26650D02*
D03*
X20350D02*
D03*
X34524Y41572D02*
D03*
X12476D02*
D03*
X31374D02*
D03*
X15626D02*
D03*
X28224D02*
D03*
X18776D02*
D03*
X25075D02*
D03*
X21925D02*
D03*
D86*
X216500Y174000D02*
D03*
X67000Y20000D02*
D03*
D87*
X196500Y174000D02*
D03*
X87000Y20000D02*
D03*
D88*
X289000Y106772D02*
D03*
M02*
